<svg width="542" height="234" viewBox="0 0 542 234" fill="none" xmlns="http://www.w3.org/2000/svg">
<mask id="mask0_308_5" style="mask-type:alpha" maskUnits="userSpaceOnUse" x="0" y="0" width="542" height="234">
<rect x="0.5" y="0.5" width="541" height="233" fill="white" stroke="black"/>
</mask>
<g mask="url(#mask0_308_5)">
<rect x="-5.87975" y="-5.87975" width="553.76" height="245.759" fill="white" stroke="white" stroke-width="11.7595"/>
<rect x="372.444" y="15.6759" width="162.281" height="162.281" fill="#F26923" stroke="white" stroke-width="11.7595"/>
<mask id="path-4-outside-1_308_5" maskUnits="userSpaceOnUse" x="352.236" y="45.8955" width="138" height="161" fill="black">
<rect fill="white" x="352.236" y="45.8955" width="138" height="161"/>
<path d="M421.125 176.25C440.137 176.25 449.644 159.596 449.644 126.287C449.644 110.811 447.286 98.5782 442.569 89.5876C438 80.5971 430.852 76.1018 421.125 76.1018C411.397 76.1018 404.175 80.5971 399.459 89.5876C394.743 98.4308 392.384 110.664 392.384 126.287C392.384 141.91 394.743 154.143 399.459 162.986C404.175 171.829 411.397 176.25 421.125 176.25ZM420.903 205.433C401.006 205.433 384.868 198.211 372.487 183.767C360.254 169.323 354.138 150.163 354.138 126.287C354.138 102.263 360.254 83.1027 372.487 68.8062C384.868 54.3625 401.08 47.1406 421.125 47.1406C441.464 47.1406 457.676 54.3625 469.762 68.8062C481.995 83.1027 488.111 102.263 488.111 126.287C488.111 150.311 481.921 169.544 469.541 183.988C457.308 198.285 441.095 205.433 420.903 205.433Z"/>
</mask>
<path d="M421.125 176.25C440.137 176.25 449.644 159.596 449.644 126.287C449.644 110.811 447.286 98.5782 442.569 89.5876C438 80.5971 430.852 76.1018 421.125 76.1018C411.397 76.1018 404.175 80.5971 399.459 89.5876C394.743 98.4308 392.384 110.664 392.384 126.287C392.384 141.91 394.743 154.143 399.459 162.986C404.175 171.829 411.397 176.25 421.125 176.25ZM420.903 205.433C401.006 205.433 384.868 198.211 372.487 183.767C360.254 169.323 354.138 150.163 354.138 126.287C354.138 102.263 360.254 83.1027 372.487 68.8062C384.868 54.3625 401.08 47.1406 421.125 47.1406C441.464 47.1406 457.676 54.3625 469.762 68.8062C481.995 83.1027 488.111 102.263 488.111 126.287C488.111 150.311 481.921 169.544 469.541 183.988C457.308 198.285 441.095 205.433 420.903 205.433Z" fill="white"/>
<path d="M442.569 89.5876L441.504 90.1288L441.508 90.1357L441.511 90.1425L442.569 89.5876ZM399.459 89.5876L400.513 90.1497L400.517 90.1425L399.459 89.5876ZM399.459 162.986L400.513 162.424V162.424L399.459 162.986ZM372.487 183.767L371.576 184.539L371.58 184.544L372.487 183.767ZM372.487 68.8062L371.58 68.0289L371.58 68.0297L372.487 68.8062ZM469.762 68.8062L468.846 69.5728L468.854 69.5828L469.762 68.8062ZM469.541 183.988L468.634 183.211L468.633 183.212L469.541 183.988ZM421.125 176.25V177.445C431.064 177.445 438.588 173.047 443.551 164.352C448.458 155.756 450.838 143.016 450.838 126.287H449.644H448.449C448.449 142.867 446.076 155.109 441.477 163.167C436.934 171.126 430.198 175.056 421.125 175.056V176.25ZM449.644 126.287H450.838C450.838 110.71 448.468 98.261 443.627 89.0327L442.569 89.5876L441.511 90.1425C446.103 98.8953 448.449 110.912 448.449 126.287H449.644ZM442.569 89.5876L443.634 89.0465C441.271 84.3963 438.207 80.8453 434.417 78.4622C430.625 76.0774 426.178 74.9074 421.125 74.9074V76.1018V77.2963C425.798 77.2963 429.789 78.3739 433.145 80.4844C436.504 82.5965 439.299 85.7885 441.504 90.1288L442.569 89.5876ZM421.125 76.1018V74.9074C416.07 74.9074 411.608 76.0775 407.781 78.4592C403.958 80.8392 400.839 84.3858 398.401 89.0327L399.459 89.5876L400.517 90.1425C402.795 85.799 405.645 82.6026 409.044 80.4874C412.439 78.3738 416.451 77.2963 421.125 77.2963V76.1018ZM399.459 89.5876L398.405 89.0255C393.559 98.112 391.19 110.567 391.19 126.287H392.384H393.579C393.579 110.761 395.926 98.7495 400.513 90.1497L399.459 89.5876ZM392.384 126.287H391.19C391.19 142.006 393.559 154.461 398.405 163.548L399.459 162.986L400.513 162.424C395.926 153.824 393.579 141.813 393.579 126.287H392.384ZM399.459 162.986L398.405 163.548C400.845 168.122 403.966 171.612 407.789 173.953C411.614 176.295 416.074 177.445 421.125 177.445V176.25V175.056C416.448 175.056 412.433 173.995 409.036 171.916C405.638 169.835 402.789 166.692 400.513 162.424L399.459 162.986ZM420.903 205.433V204.238C401.337 204.238 385.536 197.155 373.394 182.99L372.487 183.767L371.58 184.544C384.199 199.267 400.676 206.627 420.903 206.627V205.433ZM372.487 183.767L373.399 182.995C361.392 168.819 355.332 149.956 355.332 126.287H354.138H352.943C352.943 150.37 359.116 169.828 371.576 184.539L372.487 183.767ZM354.138 126.287H355.332C355.332 102.467 361.393 83.6085 373.395 69.5828L372.487 68.8062L371.58 68.0297C359.115 82.5968 352.943 102.059 352.943 126.287H354.138ZM372.487 68.8062L373.394 69.5836C385.534 55.4203 401.407 48.335 421.125 48.335V47.1405V45.9461C400.753 45.9461 384.201 53.3046 371.58 68.0289L372.487 68.8062ZM421.125 47.1405V48.335C441.142 48.335 457.007 55.4239 468.846 69.5728L469.762 68.8062L470.678 68.0397C458.345 53.301 441.785 45.9461 421.125 45.9461V47.1405ZM469.762 68.8062L468.854 69.5828C480.856 83.6085 486.917 102.467 486.917 126.287H488.111H489.306C489.306 102.059 483.134 82.5968 470.669 68.0297L469.762 68.8062ZM488.111 126.287H486.917C486.917 150.103 480.784 169.036 468.634 183.211L469.541 183.988L470.448 184.765C483.058 170.053 489.306 150.519 489.306 126.287H488.111ZM469.541 183.988L468.633 183.212C456.645 197.222 440.775 204.238 420.903 204.238V205.433V206.627C441.415 206.627 457.97 199.348 470.448 184.765L469.541 183.988Z" fill="white" mask="url(#path-4-outside-1_308_5)"/>
<mask id="path-6-outside-2_308_5" maskUnits="userSpaceOnUse" x="408.829" y="178.517" width="125" height="45" fill="black">
<rect fill="white" x="408.829" y="178.517" width="125" height="45"/>
<path d="M430.988 215.517V204.265L421.286 186.369H427.727L432.13 195.011L434.046 199.169H434.127C434.861 197.566 435.513 196.18 436.084 195.011L440.405 186.369H446.602L436.899 204.265V215.517H430.988ZM455.71 216.128C452.34 216.128 449.691 215.095 447.761 213.03C445.831 210.937 444.867 208.274 444.867 205.04C444.867 201.914 445.831 199.305 447.761 197.213C449.691 195.093 452.164 194.033 455.18 194.033C458.469 194.033 461.01 195.174 462.804 197.457C464.597 199.74 465.494 202.798 465.494 206.63H450.329C450.547 208.287 451.104 209.578 452.001 210.502C452.898 211.399 454.121 211.848 455.67 211.848C457.708 211.848 459.053 210.992 459.706 209.279H465.168C464.761 211.236 463.728 212.867 462.07 214.171C460.412 215.476 458.292 216.128 455.71 216.128ZM455.262 198.313C452.571 198.313 450.954 199.808 450.411 202.798H459.706C459.624 201.466 459.176 200.392 458.36 199.577C457.545 198.734 456.512 198.313 455.262 198.313ZM482.859 215.517C482.587 215.163 482.369 214.389 482.206 213.193H482.125C481.527 214.09 480.766 214.783 479.842 215.272C478.918 215.761 477.627 216.006 475.969 216.006C473.768 216.006 472.001 215.449 470.669 214.334C469.338 213.22 468.672 211.644 468.672 209.605C468.672 207.486 469.406 205.937 470.873 204.958C472.341 203.953 474.406 203.26 477.07 202.879C479.026 202.607 480.358 202.336 481.065 202.064C481.771 201.765 482.125 201.248 482.125 200.515C482.125 199.754 481.826 199.156 481.228 198.721C480.63 198.259 479.76 198.028 478.619 198.028C476.091 198.028 474.746 199.006 474.583 200.963H469.65C469.732 198.979 470.534 197.335 472.055 196.03C473.577 194.726 475.779 194.074 478.66 194.074C484.53 194.074 487.465 196.642 487.465 201.778V212.418C487.465 213.995 487.71 214.959 488.199 215.313V215.517H482.859ZM477.314 212.133C478.836 212.133 480.032 211.739 480.902 210.951C481.799 210.163 482.247 209.225 482.247 208.138V204.999C481.649 205.352 480.358 205.76 478.374 206.222C476.798 206.575 475.684 206.983 475.031 207.445C474.379 207.88 474.053 208.559 474.053 209.483C474.053 211.25 475.14 212.133 477.314 212.133ZM497.961 194.604V197.946H498.083C498.735 196.723 499.456 195.827 500.244 195.256C501.032 194.658 502.024 194.359 503.22 194.359C503.79 194.359 504.225 194.413 504.524 194.522V199.373H504.402C502.527 199.183 501.018 199.591 499.877 200.596C498.735 201.602 498.165 203.178 498.165 205.325V215.517H492.62V194.604H497.961ZM517.023 216.128C514.033 216.128 511.696 215.476 510.011 214.171C508.326 212.84 507.402 211.032 507.239 208.749H512.375C512.728 211.059 514.25 212.215 516.941 212.215C518.164 212.215 519.102 211.997 519.754 211.562C520.433 211.127 520.773 210.543 520.773 209.809C520.773 209.538 520.719 209.293 520.61 209.076C520.528 208.858 520.365 208.668 520.121 208.505C519.903 208.315 519.7 208.165 519.509 208.056C519.346 207.948 519.047 207.839 518.612 207.73C518.178 207.622 517.838 207.54 517.593 207.486C517.376 207.431 516.982 207.363 516.411 207.282C515.867 207.173 515.487 207.092 515.27 207.037C514.128 206.82 513.191 206.602 512.457 206.385C511.75 206.14 511.003 205.801 510.215 205.366C509.426 204.904 508.829 204.292 508.421 203.531C508.04 202.743 507.85 201.806 507.85 200.718C507.85 198.544 508.638 196.886 510.215 195.745C511.818 194.604 513.87 194.033 516.37 194.033C519.061 194.033 521.167 194.658 522.689 195.908C524.238 197.131 525.121 198.816 525.339 200.963H520.325C520.107 198.925 518.762 197.906 516.289 197.906C515.174 197.906 514.291 198.109 513.639 198.517C513.014 198.925 512.701 199.495 512.701 200.229C512.701 200.474 512.742 200.705 512.824 200.922C512.932 201.113 513.095 201.289 513.313 201.452C513.557 201.588 513.788 201.71 514.006 201.819C514.223 201.901 514.536 201.996 514.943 202.105C515.351 202.186 515.704 202.268 516.003 202.349C516.302 202.403 516.71 202.485 517.226 202.594C517.743 202.675 518.15 202.743 518.449 202.798C519.319 202.988 520.026 203.164 520.569 203.327C521.14 203.463 521.792 203.708 522.526 204.061C523.26 204.387 523.83 204.768 524.238 205.203C524.673 205.61 525.04 206.181 525.339 206.915C525.665 207.622 525.828 208.45 525.828 209.402C525.828 211.467 525.013 213.111 523.382 214.334C521.779 215.53 519.659 216.128 517.023 216.128Z"/>
</mask>
<path d="M430.988 215.517V204.265L421.286 186.369H427.727L432.13 195.011L434.046 199.169H434.127C434.861 197.566 435.513 196.18 436.084 195.011L440.405 186.369H446.602L436.899 204.265V215.517H430.988ZM455.71 216.128C452.34 216.128 449.691 215.095 447.761 213.03C445.831 210.937 444.867 208.274 444.867 205.04C444.867 201.914 445.831 199.305 447.761 197.213C449.691 195.093 452.164 194.033 455.18 194.033C458.469 194.033 461.01 195.174 462.804 197.457C464.597 199.74 465.494 202.798 465.494 206.63H450.329C450.547 208.287 451.104 209.578 452.001 210.502C452.898 211.399 454.121 211.848 455.67 211.848C457.708 211.848 459.053 210.992 459.706 209.279H465.168C464.761 211.236 463.728 212.867 462.07 214.171C460.412 215.476 458.292 216.128 455.71 216.128ZM455.262 198.313C452.571 198.313 450.954 199.808 450.411 202.798H459.706C459.624 201.466 459.176 200.392 458.36 199.577C457.545 198.734 456.512 198.313 455.262 198.313ZM482.859 215.517C482.587 215.163 482.369 214.389 482.206 213.193H482.125C481.527 214.09 480.766 214.783 479.842 215.272C478.918 215.761 477.627 216.006 475.969 216.006C473.768 216.006 472.001 215.449 470.669 214.334C469.338 213.22 468.672 211.644 468.672 209.605C468.672 207.486 469.406 205.937 470.873 204.958C472.341 203.953 474.406 203.26 477.07 202.879C479.026 202.607 480.358 202.336 481.065 202.064C481.771 201.765 482.125 201.248 482.125 200.515C482.125 199.754 481.826 199.156 481.228 198.721C480.63 198.259 479.76 198.028 478.619 198.028C476.091 198.028 474.746 199.006 474.583 200.963H469.65C469.732 198.979 470.534 197.335 472.055 196.03C473.577 194.726 475.779 194.074 478.66 194.074C484.53 194.074 487.465 196.642 487.465 201.778V212.418C487.465 213.995 487.71 214.959 488.199 215.313V215.517H482.859ZM477.314 212.133C478.836 212.133 480.032 211.739 480.902 210.951C481.799 210.163 482.247 209.225 482.247 208.138V204.999C481.649 205.352 480.358 205.76 478.374 206.222C476.798 206.575 475.684 206.983 475.031 207.445C474.379 207.88 474.053 208.559 474.053 209.483C474.053 211.25 475.14 212.133 477.314 212.133ZM497.961 194.604V197.946H498.083C498.735 196.723 499.456 195.827 500.244 195.256C501.032 194.658 502.024 194.359 503.22 194.359C503.79 194.359 504.225 194.413 504.524 194.522V199.373H504.402C502.527 199.183 501.018 199.591 499.877 200.596C498.735 201.602 498.165 203.178 498.165 205.325V215.517H492.62V194.604H497.961ZM517.023 216.128C514.033 216.128 511.696 215.476 510.011 214.171C508.326 212.84 507.402 211.032 507.239 208.749H512.375C512.728 211.059 514.25 212.215 516.941 212.215C518.164 212.215 519.102 211.997 519.754 211.562C520.433 211.127 520.773 210.543 520.773 209.809C520.773 209.538 520.719 209.293 520.61 209.076C520.528 208.858 520.365 208.668 520.121 208.505C519.903 208.315 519.7 208.165 519.509 208.056C519.346 207.948 519.047 207.839 518.612 207.73C518.178 207.622 517.838 207.54 517.593 207.486C517.376 207.431 516.982 207.363 516.411 207.282C515.867 207.173 515.487 207.092 515.27 207.037C514.128 206.82 513.191 206.602 512.457 206.385C511.75 206.14 511.003 205.801 510.215 205.366C509.426 204.904 508.829 204.292 508.421 203.531C508.04 202.743 507.85 201.806 507.85 200.718C507.85 198.544 508.638 196.886 510.215 195.745C511.818 194.604 513.87 194.033 516.37 194.033C519.061 194.033 521.167 194.658 522.689 195.908C524.238 197.131 525.121 198.816 525.339 200.963H520.325C520.107 198.925 518.762 197.906 516.289 197.906C515.174 197.906 514.291 198.109 513.639 198.517C513.014 198.925 512.701 199.495 512.701 200.229C512.701 200.474 512.742 200.705 512.824 200.922C512.932 201.113 513.095 201.289 513.313 201.452C513.557 201.588 513.788 201.71 514.006 201.819C514.223 201.901 514.536 201.996 514.943 202.105C515.351 202.186 515.704 202.268 516.003 202.349C516.302 202.403 516.71 202.485 517.226 202.594C517.743 202.675 518.15 202.743 518.449 202.798C519.319 202.988 520.026 203.164 520.569 203.327C521.14 203.463 521.792 203.708 522.526 204.061C523.26 204.387 523.83 204.768 524.238 205.203C524.673 205.61 525.04 206.181 525.339 206.915C525.665 207.622 525.828 208.45 525.828 209.402C525.828 211.467 525.013 213.111 523.382 214.334C521.779 215.53 519.659 216.128 517.023 216.128Z" fill="#024E80"/>
<path d="M430.988 215.517H423.988V222.517H430.988V215.517ZM430.988 204.265H437.988V202.49L437.142 200.929L430.988 204.265ZM421.286 186.369V179.369H409.528L415.132 189.705L421.286 186.369ZM427.727 186.369L433.964 183.191L432.017 179.369H427.727V186.369ZM432.13 195.011L438.487 192.082L438.43 191.957L438.367 191.834L432.13 195.011ZM434.046 199.169L427.688 202.099L429.564 206.169H434.046V199.169ZM434.127 199.169V206.169H438.622L440.492 202.082L434.127 199.169ZM436.084 195.011L429.823 191.881L429.808 191.91L429.794 191.939L436.084 195.011ZM440.405 186.369V179.369H436.079L434.144 183.238L440.405 186.369ZM446.602 186.369L452.756 189.705L458.359 179.369H446.602V186.369ZM436.899 204.265L430.746 200.929L429.899 202.49V204.265H436.899ZM436.899 215.517V222.517H443.899V215.517H436.899ZM430.988 215.517H437.988V204.265H430.988H423.988V215.517H430.988ZM430.988 204.265L437.142 200.929L427.44 183.032L421.286 186.369L415.132 189.705L424.834 207.601L430.988 204.265ZM421.286 186.369V193.369H427.727V186.369V179.369H421.286V186.369ZM427.727 186.369L421.49 189.546L425.892 198.189L432.13 195.011L438.367 191.834L433.964 183.191L427.727 186.369ZM432.13 195.011L425.772 197.941L427.688 202.099L434.046 199.169L440.403 196.24L438.487 192.082L432.13 195.011ZM434.046 199.169V206.169H434.127V199.169V192.169H434.046V199.169ZM434.127 199.169L440.492 202.082C441.21 200.515 441.836 199.184 442.374 198.083L436.084 195.011L429.794 191.939C429.19 193.175 428.512 194.617 427.762 196.256L434.127 199.169ZM436.084 195.011L442.345 198.142L446.666 189.499L440.405 186.369L434.144 183.238L429.823 191.881L436.084 195.011ZM440.405 186.369V193.369H446.602V186.369V179.369H440.405V186.369ZM446.602 186.369L440.448 183.032L430.746 200.929L436.899 204.265L443.053 207.601L452.756 189.705L446.602 186.369ZM436.899 204.265H429.899V215.517H436.899H443.899V204.265H436.899ZM436.899 215.517V208.517H430.988V215.517V222.517H436.899V215.517ZM447.761 213.03L442.615 217.775L442.63 217.792L442.646 217.808L447.761 213.03ZM447.761 197.213L452.907 201.958L452.922 201.941L452.938 201.925L447.761 197.213ZM465.494 206.63V213.63H472.494V206.63H465.494ZM450.329 206.63V199.63H442.351L443.389 207.54L450.329 206.63ZM452.001 210.502L446.978 215.378L447.014 215.415L447.051 215.452L452.001 210.502ZM459.706 209.279V202.279H454.881L453.164 206.787L459.706 209.279ZM465.168 209.279L472.021 210.707L473.777 202.279H465.168V209.279ZM462.07 214.171L457.741 208.67V208.67L462.07 214.171ZM450.411 202.798L443.524 201.545L442.023 209.798H450.411V202.798ZM459.706 202.798V209.798H467.147L466.692 202.37L459.706 202.798ZM458.36 199.577L453.33 204.445L453.37 204.486L453.41 204.527L458.36 199.577ZM455.71 216.128V209.128C453.875 209.128 453.229 208.629 452.876 208.251L447.761 213.03L442.646 217.808C446.152 221.562 450.805 223.128 455.71 223.128V216.128ZM447.761 213.03L452.907 208.285C452.333 207.662 451.867 206.773 451.867 205.04H444.867H437.867C437.867 209.775 439.329 214.212 442.615 217.775L447.761 213.03ZM444.867 205.04H451.867C451.867 203.486 452.291 202.626 452.907 201.958L447.761 197.213L442.615 192.467C439.372 195.984 437.867 200.343 437.867 205.04H444.867ZM447.761 197.213L452.938 201.925C453.464 201.346 454.018 201.033 455.18 201.033V194.033V187.033C450.31 187.033 445.917 188.839 442.584 192.501L447.761 197.213ZM455.18 194.033V201.033C456.644 201.033 457.021 201.427 457.3 201.782L462.804 197.457L468.308 193.132C464.999 188.922 460.294 187.033 455.18 187.033V194.033ZM462.804 197.457L457.3 201.782C457.854 202.487 458.494 203.863 458.494 206.63H465.494H472.494C472.494 201.732 471.341 196.993 468.308 193.132L462.804 197.457ZM465.494 206.63V199.63H450.329V206.63V213.63H465.494V206.63ZM450.329 206.63L443.389 207.54C443.743 210.245 444.756 213.089 446.978 215.378L452.001 210.502L457.024 205.627C457.117 205.723 457.189 205.817 457.244 205.899C457.297 205.981 457.326 206.041 457.337 206.067C457.358 206.116 457.31 206.024 457.27 205.719L450.329 206.63ZM452.001 210.502L447.051 215.452C449.54 217.942 452.701 218.848 455.67 218.848V211.848V204.848C455.565 204.848 455.709 204.832 456 204.939C456.317 205.055 456.66 205.263 456.95 205.553L452.001 210.502ZM455.67 211.848V218.848C457.653 218.848 459.896 218.428 461.965 217.111C464.093 215.757 465.468 213.817 466.247 211.771L459.706 209.279L453.164 206.787C453.291 206.454 453.667 205.798 454.449 205.3C455.173 204.839 455.724 204.848 455.67 204.848V211.848ZM459.706 209.279V216.279H465.168V209.279V202.279H459.706V209.279ZM465.168 209.279L458.315 207.852C458.263 208.102 458.182 208.323 457.741 208.67L462.07 214.171L466.399 219.672C469.273 217.41 471.258 214.371 472.021 210.707L465.168 209.279ZM462.07 214.171L457.741 208.67C457.574 208.802 457.084 209.128 455.71 209.128V216.128V223.128C459.501 223.128 463.25 222.15 466.399 219.672L462.07 214.171ZM455.262 198.313V191.313C452.566 191.313 449.655 192.099 447.28 194.294C445.003 196.399 443.966 199.114 443.524 201.545L450.411 202.798L457.298 204.05C457.399 203.492 457.443 203.964 456.783 204.575C456.453 204.879 456.08 205.089 455.74 205.207C455.421 205.317 455.233 205.313 455.262 205.313V198.313ZM450.411 202.798V209.798H459.706V202.798V195.798H450.411V202.798ZM459.706 202.798L466.692 202.37C466.524 199.617 465.521 196.838 463.31 194.627L458.36 199.577L453.41 204.527C453.167 204.283 452.973 203.989 452.849 203.692C452.731 203.409 452.719 203.228 452.719 203.225L459.706 202.798ZM458.36 199.577L463.39 194.709C461.162 192.406 458.268 191.313 455.262 191.313V198.313V205.313C455.09 205.313 454.749 205.281 454.33 205.111C453.902 204.936 453.562 204.685 453.33 204.445L458.36 199.577ZM482.859 215.517L477.31 219.785L479.412 222.517H482.859V215.517ZM482.206 213.193L489.142 212.247L488.316 206.193H482.206V213.193ZM482.125 213.193V206.193H478.378L476.3 209.31L482.125 213.193ZM470.669 214.334L475.161 208.966V208.966L470.669 214.334ZM470.873 204.958L474.756 210.782L474.793 210.758L474.83 210.733L470.873 204.958ZM477.07 202.879L476.107 195.946L476.093 195.947L476.08 195.949L477.07 202.879ZM481.065 202.064L483.578 208.597L483.686 208.556L483.792 208.511L481.065 202.064ZM481.228 198.721L476.948 204.26L477.028 204.322L477.111 204.382L481.228 198.721ZM474.583 200.963V207.963H481.024L481.559 201.544L474.583 200.963ZM469.65 200.963L462.656 200.676L462.357 207.963H469.65V200.963ZM472.055 196.03L467.5 190.716L472.055 196.03ZM488.199 215.313H495.199V211.734L492.297 209.638L488.199 215.313ZM488.199 215.517V222.517H495.199V215.517H488.199ZM480.902 210.951L476.281 205.693L476.241 205.728L476.201 205.764L480.902 210.951ZM482.247 204.999H489.247V192.732L478.686 198.972L482.247 204.999ZM478.374 206.222L479.905 213.052L479.934 213.046L479.962 213.039L478.374 206.222ZM475.031 207.445L478.914 213.269L478.997 213.214L479.078 213.157L475.031 207.445ZM482.859 215.517L488.407 211.249C488.794 211.752 488.999 212.184 489.087 212.387C489.183 212.609 489.224 212.755 489.231 212.779C489.241 212.814 489.199 212.667 489.142 212.247L482.206 213.193L475.27 214.139C475.376 214.915 475.525 215.753 475.752 216.562C475.94 217.231 476.354 218.542 477.31 219.785L482.859 215.517ZM482.206 213.193V206.193H482.125V213.193V220.193H482.206V213.193ZM482.125 213.193L476.3 209.31C476.3 209.31 476.302 209.307 476.306 209.302C476.31 209.296 476.316 209.289 476.324 209.279C476.341 209.26 476.364 209.236 476.392 209.21C476.454 209.154 476.517 209.112 476.567 209.085L479.842 215.272L483.117 221.459C485.102 220.408 486.727 218.909 487.949 217.076L482.125 213.193ZM479.842 215.272L476.567 209.085C476.859 208.931 477.003 208.921 476.877 208.945C476.756 208.968 476.468 209.006 475.969 209.006V216.006V223.006C478.167 223.006 480.761 222.706 483.117 221.459L479.842 215.272ZM475.969 216.006V209.006C475.452 209.006 475.186 208.94 475.099 208.912C475.03 208.89 475.079 208.897 475.161 208.966L470.669 214.334L466.177 219.703C469.076 222.128 472.576 223.006 475.969 223.006V216.006ZM470.669 214.334L475.161 208.966C475.235 209.027 475.326 209.118 475.416 209.239C475.506 209.361 475.573 209.483 475.62 209.593C475.713 209.815 475.672 209.865 475.672 209.605H468.672H461.672C461.672 213.316 462.973 217.022 466.177 219.703L470.669 214.334ZM468.672 209.605H475.672C475.672 209.342 475.717 209.493 475.548 209.85C475.464 210.029 475.344 210.218 475.189 210.396C475.034 210.574 474.88 210.7 474.756 210.782L470.873 204.958L466.99 199.134C463.164 201.685 461.672 205.688 461.672 209.605H468.672ZM470.873 204.958L474.83 210.733C475.073 210.566 475.963 210.108 478.06 209.809L477.07 202.879L476.08 195.949C472.849 196.411 469.609 197.339 466.917 199.184L470.873 204.958ZM477.07 202.879L478.033 209.813C479.937 209.548 482.022 209.195 483.578 208.597L481.065 202.064L478.552 195.53C478.737 195.459 478.671 195.504 478.136 195.613C477.664 195.709 476.998 195.822 476.107 195.946L477.07 202.879ZM481.065 202.064L483.792 208.511C485.099 207.957 486.548 206.996 487.637 205.405C488.74 203.792 489.125 202.042 489.125 200.515H482.125H475.125C475.125 199.721 475.332 198.596 476.083 197.499C476.818 196.424 477.737 195.871 478.337 195.617L481.065 202.064ZM482.125 200.515H489.125C489.125 197.592 487.816 194.857 485.345 193.06L481.228 198.721L477.111 204.382C476.6 204.011 476.043 203.433 475.64 202.626C475.24 201.826 475.125 201.07 475.125 200.515H482.125ZM481.228 198.721L485.508 193.182C483.199 191.397 480.557 191.028 478.619 191.028V198.028V205.028C478.737 205.028 478.614 205.042 478.33 204.967C478.033 204.888 477.513 204.697 476.948 204.26L481.228 198.721ZM478.619 198.028V191.028C476.6 191.028 473.942 191.395 471.597 193.101C468.977 195.006 467.824 197.778 467.607 200.382L474.583 200.963L481.559 201.544C481.538 201.798 481.455 202.291 481.153 202.878C480.837 203.494 480.373 204.029 479.831 204.423C478.831 205.15 478.11 205.028 478.619 205.028V198.028ZM474.583 200.963V193.963H469.65V200.963V207.963H474.583V200.963ZM469.65 200.963L476.644 201.25C476.647 201.187 476.653 201.172 476.648 201.195C476.645 201.205 476.641 201.222 476.633 201.243C476.625 201.264 476.616 201.287 476.605 201.31C476.593 201.333 476.582 201.354 476.571 201.371C476.56 201.388 476.551 201.4 476.547 201.405C476.538 201.417 476.553 201.395 476.611 201.345L472.055 196.03L467.5 190.716C464.518 193.271 462.818 196.729 462.656 200.676L469.65 200.963ZM472.055 196.03L476.611 201.345C476.409 201.518 476.732 201.074 478.66 201.074V194.074V187.074C474.826 187.074 470.746 187.933 467.5 190.716L472.055 196.03ZM478.66 194.074V201.074C479.639 201.074 480.237 201.183 480.552 201.275C480.845 201.361 480.811 201.405 480.654 201.268C480.478 201.113 480.39 200.943 480.373 200.899C480.373 200.898 480.465 201.144 480.465 201.778H487.465H494.465C494.465 197.87 493.305 193.735 489.873 190.732C486.62 187.885 482.461 187.074 478.66 187.074V194.074ZM487.465 201.778H480.465V212.418H487.465H494.465V201.778H487.465ZM487.465 212.418H480.465C480.465 213.492 480.541 214.772 480.863 216.044C481.146 217.161 481.897 219.396 484.1 220.988L488.199 215.313L492.297 209.638C493.186 210.28 493.709 211.016 493.994 211.528C494.274 212.031 494.39 212.432 494.434 212.604C494.512 212.912 494.465 212.921 494.465 212.418H487.465ZM488.199 215.313H481.199V215.517H488.199H495.199V215.313H488.199ZM488.199 215.517V208.517H482.859V215.517V222.517H488.199V215.517ZM477.314 212.133V219.133C480.044 219.133 483.1 218.405 485.602 216.138L480.902 210.951L476.201 205.764C476.543 205.454 476.899 205.276 477.162 205.189C477.401 205.11 477.481 205.133 477.314 205.133V212.133ZM480.902 210.951L485.523 216.209C487.765 214.238 489.247 211.45 489.247 208.138H482.247H475.247C475.247 207.686 475.348 207.154 475.596 206.636C475.836 206.135 476.124 205.83 476.281 205.693L480.902 210.951ZM482.247 208.138H489.247V204.999H482.247H475.247V208.138H482.247ZM482.247 204.999L478.686 198.972C478.943 198.82 479.098 198.763 479.053 198.781C479.028 198.791 478.926 198.83 478.722 198.895C478.311 199.025 477.681 199.196 476.787 199.404L478.374 206.222L479.962 213.039C481.778 212.617 484.135 212.014 485.808 211.025L482.247 204.999ZM478.374 206.222L476.843 199.391C475.097 199.783 472.83 200.426 470.985 201.733L475.031 207.445L479.078 213.157C478.878 213.298 478.738 213.37 478.699 213.389C478.657 213.41 478.671 213.4 478.761 213.366C478.952 213.297 479.316 213.185 479.905 213.052L478.374 206.222ZM475.031 207.445L471.148 201.621C468.178 203.601 467.053 206.702 467.053 209.483H474.053H481.053C481.053 209.837 480.99 210.515 480.608 211.31C480.205 212.149 479.59 212.819 478.914 213.269L475.031 207.445ZM474.053 209.483H467.053C467.053 211.874 467.86 214.795 470.454 216.903C472.771 218.785 475.46 219.133 477.314 219.133V212.133V205.133C476.994 205.133 478.053 205.039 479.282 206.038C479.94 206.572 480.435 207.259 480.733 207.986C481.014 208.669 481.053 209.22 481.053 209.483H474.053ZM497.961 194.604H504.961V187.604H497.961V194.604ZM497.961 197.946H490.961V204.946H497.961V197.946ZM498.083 197.946V204.946H502.283L504.26 201.24L498.083 197.946ZM500.244 195.256L504.349 200.925L504.412 200.88L504.474 200.833L500.244 195.256ZM504.524 194.522H511.524V189.619L506.916 187.943L504.524 194.522ZM504.524 199.373V206.373H511.524V199.373H504.524ZM504.402 199.373L503.695 206.337L504.048 206.373H504.402V199.373ZM499.877 200.596L504.504 205.849V205.849L499.877 200.596ZM498.165 215.517V222.517H505.165V215.517H498.165ZM492.62 215.517H485.62V222.517H492.62V215.517ZM492.62 194.604V187.604H485.62V194.604H492.62ZM497.961 194.604H490.961V197.946H497.961H504.961V194.604H497.961ZM497.961 197.946V204.946H498.083V197.946V190.946H497.961V197.946ZM498.083 197.946L504.26 201.24C504.421 200.938 504.532 200.787 504.57 200.739C504.608 200.692 504.543 200.785 504.349 200.925L500.244 195.256L496.138 189.586C494.202 190.988 492.862 192.862 491.907 194.652L498.083 197.946ZM500.244 195.256L504.474 200.833C504.173 201.061 503.863 201.206 503.599 201.285C503.348 201.361 503.203 201.359 503.22 201.359V194.359V187.359C500.824 187.359 498.256 187.977 496.013 189.679L500.244 195.256ZM503.22 194.359V201.359C503.296 201.359 503.247 201.363 503.106 201.346C502.983 201.33 502.621 201.278 502.132 201.101L504.524 194.522L506.916 187.943C505.469 187.417 504.065 187.359 503.22 187.359V194.359ZM504.524 194.522H497.524V199.373H504.524H511.524V194.522H504.524ZM504.524 199.373V192.373H504.402V199.373V206.373H504.524V199.373ZM504.402 199.373L505.108 192.409C501.791 192.072 498.19 192.753 495.25 195.344L499.877 200.596L504.504 205.849C504.388 205.951 504.25 206.049 504.096 206.131C503.943 206.212 503.802 206.264 503.691 206.294C503.469 206.354 503.437 206.311 503.695 206.337L504.402 199.373ZM499.877 200.596L495.25 195.344C492.059 198.154 491.165 202.022 491.165 205.325H498.165H505.165C505.165 204.847 505.231 204.759 505.175 204.916C505.143 205.002 505.079 205.149 504.962 205.326C504.842 205.506 504.688 205.686 504.504 205.849L499.877 200.596ZM498.165 205.325H491.165V215.517H498.165H505.165V205.325H498.165ZM498.165 215.517V208.517H492.62V215.517V222.517H498.165V215.517ZM492.62 215.517H499.62V194.604H492.62H485.62V215.517H492.62ZM492.62 194.604V201.604H497.961V194.604V187.604H492.62V194.604ZM510.011 214.171L505.67 219.663L505.698 219.685L505.726 219.706L510.011 214.171ZM507.239 208.749V201.749H499.721L500.256 209.248L507.239 208.749ZM512.375 208.749L519.295 207.691L518.386 201.749H512.375V208.749ZM519.754 211.562L515.98 205.666L515.925 205.702L515.871 205.738L519.754 211.562ZM520.61 209.076L514.056 211.533L514.185 211.877L514.349 212.206L520.61 209.076ZM520.121 208.505L515.511 213.773L515.856 214.075L516.238 214.329L520.121 208.505ZM519.509 208.056L515.626 213.881L515.827 214.014L516.036 214.134L519.509 208.056ZM518.612 207.73L520.31 200.939H520.31L518.612 207.73ZM517.593 207.486L515.896 214.277L515.985 214.299L516.075 214.319L517.593 207.486ZM516.411 207.282L515.038 214.146L515.229 214.184L515.421 214.211L516.411 207.282ZM515.27 207.037L516.967 200.246L516.775 200.198L516.579 200.161L515.27 207.037ZM512.457 206.385L510.167 213L510.316 213.052L510.468 213.097L512.457 206.385ZM510.215 205.366L506.675 211.405L506.753 211.451L506.833 211.495L510.215 205.366ZM508.421 203.531L502.117 206.575L502.181 206.707L502.25 206.837L508.421 203.531ZM510.215 195.745L506.155 190.042L506.132 190.059L506.109 190.075L510.215 195.745ZM522.689 195.908L518.246 201.317L518.298 201.36L518.352 201.402L522.689 195.908ZM525.339 200.963V207.963H533.084L532.303 200.258L525.339 200.963ZM520.325 200.963L513.364 201.706L514.032 207.963H520.325V200.963ZM513.639 198.517L509.929 192.581L509.872 192.617L509.815 192.654L513.639 198.517ZM512.824 200.922L506.269 203.38L506.467 203.907L506.746 204.395L512.824 200.922ZM513.313 201.452L509.113 207.052L509.495 207.339L509.913 207.571L513.313 201.452ZM514.006 201.819L510.875 208.08L511.204 208.244L511.548 208.373L514.006 201.819ZM514.943 202.105L513.14 208.868L513.354 208.925L513.571 208.969L514.943 202.105ZM516.003 202.349L514.162 209.102L514.453 209.182L514.751 209.236L516.003 202.349ZM517.226 202.594L515.784 209.444L515.959 209.48L516.135 209.508L517.226 202.594ZM518.449 202.798L519.945 195.959L519.824 195.933L519.702 195.91L518.449 202.798ZM520.569 203.327L518.558 210.032L518.751 210.09L518.948 210.137L520.569 203.327ZM522.526 204.061L519.489 210.368L519.585 210.415L519.683 210.458L522.526 204.061ZM524.238 205.203L519.131 209.99L519.286 210.155L519.451 210.309L524.238 205.203ZM525.339 206.915L518.856 209.556L518.916 209.704L518.983 209.848L525.339 206.915ZM523.382 214.334L527.567 219.946L527.574 219.94L527.582 219.934L523.382 214.334ZM517.023 216.128V209.128C514.973 209.128 514.345 208.675 514.296 208.636L510.011 214.171L505.726 219.706C509.046 222.277 513.093 223.128 517.023 223.128V216.128ZM510.011 214.171L514.351 208.679C514.321 208.655 514.301 208.637 514.29 208.626C514.278 208.615 514.273 208.609 514.273 208.609C514.273 208.609 514.275 208.611 514.279 208.617C514.282 208.622 514.285 208.627 514.287 208.63C514.291 208.64 514.282 208.626 514.269 208.574C514.255 208.521 514.233 208.418 514.221 208.251L507.239 208.749L500.256 209.248C500.549 213.348 502.332 217.025 505.67 219.663L510.011 214.171ZM507.239 208.749V215.749H512.375V208.749V201.749H507.239V208.749ZM512.375 208.749L505.456 209.808C505.842 212.336 507.03 215.012 509.55 216.924C511.937 218.736 514.676 219.215 516.941 219.215V212.215V205.215C516.516 205.215 517.148 205.116 518.013 205.772C518.452 206.105 518.791 206.518 519.016 206.934C519.228 207.327 519.283 207.617 519.295 207.691L512.375 208.749ZM516.941 212.215V219.215C518.831 219.215 521.357 218.907 523.637 217.387L519.754 211.562L515.871 205.738C516.385 205.395 516.809 205.272 516.98 205.232C517.147 205.194 517.156 205.215 516.941 205.215V212.215ZM519.754 211.562L523.527 217.458C525.98 215.889 527.773 213.199 527.773 209.809H520.773H513.773C513.773 209.049 513.963 208.147 514.467 207.28C514.955 206.44 515.563 205.934 515.98 205.666L519.754 211.562ZM520.773 209.809H527.773C527.773 208.58 527.521 207.244 526.871 205.945L520.61 209.076L514.349 212.206C513.917 211.342 513.773 210.495 513.773 209.809H520.773ZM520.61 209.076L527.164 206.618C526.445 204.699 525.143 203.44 524.004 202.68L520.121 208.505L516.238 214.329C515.588 213.896 514.612 213.018 514.056 211.533L520.61 209.076ZM520.121 208.505L524.73 203.237C524.266 202.83 523.682 202.378 522.982 201.979L519.509 208.056L516.036 214.134C515.717 213.952 515.541 213.799 515.511 213.773L520.121 208.505ZM519.509 208.056L523.392 202.232C522.132 201.392 520.78 201.057 520.31 200.939L518.612 207.73L516.915 214.521C516.984 214.539 516.92 214.526 516.771 214.472C516.692 214.443 516.555 214.391 516.381 214.309C516.214 214.23 515.944 214.093 515.626 213.881L519.509 208.056ZM518.612 207.73L520.31 200.939C519.854 200.825 519.445 200.726 519.112 200.652L517.593 207.486L516.075 214.319C516.23 214.354 516.501 214.418 516.915 214.521L518.612 207.73ZM517.593 207.486L519.291 200.695C518.68 200.542 517.954 200.431 517.401 200.352L516.411 207.282L515.421 214.211C515.666 214.246 515.836 214.273 515.945 214.292C515.971 214.297 515.99 214.3 516.004 214.303C516.018 214.305 516.025 214.306 516.024 214.306C516.024 214.306 516.014 214.304 515.994 214.3C515.976 214.296 515.942 214.288 515.896 214.277L517.593 207.486ZM516.411 207.282L517.784 200.418C517.531 200.367 517.334 200.326 517.185 200.295C517.025 200.26 516.964 200.245 516.967 200.246L515.27 207.037L513.572 213.828C513.969 213.928 514.498 214.038 515.038 214.146L516.411 207.282ZM515.27 207.037L516.579 200.161C515.563 199.967 514.873 199.8 514.445 199.673L512.457 206.385L510.468 213.097C511.508 213.405 512.694 213.672 513.96 213.914L515.27 207.037ZM512.457 206.385L514.746 199.77C514.484 199.679 514.103 199.516 513.596 199.237L510.215 205.366L506.833 211.495C507.903 212.085 509.016 212.602 510.167 213L512.457 206.385ZM510.215 205.366L513.755 199.327C513.861 199.389 514.015 199.498 514.18 199.667C514.347 199.837 514.486 200.03 514.591 200.226L508.421 203.531L502.25 206.837C503.303 208.801 504.842 210.331 506.675 211.405L510.215 205.366ZM508.421 203.531L514.725 200.488C514.9 200.85 514.85 201.001 514.85 200.718H507.85H500.85C500.85 202.61 501.181 204.636 502.117 206.575L508.421 203.531ZM507.85 200.718H514.85C514.85 200.481 514.89 200.582 514.763 200.85C514.702 200.978 514.621 201.104 514.528 201.215C514.436 201.324 514.357 201.388 514.32 201.415L510.215 195.745L506.109 190.075C502.482 192.702 500.85 196.604 500.85 200.718H507.85ZM510.215 195.745L514.274 201.448C514.407 201.353 514.93 201.033 516.37 201.033V194.033V187.033C512.81 187.033 509.229 187.854 506.155 190.042L510.215 195.745ZM516.37 194.033V201.033C518.031 201.033 518.367 201.417 518.246 201.317L522.689 195.908L527.132 190.499C523.967 187.899 520.091 187.033 516.37 187.033V194.033ZM522.689 195.908L518.352 201.402C518.377 201.422 518.374 201.423 518.357 201.403C518.339 201.382 518.324 201.358 518.313 201.339C518.304 201.321 518.31 201.327 518.323 201.372C518.336 201.418 518.359 201.513 518.374 201.668L525.339 200.963L532.303 200.258C531.915 196.419 530.211 192.928 527.027 190.414L522.689 195.908ZM525.339 200.963V193.963H520.325V200.963V207.963H525.339V200.963ZM520.325 200.963L527.285 200.221C527.019 197.725 525.914 195.011 523.38 193.09C521.04 191.318 518.369 190.906 516.289 190.906V197.906V204.906C516.681 204.906 515.919 205.002 514.926 204.25C514.407 203.856 513.993 203.351 513.717 202.811C513.455 202.298 513.383 201.887 513.364 201.706L520.325 200.963ZM516.289 197.906V190.906C514.419 190.906 512.086 191.233 509.929 192.581L513.639 198.517L517.349 204.453C516.911 204.726 516.547 204.837 516.365 204.879C516.188 204.92 516.146 204.906 516.289 204.906V197.906ZM513.639 198.517L509.815 192.654C507.249 194.327 505.701 197.082 505.701 200.229H512.701H519.701C519.701 200.885 519.552 201.742 519.075 202.613C518.601 203.479 517.973 204.047 517.463 204.38L513.639 198.517ZM512.701 200.229H505.701C505.701 201.268 505.878 202.335 506.269 203.38L512.824 200.922L519.378 198.464C519.607 199.074 519.701 199.68 519.701 200.229H512.701ZM512.824 200.922L506.746 204.395C507.428 205.589 508.309 206.45 509.113 207.052L513.313 201.452L517.513 195.852C517.882 196.129 518.437 196.636 518.901 197.449L512.824 200.922ZM513.313 201.452L509.913 207.571C510.234 207.749 510.555 207.92 510.875 208.08L514.006 201.819L517.136 195.558C517.022 195.501 516.881 195.427 516.712 195.333L513.313 201.452ZM514.006 201.819L511.548 208.373C512.086 208.575 512.658 208.74 513.14 208.868L514.943 202.105L516.747 195.341C516.601 195.302 516.501 195.273 516.441 195.255C516.412 195.246 516.4 195.242 516.4 195.242C516.401 195.242 516.407 195.244 516.417 195.248C516.427 195.251 516.443 195.257 516.464 195.265L514.006 201.819ZM514.943 202.105L513.571 208.969C513.87 209.028 514.06 209.075 514.162 209.102L516.003 202.349L517.845 195.596C517.349 195.461 516.832 195.344 516.316 195.24L514.943 202.105ZM516.003 202.349L514.751 209.236C514.957 209.274 515.292 209.34 515.784 209.444L517.226 202.594L518.668 195.744C518.128 195.63 517.648 195.533 517.256 195.462L516.003 202.349ZM517.226 202.594L516.135 209.508C516.63 209.586 516.976 209.644 517.197 209.685L518.449 202.798L519.702 195.91C519.325 195.842 518.856 195.764 518.318 195.679L517.226 202.594ZM518.449 202.798L516.953 209.636C517.735 209.807 518.251 209.94 518.558 210.032L520.569 203.327L522.581 196.623C521.8 196.388 520.903 196.169 519.945 195.959L518.449 202.798ZM520.569 203.327L518.948 210.137C518.903 210.126 518.927 210.129 519.029 210.167C519.129 210.205 519.281 210.268 519.489 210.368L522.526 204.061L525.563 197.754C524.537 197.26 523.397 196.805 522.191 196.518L520.569 203.327ZM522.526 204.061L519.683 210.458C519.747 210.486 519.716 210.479 519.621 210.416C519.526 210.352 519.345 210.218 519.131 209.99L524.238 205.203L529.345 200.415C528.117 199.106 526.678 198.246 525.369 197.665L522.526 204.061ZM524.238 205.203L519.451 210.309C518.949 209.839 518.819 209.464 518.856 209.556L525.339 206.915L531.821 204.274C531.261 202.898 530.397 201.382 529.026 200.096L524.238 205.203ZM525.339 206.915L518.983 209.848C518.801 209.454 518.828 209.243 518.828 209.402H525.828H532.828C532.828 207.658 532.529 205.789 531.695 203.982L525.339 206.915ZM525.828 209.402H518.828C518.828 209.456 518.823 209.44 518.838 209.369C518.855 209.296 518.887 209.191 518.945 209.074C519.003 208.957 519.07 208.862 519.127 208.795C519.182 208.73 519.21 208.713 519.182 208.734L523.382 214.334L527.582 219.934C531.003 217.369 532.828 213.636 532.828 209.402H525.828ZM523.382 214.334L519.197 208.723C519.137 208.768 518.628 209.128 517.023 209.128V216.128V223.128C520.689 223.128 524.421 222.292 527.567 219.946L523.382 214.334Z" fill="white" mask="url(#path-6-outside-2_308_5)"/>
<mask id="path-8-outside-3_308_5" maskUnits="userSpaceOnUse" x="7" y="28" width="235" height="52" fill="black">
<rect fill="white" x="7" y="28" width="235" height="52"/>
<path d="M28.2412 65.6115C24.1374 65.6115 20.7673 64.1983 18.1311 61.3718C15.5221 58.5182 14.2176 54.9036 14.2176 50.528C14.2176 46.1252 15.4949 42.4834 18.0496 39.6026C20.6043 36.7218 23.9879 35.2814 28.2004 35.2814C31.6791 35.2814 34.4648 36.2054 36.5575 38.0535C38.6773 39.8744 39.9003 42.2253 40.2264 45.1061H34.3561C34.0843 43.6113 33.4049 42.4291 32.3178 41.5594C31.2579 40.6897 29.8854 40.2549 28.2004 40.2549C25.6185 40.2549 23.6482 41.2061 22.2893 43.1085C20.9304 45.011 20.251 47.4841 20.251 50.528C20.251 53.5447 20.9712 56.0042 22.4116 57.9067C23.8792 59.8091 25.8224 60.7603 28.2412 60.7603C29.9533 60.7603 31.3802 60.2983 32.5216 59.3743C33.6631 58.423 34.3289 57.1729 34.5192 55.6238H40.308C40.1449 58.3687 39.0714 60.6652 37.0874 62.5133C34.8861 64.5787 31.9373 65.6115 28.2412 65.6115ZM54.5548 65.6115C51.1848 65.6115 48.535 64.5787 46.6054 62.5133C44.6758 60.4206 43.711 57.7572 43.711 54.5231C43.711 51.3977 44.6758 48.7886 46.6054 46.696C48.535 44.5761 51.0081 43.5162 54.0248 43.5162C57.3133 43.5162 59.8544 44.6576 61.6481 46.9406C63.4419 49.2235 64.3387 52.2809 64.3387 56.113H49.1737C49.3911 57.7708 49.9482 59.0617 50.8451 59.9858C51.7419 60.8826 52.9649 61.331 54.514 61.331C56.5524 61.331 57.8976 60.4749 58.5499 58.7628H64.0126C63.6049 60.7195 62.5722 62.3502 60.9143 63.6547C59.2565 64.9592 57.1367 65.6115 54.5548 65.6115ZM54.1064 47.7966C51.4158 47.7966 49.7987 49.2914 49.2552 52.2809H58.5499C58.4684 50.9492 58.0199 49.8757 57.2046 49.0604C56.3893 48.2179 55.3565 47.7966 54.1064 47.7966ZM68.6169 65V35.8521H74.1611V65H68.6169ZM89.2666 65.6115C85.8966 65.6115 83.2468 64.5787 81.3172 62.5133C79.3876 60.4206 78.4228 57.7572 78.4228 54.5231C78.4228 51.3977 79.3876 48.7886 81.3172 46.696C83.2468 44.5761 85.72 43.5162 88.7367 43.5162C92.0251 43.5162 94.5662 44.6576 96.36 46.9406C98.1537 49.2235 99.0505 52.2809 99.0505 56.113H83.8855C84.1029 57.7708 84.66 59.0617 85.5569 59.9858C86.4538 60.8826 87.6767 61.331 89.2259 61.331C91.2642 61.331 92.6095 60.4749 93.2617 58.7628H98.7244C98.3167 60.7195 97.284 62.3502 95.6262 63.6547C93.9683 64.9592 91.8485 65.6115 89.2666 65.6115ZM88.8182 47.7966C86.1276 47.7966 84.5106 49.2914 83.967 52.2809H93.2617C93.1802 50.9492 92.7318 49.8757 91.9164 49.0604C91.1011 48.2179 90.0684 47.7966 88.8182 47.7966ZM114.906 65.6115C112.08 65.6115 110.001 64.538 108.669 62.391H108.588V65H103.247V35.8521H108.791V46.6144H108.914C110.245 44.5489 112.189 43.5162 114.743 43.5162C117.38 43.5162 119.54 44.5489 121.225 46.6144C122.91 48.6527 123.753 51.3025 123.753 54.5638C123.753 57.9339 122.937 60.6244 121.307 62.6356C119.676 64.6195 117.543 65.6115 114.906 65.6115ZM113.683 60.9641C115.097 60.9641 116.184 60.407 116.945 59.2927C117.733 58.1784 118.127 56.6022 118.127 54.5638C118.127 52.5527 117.719 50.9628 116.904 49.7942C116.116 48.5984 114.974 48.0005 113.48 48.0005C110.273 48.0005 108.669 50.229 108.669 54.6861C108.669 56.6157 109.118 58.1513 110.014 59.2927C110.911 60.407 112.134 60.9641 113.683 60.9641ZM133.309 44.0869V47.4297H133.431C134.083 46.2068 134.803 45.3099 135.591 44.7392C136.38 44.1413 137.372 43.8423 138.567 43.8423C139.138 43.8423 139.573 43.8967 139.872 44.0054V48.8566H139.75C137.874 48.6663 136.366 49.074 135.225 50.0796C134.083 51.0851 133.512 52.6614 133.512 54.8084V65H127.968V44.0869H133.309ZM156.461 65C156.189 64.6467 155.972 63.8721 155.809 62.6763H155.727C155.129 63.5732 154.369 64.2662 153.444 64.7554C152.52 65.2446 151.23 65.4892 149.572 65.4892C147.37 65.4892 145.604 64.9321 144.272 63.8178C142.94 62.7035 142.275 61.1272 142.275 59.0889C142.275 56.969 143.008 55.4199 144.476 54.4415C145.943 53.436 148.009 52.7429 150.672 52.3625C152.629 52.0907 153.961 51.8189 154.667 51.5471C155.374 51.2482 155.727 50.7318 155.727 49.998C155.727 49.2371 155.428 48.6391 154.831 48.2043C154.233 47.7423 153.363 47.5113 152.221 47.5113C149.694 47.5113 148.349 48.4897 148.186 50.4464H143.253C143.334 48.4625 144.136 46.8183 145.658 45.5137C147.18 44.2092 149.381 43.557 152.262 43.557C158.133 43.557 161.068 46.1252 161.068 51.2618V61.9018C161.068 63.4781 161.312 64.4429 161.802 64.7962V65H156.461ZM150.917 61.6164C152.439 61.6164 153.635 61.2223 154.504 60.4342C155.401 59.646 155.85 58.7084 155.85 57.6213V54.4823C155.252 54.8356 153.961 55.2433 151.977 55.7053C150.401 56.0586 149.286 56.4663 148.634 56.9283C147.982 57.3631 147.656 58.0426 147.656 58.9666C147.656 60.7331 148.743 61.6164 150.917 61.6164ZM164.602 47.7559V44.0869H167.496V37.5643H172.918V44.0869H176.506V47.7559H172.918V58.8443C172.918 60.2303 173.611 60.9234 174.997 60.9234L176.628 60.8826V64.9592C175.786 65.0136 174.631 65.0408 173.163 65.0408C171.559 65.0408 170.214 64.6603 169.127 63.8993C168.04 63.1112 167.496 61.8202 167.496 60.0265V47.7559H164.602ZM180.991 65V44.0869H186.536V65H180.991ZM180.991 40.8256V35.8521H186.536V40.8256H180.991ZM197.161 44.0869V46.9406H197.283C198.723 44.6576 200.789 43.5162 203.479 43.5162C205.626 43.5162 207.366 44.25 208.697 45.7176C210.029 47.158 210.695 49.0332 210.695 51.3433V65H205.151V52.1586C205.151 51.0172 204.825 50.0931 204.172 49.3865C203.547 48.6799 202.664 48.3266 201.523 48.3266C200.3 48.3266 199.28 48.775 198.465 49.6719C197.677 50.5687 197.283 51.7238 197.283 53.137V65H191.739V44.0869H197.161ZM224.956 72.1341C222.13 72.1341 219.86 71.5634 218.148 70.4219C216.463 69.2805 215.471 67.677 215.172 65.6115H220.676C221.219 67.1606 222.619 67.9352 224.875 67.9352C227.973 67.9352 229.522 66.4812 229.522 63.5732V61.2903H229.4C227.959 62.9209 226.138 63.7362 223.937 63.7362C221.464 63.7362 219.303 62.8258 217.455 61.0049C215.634 59.184 214.724 56.7652 214.724 53.7485C214.724 50.6503 215.566 48.1771 217.251 46.3291C218.936 44.4538 221.111 43.5162 223.774 43.5162C226.301 43.5162 228.231 44.4402 229.563 46.2883H229.644V44.0869H234.985V63.4101C234.985 66.1279 234.156 68.2477 232.498 69.7697C230.813 71.3459 228.299 72.1341 224.956 72.1341ZM224.875 59.2927C226.532 59.2927 227.769 58.7628 228.584 57.7028C229.4 56.6429 229.807 55.284 229.807 53.6262C229.807 51.9956 229.372 50.6503 228.503 49.5904C227.66 48.5033 226.437 47.9597 224.834 47.9597C223.421 47.9597 222.279 48.4761 221.409 49.5088C220.567 50.5416 220.146 51.9276 220.146 53.667C220.146 55.4335 220.567 56.8196 221.409 57.8251C222.279 58.8035 223.434 59.2927 224.875 59.2927Z"/>
</mask>
<path d="M28.2412 65.6115C24.1374 65.6115 20.7673 64.1983 18.1311 61.3718C15.5221 58.5182 14.2176 54.9036 14.2176 50.528C14.2176 46.1252 15.4949 42.4834 18.0496 39.6026C20.6043 36.7218 23.9879 35.2814 28.2004 35.2814C31.6791 35.2814 34.4648 36.2054 36.5575 38.0535C38.6773 39.8744 39.9003 42.2253 40.2264 45.1061H34.3561C34.0843 43.6113 33.4049 42.4291 32.3178 41.5594C31.2579 40.6897 29.8854 40.2549 28.2004 40.2549C25.6185 40.2549 23.6482 41.2061 22.2893 43.1085C20.9304 45.011 20.251 47.4841 20.251 50.528C20.251 53.5447 20.9712 56.0042 22.4116 57.9067C23.8792 59.8091 25.8224 60.7603 28.2412 60.7603C29.9533 60.7603 31.3802 60.2983 32.5216 59.3743C33.6631 58.423 34.3289 57.1729 34.5192 55.6238H40.308C40.1449 58.3687 39.0714 60.6652 37.0874 62.5133C34.8861 64.5787 31.9373 65.6115 28.2412 65.6115ZM54.5548 65.6115C51.1848 65.6115 48.535 64.5787 46.6054 62.5133C44.6758 60.4206 43.711 57.7572 43.711 54.5231C43.711 51.3977 44.6758 48.7886 46.6054 46.696C48.535 44.5761 51.0081 43.5162 54.0248 43.5162C57.3133 43.5162 59.8544 44.6576 61.6481 46.9406C63.4419 49.2235 64.3387 52.2809 64.3387 56.113H49.1737C49.3911 57.7708 49.9482 59.0617 50.8451 59.9858C51.7419 60.8826 52.9649 61.331 54.514 61.331C56.5524 61.331 57.8976 60.4749 58.5499 58.7628H64.0126C63.6049 60.7195 62.5722 62.3502 60.9143 63.6547C59.2565 64.9592 57.1367 65.6115 54.5548 65.6115ZM54.1064 47.7966C51.4158 47.7966 49.7987 49.2914 49.2552 52.2809H58.5499C58.4684 50.9492 58.0199 49.8757 57.2046 49.0604C56.3893 48.2179 55.3565 47.7966 54.1064 47.7966ZM68.6169 65V35.8521H74.1611V65H68.6169ZM89.2666 65.6115C85.8966 65.6115 83.2468 64.5787 81.3172 62.5133C79.3876 60.4206 78.4228 57.7572 78.4228 54.5231C78.4228 51.3977 79.3876 48.7886 81.3172 46.696C83.2468 44.5761 85.72 43.5162 88.7367 43.5162C92.0251 43.5162 94.5662 44.6576 96.36 46.9406C98.1537 49.2235 99.0505 52.2809 99.0505 56.113H83.8855C84.1029 57.7708 84.66 59.0617 85.5569 59.9858C86.4538 60.8826 87.6767 61.331 89.2259 61.331C91.2642 61.331 92.6095 60.4749 93.2617 58.7628H98.7244C98.3167 60.7195 97.284 62.3502 95.6262 63.6547C93.9683 64.9592 91.8485 65.6115 89.2666 65.6115ZM88.8182 47.7966C86.1276 47.7966 84.5106 49.2914 83.967 52.2809H93.2617C93.1802 50.9492 92.7318 49.8757 91.9164 49.0604C91.1011 48.2179 90.0684 47.7966 88.8182 47.7966ZM114.906 65.6115C112.08 65.6115 110.001 64.538 108.669 62.391H108.588V65H103.247V35.8521H108.791V46.6144H108.914C110.245 44.5489 112.189 43.5162 114.743 43.5162C117.38 43.5162 119.54 44.5489 121.225 46.6144C122.91 48.6527 123.753 51.3025 123.753 54.5638C123.753 57.9339 122.937 60.6244 121.307 62.6356C119.676 64.6195 117.543 65.6115 114.906 65.6115ZM113.683 60.9641C115.097 60.9641 116.184 60.407 116.945 59.2927C117.733 58.1784 118.127 56.6022 118.127 54.5638C118.127 52.5527 117.719 50.9628 116.904 49.7942C116.116 48.5984 114.974 48.0005 113.48 48.0005C110.273 48.0005 108.669 50.229 108.669 54.6861C108.669 56.6157 109.118 58.1513 110.014 59.2927C110.911 60.407 112.134 60.9641 113.683 60.9641ZM133.309 44.0869V47.4297H133.431C134.083 46.2068 134.803 45.3099 135.591 44.7392C136.38 44.1413 137.372 43.8423 138.567 43.8423C139.138 43.8423 139.573 43.8967 139.872 44.0054V48.8566H139.75C137.874 48.6663 136.366 49.074 135.225 50.0796C134.083 51.0851 133.512 52.6614 133.512 54.8084V65H127.968V44.0869H133.309ZM156.461 65C156.189 64.6467 155.972 63.8721 155.809 62.6763H155.727C155.129 63.5732 154.369 64.2662 153.444 64.7554C152.52 65.2446 151.23 65.4892 149.572 65.4892C147.37 65.4892 145.604 64.9321 144.272 63.8178C142.94 62.7035 142.275 61.1272 142.275 59.0889C142.275 56.969 143.008 55.4199 144.476 54.4415C145.943 53.436 148.009 52.7429 150.672 52.3625C152.629 52.0907 153.961 51.8189 154.667 51.5471C155.374 51.2482 155.727 50.7318 155.727 49.998C155.727 49.2371 155.428 48.6391 154.831 48.2043C154.233 47.7423 153.363 47.5113 152.221 47.5113C149.694 47.5113 148.349 48.4897 148.186 50.4464H143.253C143.334 48.4625 144.136 46.8183 145.658 45.5137C147.18 44.2092 149.381 43.557 152.262 43.557C158.133 43.557 161.068 46.1252 161.068 51.2618V61.9018C161.068 63.4781 161.312 64.4429 161.802 64.7962V65H156.461ZM150.917 61.6164C152.439 61.6164 153.635 61.2223 154.504 60.4342C155.401 59.646 155.85 58.7084 155.85 57.6213V54.4823C155.252 54.8356 153.961 55.2433 151.977 55.7053C150.401 56.0586 149.286 56.4663 148.634 56.9283C147.982 57.3631 147.656 58.0426 147.656 58.9666C147.656 60.7331 148.743 61.6164 150.917 61.6164ZM164.602 47.7559V44.0869H167.496V37.5643H172.918V44.0869H176.506V47.7559H172.918V58.8443C172.918 60.2303 173.611 60.9234 174.997 60.9234L176.628 60.8826V64.9592C175.786 65.0136 174.631 65.0408 173.163 65.0408C171.559 65.0408 170.214 64.6603 169.127 63.8993C168.04 63.1112 167.496 61.8202 167.496 60.0265V47.7559H164.602ZM180.991 65V44.0869H186.536V65H180.991ZM180.991 40.8256V35.8521H186.536V40.8256H180.991ZM197.161 44.0869V46.9406H197.283C198.723 44.6576 200.789 43.5162 203.479 43.5162C205.626 43.5162 207.366 44.25 208.697 45.7176C210.029 47.158 210.695 49.0332 210.695 51.3433V65H205.151V52.1586C205.151 51.0172 204.825 50.0931 204.172 49.3865C203.547 48.6799 202.664 48.3266 201.523 48.3266C200.3 48.3266 199.28 48.775 198.465 49.6719C197.677 50.5687 197.283 51.7238 197.283 53.137V65H191.739V44.0869H197.161ZM224.956 72.1341C222.13 72.1341 219.86 71.5634 218.148 70.4219C216.463 69.2805 215.471 67.677 215.172 65.6115H220.676C221.219 67.1606 222.619 67.9352 224.875 67.9352C227.973 67.9352 229.522 66.4812 229.522 63.5732V61.2903H229.4C227.959 62.9209 226.138 63.7362 223.937 63.7362C221.464 63.7362 219.303 62.8258 217.455 61.0049C215.634 59.184 214.724 56.7652 214.724 53.7485C214.724 50.6503 215.566 48.1771 217.251 46.3291C218.936 44.4538 221.111 43.5162 223.774 43.5162C226.301 43.5162 228.231 44.4402 229.563 46.2883H229.644V44.0869H234.985V63.4101C234.985 66.1279 234.156 68.2477 232.498 69.7697C230.813 71.3459 228.299 72.1341 224.956 72.1341ZM224.875 59.2927C226.532 59.2927 227.769 58.7628 228.584 57.7028C229.4 56.6429 229.807 55.284 229.807 53.6262C229.807 51.9956 229.372 50.6503 228.503 49.5904C227.66 48.5033 226.437 47.9597 224.834 47.9597C223.421 47.9597 222.279 48.4761 221.409 49.5088C220.567 50.5416 220.146 51.9276 220.146 53.667C220.146 55.4335 220.567 56.8196 221.409 57.8251C222.279 58.8035 223.434 59.2927 224.875 59.2927Z" fill="#024E80"/>
<path d="M18.1311 61.3718L12.9649 66.0952L12.9884 66.1208L13.0121 66.1463L18.1311 61.3718ZM18.0496 39.6026L23.2869 44.247V44.247L18.0496 39.6026ZM36.5575 38.0535L31.9239 43.3004L31.9599 43.3322L31.9963 43.3635L36.5575 38.0535ZM40.2264 45.1061V52.1061H48.0636L47.182 44.3186L40.2264 45.1061ZM34.3561 45.1061L27.469 46.3583L28.5141 52.1061H34.3561V45.1061ZM32.3178 41.5594L27.8776 46.9709L27.9111 46.9984L27.9449 47.0255L32.3178 41.5594ZM22.2893 43.1085L27.9854 47.1772L27.9854 47.1772L22.2893 43.1085ZM22.4116 57.9067L16.8308 62.1321L16.8498 62.1573L16.8691 62.1823L22.4116 57.9067ZM32.5216 59.3743L36.926 64.815L36.9647 64.7837L37.0029 64.7518L32.5216 59.3743ZM34.5192 55.6238V48.6238H28.3262L27.5714 54.7705L34.5192 55.6238ZM40.308 55.6238L47.2956 56.0389L47.7361 48.6238H40.308V55.6238ZM37.0874 62.5133L32.3162 57.3912L32.307 57.3998L32.2977 57.4085L37.0874 62.5133ZM28.2412 65.6115V58.6115C25.9439 58.6115 24.4733 57.9088 23.2501 56.5973L18.1311 61.3718L13.0121 66.1463C17.0613 70.4877 22.3308 72.6115 28.2412 72.6115V65.6115ZM18.1311 61.3718L23.2973 56.6484C22.0249 55.2567 21.2176 53.4027 21.2176 50.528H14.2176H7.21756C7.21756 56.4044 9.01931 61.7797 12.9649 66.0952L18.1311 61.3718ZM14.2176 50.528H21.2176C21.2176 47.5748 22.0304 45.664 23.2869 44.247L18.0496 39.6026L12.8123 34.9582C8.95942 39.3029 7.21756 44.6756 7.21756 50.528H14.2176ZM18.0496 39.6026L23.2869 44.247C24.379 43.0155 25.7789 42.2814 28.2004 42.2814V35.2814V28.2814C22.1969 28.2814 16.8295 30.4281 12.8123 34.9582L18.0496 39.6026ZM28.2004 35.2814V42.2814C30.4083 42.2814 31.4031 42.8405 31.9239 43.3004L36.5575 38.0535L41.1911 32.8066C37.5265 29.5704 32.9499 28.2814 28.2004 28.2814V35.2814ZM36.5575 38.0535L31.9963 43.3635C32.7214 43.9864 33.1353 44.6958 33.2709 45.8935L40.2264 45.1061L47.182 44.3186C46.6653 39.7547 44.6332 35.7625 41.1186 32.7435L36.5575 38.0535ZM40.2264 45.1061V38.1061H34.3561V45.1061V52.1061H40.2264V45.1061ZM34.3561 45.1061L41.2432 43.8539C40.699 40.8608 39.2212 38.1177 36.6906 36.0933L32.3178 41.5594L27.9449 47.0255C27.8189 46.9247 27.6797 46.771 27.5736 46.5863C27.4722 46.4099 27.4599 46.3082 27.469 46.3583L34.3561 45.1061ZM32.3178 41.5594L36.758 36.1479C34.1793 34.032 31.1219 33.2549 28.2004 33.2549V40.2549V47.2549C28.4447 47.2549 28.4818 47.2866 28.3792 47.2541C28.3273 47.2376 28.2494 47.2077 28.1558 47.1575C28.0615 47.1069 27.9667 47.044 27.8776 46.9709L32.3178 41.5594ZM28.2004 40.2549V33.2549C23.6323 33.2549 19.4178 35.0854 16.5931 39.0399L22.2893 43.1085L27.9854 47.1772C28.0183 47.1311 28.019 47.1403 27.9786 47.1749C27.9365 47.211 27.8827 47.2465 27.8295 47.2722C27.7781 47.2969 27.764 47.2949 27.8104 47.2852C27.8602 47.2748 27.984 47.2549 28.2004 47.2549V40.2549ZM22.2893 43.1085L16.5931 39.0399C14.1627 42.4425 13.251 46.4638 13.251 50.528H20.251H27.251C27.251 48.5044 27.6981 47.5794 27.9854 47.1772L22.2893 43.1085ZM20.251 50.528H13.251C13.251 54.6621 14.2503 58.724 16.8308 62.1321L22.4116 57.9067L27.9924 53.6812C27.692 53.2845 27.251 52.4273 27.251 50.528H20.251ZM22.4116 57.9067L16.8691 62.1823C19.6725 65.8163 23.6695 67.7603 28.2412 67.7603V60.7603V53.7603C28.0965 53.7603 28.0241 53.7463 28.0077 53.7427C27.9939 53.7397 28.0126 53.7428 28.0473 53.7598C28.0821 53.7768 28.099 53.7912 28.0932 53.7864C28.0855 53.7799 28.036 53.7373 27.9541 53.631L22.4116 57.9067ZM28.2412 60.7603V67.7603C31.2781 67.7603 34.3377 66.9102 36.926 64.815L32.5216 59.3743L28.1172 53.9335C28.1666 53.8936 28.2246 53.8544 28.2875 53.8205C28.3501 53.7867 28.4032 53.7658 28.439 53.7542C28.5129 53.7303 28.467 53.7603 28.2412 53.7603V60.7603ZM32.5216 59.3743L37.0029 64.7518C39.586 62.5992 41.0718 59.6948 41.467 56.477L34.5192 55.6238L27.5714 54.7705C27.5703 54.7792 27.5886 54.6395 27.6988 54.4326C27.812 54.22 27.9504 54.0716 28.0403 53.9967L32.5216 59.3743ZM34.5192 55.6238V62.6238H40.308V55.6238V48.6238H34.5192V55.6238ZM40.308 55.6238L33.3203 55.2087C33.2622 56.1865 32.9634 56.7883 32.3162 57.3912L37.0874 62.5133L41.8587 67.6353C45.1794 64.5421 47.0276 60.5509 47.2956 56.0389L40.308 55.6238ZM37.0874 62.5133L32.2977 57.4085C31.6713 57.9963 30.5785 58.6115 28.2412 58.6115V65.6115V72.6115C33.2961 72.6115 38.1008 71.1612 41.8771 67.6181L37.0874 62.5133ZM46.6054 62.5133L41.4592 67.2584L41.4747 67.2752L41.4902 67.2919L46.6054 62.5133ZM46.6054 46.696L51.7516 51.4411L51.7668 51.4246L51.782 51.408L46.6054 46.696ZM64.3387 56.113V63.113H71.3387V56.113H64.3387ZM49.1737 56.113V49.113H41.1957L42.2331 57.0232L49.1737 56.113ZM50.8451 59.9858L45.822 64.8611L45.8584 64.8986L45.8953 64.9355L50.8451 59.9858ZM58.5499 58.7628V51.7628H53.7258L52.0085 56.2708L58.5499 58.7628ZM64.0126 58.7628L70.8654 60.1904L72.6212 51.7628H64.0126V58.7628ZM60.9143 63.6547L56.5856 58.1536V58.1536L60.9143 63.6547ZM49.2552 52.2809L42.3681 51.0287L40.8677 59.2809H49.2552V52.2809ZM58.5499 52.2809V59.2809H65.9916L65.5368 51.8532L58.5499 52.2809ZM57.2046 49.0604L52.1744 53.9283L52.2143 53.9696L52.2549 54.0101L57.2046 49.0604ZM54.5548 65.6115V58.6115C52.7197 58.6115 52.0736 58.1126 51.7205 57.7346L46.6054 62.5133L41.4902 67.2919C44.9964 71.0449 49.6499 72.6115 54.5548 72.6115V65.6115ZM46.6054 62.5133L51.7516 57.7681C51.1777 57.1457 50.711 56.2562 50.711 54.5231H43.711H36.711C36.711 59.2582 38.1739 63.6955 41.4592 67.2584L46.6054 62.5133ZM43.711 54.5231H50.711C50.711 52.969 51.135 52.1098 51.7516 51.4411L46.6054 46.696L41.4592 41.9508C38.2166 45.4674 36.711 49.8263 36.711 54.5231H43.711ZM46.6054 46.696L51.782 51.408C52.3085 50.8295 52.8622 50.5162 54.0248 50.5162V43.5162V36.5162C49.1541 36.5162 44.7614 38.3227 41.4288 41.9839L46.6054 46.696ZM54.0248 43.5162V50.5162C55.4887 50.5162 55.865 50.9104 56.1439 51.2653L61.6481 46.9406L67.1524 42.6158C63.8438 38.4049 59.138 36.5162 54.0248 36.5162V43.5162ZM61.6481 46.9406L56.1439 51.2653C56.698 51.9705 57.3387 53.3465 57.3387 56.113H64.3387H71.3387C71.3387 51.2154 70.1857 46.4764 67.1524 42.6158L61.6481 46.9406ZM64.3387 56.113V49.113H49.1737V56.113V63.113H64.3387V56.113ZM49.1737 56.113L42.2331 57.0232C42.5879 59.7282 43.6007 62.5724 45.822 64.8611L50.8451 59.9858L55.8681 55.1104C55.961 55.2061 56.0338 55.3 56.088 55.3826C56.1416 55.4642 56.1701 55.5242 56.1816 55.5508C56.2026 55.5995 56.1542 55.5071 56.1142 55.2027L49.1737 56.113ZM50.8451 59.9858L45.8953 64.9355C48.3849 67.4251 51.5458 68.331 54.514 68.331V61.331V54.331C54.4099 54.331 54.5537 54.3158 54.8447 54.4226C55.1611 54.5386 55.5047 54.7459 55.7948 55.036L50.8451 59.9858ZM54.514 61.331V68.331C56.4979 68.331 58.7403 67.9116 60.8099 66.5946C62.9374 65.2407 64.3121 63.3001 65.0913 61.2547L58.5499 58.7628L52.0085 56.2708C52.1354 55.9376 52.5113 55.2811 53.2936 54.7833C54.0178 54.3225 54.5685 54.331 54.514 54.331V61.331ZM58.5499 58.7628V65.7628H64.0126V58.7628V51.7628H58.5499V58.7628ZM64.0126 58.7628L57.1597 57.3351C57.1076 57.5852 57.0267 57.8065 56.5856 58.1536L60.9143 63.6547L65.2431 69.1558C68.1176 66.8939 70.1022 63.8539 70.8654 60.1904L64.0126 58.7628ZM60.9143 63.6547L56.5856 58.1536C56.4186 58.2851 55.9279 58.6115 54.5548 58.6115V65.6115V72.6115C58.3454 72.6115 62.0945 71.6334 65.2431 69.1558L60.9143 63.6547ZM54.1064 47.7966V40.7966C51.4106 40.7966 48.4991 41.582 46.1241 43.7774C43.847 45.8823 42.8102 48.5973 42.3681 51.0287L49.2552 52.2809L56.1423 53.5331C56.2438 52.975 56.2873 53.4479 55.6272 54.058C55.2977 54.3626 54.9248 54.572 54.5845 54.6901C54.2656 54.8008 54.0776 54.7966 54.1064 54.7966V47.7966ZM49.2552 52.2809V59.2809H58.5499V52.2809V45.2809H49.2552V52.2809ZM58.5499 52.2809L65.5368 51.8532C65.3683 49.1008 64.3654 46.3217 62.1544 44.1106L57.2046 49.0604L52.2549 54.0101C52.0116 53.7669 51.8175 53.4723 51.6933 53.1751C51.5753 52.8925 51.5631 52.711 51.563 52.7087L58.5499 52.2809ZM57.2046 49.0604L62.2348 44.1924C60.0064 41.8898 57.1128 40.7966 54.1064 40.7966V47.7966V54.7966C53.9343 54.7966 53.5934 54.7649 53.1748 54.5941C52.7467 54.4195 52.4065 54.1682 52.1744 53.9283L57.2046 49.0604ZM68.6169 65H61.6169V72H68.6169V65ZM68.6169 35.8521V28.8521H61.6169V35.8521H68.6169ZM74.1611 35.8521H81.1611V28.8521H74.1611V35.8521ZM74.1611 65V72H81.1611V65H74.1611ZM68.6169 65H75.6169V35.8521H68.6169H61.6169V65H68.6169ZM68.6169 35.8521V42.8521H74.1611V35.8521V28.8521H68.6169V35.8521ZM74.1611 35.8521H67.1611V65H74.1611H81.1611V35.8521H74.1611ZM74.1611 65V58H68.6169V65V72H74.1611V65ZM81.3172 62.5133L76.171 67.2584L76.1865 67.2752L76.2021 67.2919L81.3172 62.5133ZM81.3172 46.696L86.4634 51.4411L86.4786 51.4246L86.4938 51.408L81.3172 46.696ZM99.0505 56.113V63.113H106.051V56.113H99.0505ZM83.8855 56.113V49.113H75.9075L76.9449 57.0232L83.8855 56.113ZM85.5569 59.9858L80.5338 64.8611L80.5702 64.8986L80.6072 64.9355L85.5569 59.9858ZM93.2617 58.7628V51.7628H88.4377L86.7203 56.2708L93.2617 58.7628ZM98.7244 58.7628L105.577 60.1904L107.333 51.7628H98.7244V58.7628ZM95.6262 63.6547L91.2974 58.1536V58.1536L95.6262 63.6547ZM83.967 52.2809L77.0799 51.0287L75.5795 59.2809H83.967V52.2809ZM93.2617 52.2809V59.2809H100.703L100.249 51.8532L93.2617 52.2809ZM91.9164 49.0604L86.8862 53.9283L86.9261 53.9696L86.9667 54.0101L91.9164 49.0604ZM89.2666 65.6115V58.6115C87.4315 58.6115 86.7854 58.1126 86.4324 57.7346L81.3172 62.5133L76.2021 67.2919C79.7082 71.0449 84.3617 72.6115 89.2666 72.6115V65.6115ZM81.3172 62.5133L86.4634 57.7681C85.8895 57.1457 85.4228 56.2562 85.4228 54.5231H78.4228H71.4228C71.4228 59.2582 72.8857 63.6955 76.171 67.2584L81.3172 62.5133ZM78.4228 54.5231H85.4228C85.4228 52.969 85.8468 52.1098 86.4634 51.4411L81.3172 46.696L76.171 41.9508C72.9284 45.4674 71.4228 49.8263 71.4228 54.5231H78.4228ZM81.3172 46.696L86.4938 51.408C87.0204 50.8295 87.5741 50.5162 88.7367 50.5162V43.5162V36.5162C83.8659 36.5162 79.4733 38.3227 76.1406 41.9839L81.3172 46.696ZM88.7367 43.5162V50.5162C90.2005 50.5162 90.5769 50.9104 90.8557 51.2653L96.36 46.9406L101.864 42.6158C98.5556 38.4049 93.8498 36.5162 88.7367 36.5162V43.5162ZM96.36 46.9406L90.8557 51.2653C91.4098 51.9705 92.0505 53.3465 92.0505 56.113H99.0505H106.051C106.051 51.2154 104.898 46.4764 101.864 42.6158L96.36 46.9406ZM99.0505 56.113V49.113H83.8855V56.113V63.113H99.0505V56.113ZM83.8855 56.113L76.9449 57.0232C77.2997 59.7282 78.3125 62.5724 80.5338 64.8611L85.5569 59.9858L90.58 55.1104C90.6728 55.2061 90.7456 55.3 90.7998 55.3826C90.8534 55.4642 90.882 55.5242 90.8934 55.5508C90.9144 55.5995 90.866 55.5071 90.826 55.2027L83.8855 56.113ZM85.5569 59.9858L80.6072 64.9355C83.0967 67.4251 86.2576 68.331 89.2259 68.331V61.331V54.331C89.1217 54.331 89.2655 54.3158 89.5566 54.4226C89.8729 54.5386 90.2165 54.7459 90.5066 55.036L85.5569 59.9858ZM89.2259 61.331V68.331C91.2097 68.331 93.4522 67.9116 95.5217 66.5946C97.6492 65.2407 99.0239 63.3001 99.8031 61.2547L93.2617 58.7628L86.7203 56.2708C86.8472 55.9376 87.2232 55.2811 88.0054 54.7833C88.7297 54.3225 89.2804 54.331 89.2259 54.331V61.331ZM93.2617 58.7628V65.7628H98.7244V58.7628V51.7628H93.2617V58.7628ZM98.7244 58.7628L91.8715 57.3351C91.8194 57.5852 91.7385 57.8065 91.2974 58.1536L95.6262 63.6547L99.9549 69.1558C102.829 66.8939 104.814 63.8539 105.577 60.1904L98.7244 58.7628ZM95.6262 63.6547L91.2974 58.1536C91.1304 58.2851 90.6397 58.6115 89.2666 58.6115V65.6115V72.6115C93.0572 72.6115 96.8063 71.6334 99.9549 69.1558L95.6262 63.6547ZM88.8182 47.7966V40.7966C86.1224 40.7966 83.211 41.582 80.8359 43.7774C78.5588 45.8823 77.522 48.5973 77.0799 51.0287L83.967 52.2809L90.8541 53.5331C90.9556 52.975 90.9991 53.4479 90.339 54.058C90.0095 54.3626 89.6366 54.572 89.2963 54.6901C88.9774 54.8008 88.7894 54.7966 88.8182 54.7966V47.7966ZM83.967 52.2809V59.2809H93.2617V52.2809V45.2809H83.967V52.2809ZM93.2617 52.2809L100.249 51.8532C100.08 49.1008 99.0772 46.3217 96.8662 44.1106L91.9164 49.0604L86.9667 54.0101C86.7234 53.7669 86.5293 53.4723 86.4051 53.1751C86.2871 52.8925 86.2749 52.711 86.2748 52.7087L93.2617 52.2809ZM91.9164 49.0604L96.9466 44.1924C94.7182 41.8898 91.8246 40.7966 88.8182 40.7966V47.7966V54.7966C88.6461 54.7966 88.3052 54.7649 87.8866 54.5941C87.4585 54.4195 87.1183 54.1682 86.8862 53.9283L91.9164 49.0604ZM108.669 62.391L114.618 58.7013L112.565 55.391H108.669V62.391ZM108.588 62.391V55.391H101.588V62.391H108.588ZM108.588 65V72H115.588V65H108.588ZM103.247 65H96.2472V72H103.247V65ZM103.247 35.8521V28.8521H96.2472V35.8521H103.247ZM108.791 35.8521H115.791V28.8521H108.791V35.8521ZM108.791 46.6144H101.791V53.6144H108.791V46.6144ZM108.914 46.6144V53.6144H112.729L114.797 50.4075L108.914 46.6144ZM121.225 46.6144L115.801 51.0393L115.815 51.0569L115.83 51.0745L121.225 46.6144ZM121.307 62.6356L126.714 67.0803L126.729 67.0623L126.744 67.0442L121.307 62.6356ZM116.945 59.2927L111.23 55.2505L111.197 55.2975L111.164 55.345L116.945 59.2927ZM116.904 49.7942L111.059 53.6464L111.11 53.7236L111.163 53.7995L116.904 49.7942ZM110.014 59.2927L104.51 63.6175L104.536 63.6498L104.561 63.6818L110.014 59.2927ZM114.906 65.6115V58.6115C114.641 58.6115 114.488 58.5862 114.423 58.572C114.363 58.5588 114.378 58.5553 114.439 58.5866C114.502 58.6192 114.565 58.6645 114.614 58.7103C114.66 58.7537 114.656 58.7634 114.618 58.7013L108.669 62.391L102.72 66.0806C105.499 70.5609 110 72.6115 114.906 72.6115V65.6115ZM108.669 62.391V55.391H108.588V62.391V69.391H108.669V62.391ZM108.588 62.391H101.588V65H108.588H115.588V62.391H108.588ZM108.588 65V58H103.247V65V72H108.588V65ZM103.247 65H110.247V35.8521H103.247H96.2472V65H103.247ZM103.247 35.8521V42.8521H108.791V35.8521V28.8521H103.247V35.8521ZM108.791 35.8521H101.791V46.6144H108.791H115.791V35.8521H108.791ZM108.791 46.6144V53.6144H108.914V46.6144V39.6144H108.791V46.6144ZM108.914 46.6144L114.797 50.4075C114.853 50.3212 114.871 50.3122 114.838 50.3439C114.822 50.3591 114.797 50.3803 114.764 50.4043C114.731 50.4284 114.694 50.4514 114.655 50.472C114.616 50.4925 114.582 50.5076 114.554 50.5179C114.526 50.5282 114.51 50.532 114.508 50.5323C114.505 50.533 114.576 50.5162 114.743 50.5162V43.5162V36.5162C109.923 36.5162 105.711 38.6633 103.031 42.8213L108.914 46.6144ZM114.743 43.5162V50.5162C115.123 50.5162 115.276 50.5844 115.322 50.6064C115.37 50.6294 115.537 50.7152 115.801 51.0393L121.225 46.6144L126.649 42.1895C123.652 38.5156 119.51 36.5162 114.743 36.5162V43.5162ZM121.225 46.6144L115.83 51.0745C116.253 51.5859 116.753 52.5387 116.753 54.5638H123.753H130.753C130.753 50.0663 129.568 45.7196 126.62 42.1544L121.225 46.6144ZM123.753 54.5638H116.753C116.753 56.8181 116.219 57.7962 115.869 58.2269L121.307 62.6356L126.744 67.0442C129.656 63.4526 130.753 59.0496 130.753 54.5638H123.753ZM121.307 62.6356L115.899 58.1908C115.688 58.4478 115.563 58.5056 115.532 58.5201C115.496 58.537 115.328 58.6115 114.906 58.6115V65.6115V72.6115C119.572 72.6115 123.714 70.731 126.714 67.0803L121.307 62.6356ZM113.683 60.9641V67.9641C117.279 67.9641 120.588 66.3698 122.725 63.2405L116.945 59.2927L111.164 55.345C111.372 55.0405 111.764 54.6251 112.366 54.3168C112.955 54.0149 113.454 53.9641 113.683 53.9641V60.9641ZM116.945 59.2927L122.66 63.335C124.604 60.5862 125.127 57.3743 125.127 54.5638H118.127H111.127C111.127 55.1487 111.069 55.4638 111.04 55.577C111.014 55.6805 111.038 55.5223 111.23 55.2505L116.945 59.2927ZM118.127 54.5638H125.127C125.127 51.6888 124.554 48.5254 122.645 45.7889L116.904 49.7942L111.163 53.7995C111.024 53.6007 111.014 53.497 111.041 53.6017C111.07 53.7181 111.127 54.0185 111.127 54.5638H118.127ZM116.904 49.7942L122.749 45.942C120.599 42.6803 117.204 41.0005 113.48 41.0005V48.0005V55.0005C113.277 55.0005 112.79 54.954 112.209 54.6497C111.616 54.339 111.244 53.9261 111.059 53.6464L116.904 49.7942ZM113.48 48.0005V41.0005C110.056 41.0005 106.54 42.3164 104.19 45.5836C102.145 48.4247 101.669 51.8283 101.669 54.6861H108.669H115.669C115.669 53.969 115.736 53.5642 115.777 53.3937C115.817 53.2269 115.799 53.4191 115.554 53.7602C115.278 54.1442 114.849 54.5237 114.317 54.7698C113.824 54.9985 113.485 55.0005 113.48 55.0005V48.0005ZM108.669 54.6861H101.669C101.669 57.6679 102.367 60.8903 104.51 63.6175L110.014 59.2927L115.519 54.968C115.592 55.062 115.645 55.1496 115.68 55.2196C115.715 55.2883 115.726 55.327 115.725 55.3227C115.72 55.3078 115.669 55.1188 115.669 54.6861H108.669ZM110.014 59.2927L104.561 63.6818C106.908 66.5977 110.216 67.9641 113.683 67.9641V60.9641V53.9641C113.758 53.9641 114.078 53.9809 114.506 54.1761C114.951 54.379 115.277 54.6667 115.467 54.9037L110.014 59.2927ZM133.309 44.0869H140.309V37.0869H133.309V44.0869ZM133.309 47.4297H126.309V54.4297H133.309V47.4297ZM133.431 47.4297V54.4297H137.631L139.607 50.7239L133.431 47.4297ZM135.591 44.7392L139.697 50.4088L139.76 50.3631L139.822 50.316L135.591 44.7392ZM139.872 44.0054H146.872V39.1024L142.264 37.4268L139.872 44.0054ZM139.872 48.8566V55.8566H146.872V48.8566H139.872ZM139.75 48.8566L139.043 55.8208L139.395 55.8566H139.75V48.8566ZM135.225 50.0796L139.852 55.3321V55.3321L135.225 50.0796ZM133.512 65V72H140.512V65H133.512ZM127.968 65H120.968V72H127.968V65ZM127.968 44.0869V37.0869H120.968V44.0869H127.968ZM133.309 44.0869H126.309V47.4297H133.309H140.309V44.0869H133.309ZM133.309 47.4297V54.4297H133.431V47.4297V40.4297H133.309V47.4297ZM133.431 47.4297L139.607 50.7239C139.769 50.4216 139.88 50.2708 139.918 50.2228C139.956 50.1759 139.891 50.2681 139.697 50.4088L135.591 44.7392L131.486 39.0696C129.55 40.4716 128.209 42.3451 127.254 44.1356L133.431 47.4297ZM135.591 44.7392L139.822 50.316C139.521 50.5444 139.21 50.6893 138.946 50.7688C138.695 50.8444 138.551 50.8423 138.567 50.8423V43.8423V36.8423C136.172 36.8423 133.604 37.4609 131.361 39.1623L135.591 44.7392ZM138.567 43.8423V50.8423C138.644 50.8423 138.595 50.8467 138.453 50.829C138.331 50.8137 137.968 50.7616 137.48 50.5839L139.872 44.0054L142.264 37.4268C140.816 36.9003 139.413 36.8423 138.567 36.8423V43.8423ZM139.872 44.0054H132.872V48.8566H139.872H146.872V44.0054H139.872ZM139.872 48.8566V41.8566H139.75V48.8566V55.8566H139.872V48.8566ZM139.75 48.8566L140.456 41.8923C137.139 41.5558 133.538 42.2366 130.597 44.827L135.225 50.0796L139.852 55.3321C139.735 55.4345 139.597 55.532 139.444 55.614C139.29 55.6956 139.15 55.7469 139.038 55.7772C138.817 55.837 138.785 55.7946 139.043 55.8208L139.75 48.8566ZM135.225 50.0796L130.597 44.827C127.407 47.6374 126.512 51.5051 126.512 54.8084H133.512H140.512C140.512 54.3304 140.579 54.2426 140.522 54.399C140.491 54.4855 140.427 54.6322 140.309 54.8095C140.19 54.9895 140.036 55.1697 139.852 55.3321L135.225 50.0796ZM133.512 54.8084H126.512V65H133.512H140.512V54.8084H133.512ZM133.512 65V58H127.968V65V72H133.512V65ZM127.968 65H134.968V44.0869H127.968H120.968V65H127.968ZM127.968 44.0869V51.0869H133.309V44.0869V37.0869H127.968V44.0869ZM156.461 65L150.913 69.268L153.014 72H156.461V65ZM155.809 62.6763L162.745 61.7305L161.919 55.6763H155.809V62.6763ZM155.727 62.6763V55.6763H151.981L149.903 58.7934L155.727 62.6763ZM144.272 63.8178L148.764 58.4492V58.4492L144.272 63.8178ZM144.476 54.4415L148.359 60.2659L148.396 60.2412L148.433 60.2161L144.476 54.4415ZM150.672 52.3625L149.709 45.429L149.696 45.4309L149.682 45.4328L150.672 52.3625ZM154.667 51.5471L157.18 58.0806L157.288 58.039L157.395 57.9939L154.667 51.5471ZM154.831 48.2043L150.55 53.7433L150.631 53.8056L150.713 53.8655L154.831 48.2043ZM148.186 50.4464V57.4464H154.627L155.161 51.0278L148.186 50.4464ZM143.253 50.4464L136.259 50.159L135.959 57.4464H143.253V50.4464ZM145.658 45.5137L141.103 40.1989L145.658 45.5137ZM161.802 64.7962H168.802V61.217L165.9 59.1214L161.802 64.7962ZM161.802 65V72H168.802V65H161.802ZM154.504 60.4342L149.884 55.176L149.843 55.2113L149.804 55.2473L154.504 60.4342ZM155.85 54.4823H162.85V42.2152L152.289 48.4558L155.85 54.4823ZM151.977 55.7053L153.508 62.5358L153.536 62.5295L153.565 62.5229L151.977 55.7053ZM148.634 56.9283L152.517 62.7526L152.599 62.6977L152.68 62.6405L148.634 56.9283ZM156.461 65L162.01 60.732C162.397 61.2354 162.601 61.6671 162.689 61.8706C162.786 62.0927 162.827 62.2385 162.834 62.2623C162.844 62.2976 162.802 62.1501 162.745 61.7305L155.809 62.6763L148.873 63.6221C148.979 64.3984 149.127 65.236 149.355 66.0459C149.542 66.7143 149.957 68.025 150.913 69.268L156.461 65ZM155.809 62.6763V55.6763H155.727V62.6763V69.6763H155.809V62.6763ZM155.727 62.6763L149.903 58.7934C149.903 58.7935 149.905 58.7906 149.909 58.7852C149.913 58.7797 149.919 58.7721 149.927 58.7627C149.944 58.7434 149.966 58.7195 149.995 58.6933C150.056 58.6375 150.12 58.5952 150.169 58.5689L153.444 64.7554L156.72 70.9419C158.704 69.8913 160.329 68.3927 161.552 66.5592L155.727 62.6763ZM153.444 64.7554L150.169 58.5689C150.461 58.4142 150.606 58.4043 150.48 58.4281C150.359 58.4511 150.071 58.4892 149.572 58.4892V65.4892V72.4892C151.77 72.4892 154.363 72.1894 156.72 70.9419L153.444 64.7554ZM149.572 65.4892V58.4892C149.055 58.4892 148.789 58.4232 148.701 58.3955C148.632 58.3738 148.682 58.3802 148.764 58.4492L144.272 63.8178L139.78 69.1863C142.678 71.6115 146.179 72.4892 149.572 72.4892V65.4892ZM144.272 63.8178L148.764 58.4492C148.838 58.5107 148.929 58.6017 149.019 58.7227C149.109 58.8441 149.176 58.9668 149.222 59.076C149.316 59.298 149.275 59.348 149.275 59.0889H142.275H135.275C135.275 62.7997 136.576 66.5051 139.78 69.1863L144.272 63.8178ZM142.275 59.0889H149.275C149.275 58.8258 149.32 58.9769 149.151 59.3338C149.067 59.5122 148.947 59.7016 148.791 59.8798C148.637 60.057 148.482 60.1835 148.359 60.2659L144.476 54.4415L140.593 48.6172C136.766 51.1684 135.275 55.1711 135.275 59.0889H142.275ZM144.476 54.4415L148.433 60.2161C148.675 60.0497 149.566 59.5916 151.662 59.2921L150.672 52.3625L149.682 45.4328C146.452 45.8943 143.212 46.8222 140.519 48.667L144.476 54.4415ZM150.672 52.3625L151.635 59.2959C153.539 59.0315 155.625 58.6788 157.18 58.0806L154.667 51.5471L152.155 45.0137C152.34 44.9424 152.273 44.9871 151.739 45.0962C151.267 45.1926 150.601 45.3052 149.709 45.429L150.672 52.3625ZM154.667 51.5471L157.395 57.9939C158.702 57.4409 160.151 56.4798 161.24 54.8884C162.343 53.2755 162.727 51.5258 162.727 49.998H155.727H148.727C148.727 49.2041 148.935 48.0794 149.685 46.9829C150.421 45.9079 151.339 45.3545 151.94 45.1004L154.667 51.5471ZM155.727 49.998H162.727C162.727 47.0751 161.419 44.3402 158.948 42.5432L154.831 48.2043L150.713 53.8655C150.203 53.4943 149.646 52.9163 149.242 52.1094C148.842 51.3096 148.727 50.553 148.727 49.998H155.727ZM154.831 48.2043L159.111 42.6653C156.801 40.8809 154.16 40.5113 152.221 40.5113V47.5113V54.5113C152.34 54.5113 152.217 54.5253 151.933 54.4499C151.635 54.3709 151.116 54.1803 150.55 53.7433L154.831 48.2043ZM152.221 47.5113V40.5113C150.202 40.5113 147.545 40.8782 145.2 42.5839C142.58 44.4894 141.427 47.2618 141.21 49.8651L148.186 50.4464L155.161 51.0278C155.14 51.2817 155.058 51.7742 154.756 52.3618C154.439 52.9774 153.976 53.512 153.434 53.9062C152.434 54.6336 151.713 54.5113 152.221 54.5113V47.5113ZM148.186 50.4464V43.4464H143.253V50.4464V57.4464H148.186V50.4464ZM143.253 50.4464L150.247 50.7339C150.25 50.6702 150.256 50.6554 150.25 50.6779C150.248 50.6884 150.243 50.705 150.236 50.7261C150.228 50.7473 150.219 50.77 150.207 50.7932C150.196 50.8164 150.184 50.837 150.173 50.8543C150.163 50.8716 150.154 50.883 150.15 50.8884C150.14 50.9003 150.155 50.8785 150.214 50.8285L145.658 45.5137L141.103 40.1989C138.121 42.7544 136.421 46.2125 136.259 50.159L143.253 50.4464ZM145.658 45.5137L150.214 50.8285C150.011 51.0018 150.335 50.557 152.262 50.557V43.557V36.557C148.428 36.557 144.349 37.4166 141.103 40.1989L145.658 45.5137ZM152.262 43.557V50.557C153.242 50.557 153.84 50.6667 154.155 50.7585C154.448 50.8439 154.413 50.8881 154.257 50.7512C154.08 50.5966 153.993 50.4263 153.976 50.3829C153.975 50.3812 154.068 50.6276 154.068 51.2618H161.068H168.068C168.068 47.3535 166.908 43.2181 163.476 40.2151C160.222 37.3684 156.064 36.557 152.262 36.557V43.557ZM161.068 51.2618H154.068V61.9018H161.068H168.068V51.2618H161.068ZM161.068 61.9018H154.068C154.068 62.975 154.143 64.2552 154.466 65.5278C154.749 66.6445 155.5 68.8796 157.703 70.4709L161.802 64.7962L165.9 59.1214C166.789 59.7634 167.311 60.4989 167.597 61.0117C167.877 61.5148 167.993 61.9158 168.037 62.0874C168.115 62.3952 168.068 62.4048 168.068 61.9018H161.068ZM161.802 64.7962H154.802V65H161.802H168.802V64.7962H161.802ZM161.802 65V58H156.461V65V72H161.802V65ZM150.917 61.6164V68.6164C153.646 68.6164 156.703 67.8888 159.205 65.6211L154.504 60.4342L149.804 55.2473C150.146 54.9373 150.501 54.7592 150.764 54.6725C151.003 54.5938 151.084 54.6164 150.917 54.6164V61.6164ZM154.504 60.4342L159.125 65.6923C161.367 63.7218 162.85 60.9337 162.85 57.6213H155.85H148.85C148.85 57.1689 148.951 56.6373 149.198 56.1197C149.438 55.6182 149.727 55.3137 149.884 55.176L154.504 60.4342ZM155.85 57.6213H162.85V54.4823H155.85H148.85V57.6213H155.85ZM155.85 54.4823L152.289 48.4558C152.546 48.3036 152.701 48.2463 152.655 48.2646C152.63 48.2748 152.528 48.3138 152.325 48.378C151.913 48.508 151.284 48.6794 150.389 48.8877L151.977 55.7053L153.565 62.5229C155.38 62.1 157.737 61.4977 159.411 60.5088L155.85 54.4823ZM151.977 55.7053L150.446 48.8748C148.7 49.2662 146.433 49.9093 144.588 51.2161L148.634 56.9283L152.68 62.6405C152.481 62.7817 152.341 62.853 152.302 62.8722C152.259 62.8931 152.274 62.8829 152.364 62.8499C152.555 62.7801 152.918 62.668 153.508 62.5358L151.977 55.7053ZM148.634 56.9283L144.751 51.1039C141.781 53.084 140.656 56.1855 140.656 58.9666H147.656H154.656C154.656 59.3208 154.592 59.9982 154.211 60.7931C153.808 61.6328 153.192 62.3023 152.517 62.7526L148.634 56.9283ZM147.656 58.9666H140.656C140.656 61.3576 141.462 64.2787 144.057 66.3867C146.373 68.2689 149.063 68.6164 150.917 68.6164V61.6164V54.6164C150.597 54.6164 151.656 54.5223 152.885 55.5212C153.543 56.0557 154.038 56.7423 154.336 57.469C154.616 58.1528 154.656 58.7033 154.656 58.9666H147.656ZM164.602 47.7559H157.602V54.7559H164.602V47.7559ZM164.602 44.0869V37.0869H157.602V44.0869H164.602ZM167.496 44.0869V51.0869H174.496V44.0869H167.496ZM167.496 37.5643V30.5643H160.496V37.5643H167.496ZM172.918 37.5643H179.918V30.5643H172.918V37.5643ZM172.918 44.0869H165.918V51.0869H172.918V44.0869ZM176.506 44.0869H183.506V37.0869H176.506V44.0869ZM176.506 47.7559V54.7559H183.506V47.7559H176.506ZM172.918 47.7559V40.7559H165.918V47.7559H172.918ZM174.997 60.9234V67.9234H175.085L175.172 67.9212L174.997 60.9234ZM176.628 60.8826H183.628V53.7054L176.453 53.8848L176.628 60.8826ZM176.628 64.9592L177.079 71.9447L183.628 71.5222V64.9592H176.628ZM169.127 63.8993L165.018 69.5666L165.065 69.6007L165.113 69.6339L169.127 63.8993ZM167.496 47.7559H174.496V40.7559H167.496V47.7559ZM164.602 47.7559H171.602V44.0869H164.602H157.602V47.7559H164.602ZM164.602 44.0869V51.0869H167.496V44.0869V37.0869H164.602V44.0869ZM167.496 44.0869H174.496V37.5643H167.496H160.496V44.0869H167.496ZM167.496 37.5643V44.5643H172.918V37.5643V30.5643H167.496V37.5643ZM172.918 37.5643H165.918V44.0869H172.918H179.918V37.5643H172.918ZM172.918 44.0869V51.0869H176.506V44.0869V37.0869H172.918V44.0869ZM176.506 44.0869H169.506V47.7559H176.506H183.506V44.0869H176.506ZM176.506 47.7559V40.7559H172.918V47.7559V54.7559H176.506V47.7559ZM172.918 47.7559H165.918V58.8443H172.918H179.918V47.7559H172.918ZM172.918 58.8443H165.918C165.918 60.6163 166.366 63.2311 168.488 65.3534C170.611 67.4756 173.225 67.9234 174.997 67.9234V60.9234V53.9234C175.383 53.9234 176.959 54.0246 178.388 55.4539C179.817 56.8831 179.918 58.4583 179.918 58.8443H172.918ZM174.997 60.9234L175.172 67.9212L176.803 67.8804L176.628 60.8826L176.453 53.8848L174.822 53.9256L174.997 60.9234ZM176.628 60.8826H169.628V64.9592H176.628H183.628V60.8826H176.628ZM176.628 64.9592L176.177 57.9738C175.555 58.0139 174.572 58.0408 173.163 58.0408V65.0408V72.0408C174.689 72.0408 176.016 72.0133 177.079 71.9447L176.628 64.9592ZM173.163 65.0408V58.0408C172.913 58.0408 172.826 58.0111 172.856 58.0196C172.872 58.024 172.91 58.0362 172.965 58.0618C173.019 58.0875 173.08 58.1218 173.141 58.1647L169.127 63.8993L165.113 69.6339C167.604 71.3775 170.428 72.0408 173.163 72.0408V65.0408ZM169.127 63.8993L173.236 58.232C173.774 58.6222 174.153 59.1431 174.356 59.6236C174.532 60.0426 174.496 60.2414 174.496 60.0265H167.496H160.496C160.496 63.2419 161.539 67.0441 165.018 69.5666L169.127 63.8993ZM167.496 60.0265H174.496V47.7559H167.496H160.496V60.0265H167.496ZM167.496 47.7559V40.7559H164.602V47.7559V54.7559H167.496V47.7559ZM180.991 65H173.991V72H180.991V65ZM180.991 44.0869V37.0869H173.991V44.0869H180.991ZM186.536 44.0869H193.536V37.0869H186.536V44.0869ZM186.536 65V72H193.536V65H186.536ZM180.991 40.8256H173.991V47.8256H180.991V40.8256ZM180.991 35.8521V28.8521H173.991V35.8521H180.991ZM186.536 35.8521H193.536V28.8521H186.536V35.8521ZM186.536 40.8256V47.8256H193.536V40.8256H186.536ZM180.991 65H187.991V44.0869H180.991H173.991V65H180.991ZM180.991 44.0869V51.0869H186.536V44.0869V37.0869H180.991V44.0869ZM186.536 44.0869H179.536V65H186.536H193.536V44.0869H186.536ZM186.536 65V58H180.991V65V72H186.536V65ZM180.991 40.8256H187.991V35.8521H180.991H173.991V40.8256H180.991ZM180.991 35.8521V42.8521H186.536V35.8521V28.8521H180.991V35.8521ZM186.536 35.8521H179.536V40.8256H186.536H193.536V35.8521H186.536ZM186.536 40.8256V33.8256H180.991V40.8256V47.8256H186.536V40.8256ZM197.161 44.0869H204.161V37.0869H197.161V44.0869ZM197.161 46.9406H190.161V53.9406H197.161V46.9406ZM197.283 46.9406V53.9406H201.143L203.203 50.6758L197.283 46.9406ZM208.697 45.7176L203.513 50.4215L203.535 50.4456L203.557 50.4696L208.697 45.7176ZM210.695 65V72H217.695V65H210.695ZM205.151 65H198.151V72H205.151V65ZM204.172 49.3865L198.929 54.0245L198.978 54.08L199.029 54.1345L204.172 49.3865ZM198.465 49.6719L193.285 44.9632L193.246 45.0068L193.207 45.0511L198.465 49.6719ZM197.283 65V72H204.283V65H197.283ZM191.739 65H184.739V72H191.739V65ZM191.739 44.0869V37.0869H184.739V44.0869H191.739ZM197.161 44.0869H190.161V46.9406H197.161H204.161V44.0869H197.161ZM197.161 46.9406V53.9406H197.283V46.9406V39.9406H197.161V46.9406ZM197.283 46.9406L203.203 50.6758C203.3 50.5217 203.362 50.4592 203.372 50.45C203.378 50.444 203.352 50.4691 203.298 50.499C203.244 50.5289 203.207 50.5381 203.212 50.5369C203.221 50.5347 203.303 50.5162 203.479 50.5162V43.5162V36.5162C198.376 36.5162 194.08 38.8982 191.363 43.2053L197.283 46.9406ZM203.479 43.5162V50.5162C203.617 50.5162 203.691 50.5279 203.714 50.5322C203.735 50.5362 203.717 50.5346 203.673 50.5161C203.652 50.5073 203.63 50.4964 203.606 50.4832C203.583 50.4701 203.562 50.4565 203.544 50.4438C203.506 50.4168 203.497 50.4034 203.513 50.4215L208.697 45.7176L213.881 41.0136C211.104 37.9525 207.416 36.5162 203.479 36.5162V43.5162ZM208.697 45.7176L203.557 50.4696C203.57 50.4832 203.579 50.4893 203.599 50.5465C203.626 50.6219 203.695 50.8603 203.695 51.3433H210.695H217.695C217.695 47.6045 216.573 43.9248 213.837 40.9656L208.697 45.7176ZM210.695 51.3433H203.695V65H210.695H217.695V51.3433H210.695ZM210.695 65V58H205.151V65V72H210.695V65ZM205.151 65H212.151V52.1586H205.151H198.151V65H205.151ZM205.151 52.1586H212.151C212.151 49.6066 211.379 46.8737 209.316 44.6386L204.172 49.3865L199.029 54.1345C198.697 53.7756 198.452 53.3564 198.305 52.9393C198.165 52.5409 198.151 52.2533 198.151 52.1586H205.151ZM204.172 49.3865L209.415 44.7485C207.185 42.2277 204.211 41.3266 201.523 41.3266V48.3266V55.3266C201.377 55.3266 200.974 55.304 200.441 55.0909C199.878 54.8654 199.347 54.4965 198.929 54.0245L204.172 49.3865ZM201.523 48.3266V41.3266C198.348 41.3266 195.441 42.5921 193.285 44.9632L198.465 49.6719L203.645 54.3806C203.452 54.5924 203.125 54.8658 202.66 55.0701C202.197 55.2738 201.785 55.3266 201.523 55.3266V48.3266ZM198.465 49.6719L193.207 45.0511C191.096 47.4529 190.283 50.3524 190.283 53.137H197.283H204.283C204.283 53.0802 204.29 53.2162 204.203 53.4711C204.111 53.7427 203.949 54.0361 203.723 54.2927L198.465 49.6719ZM197.283 53.137H190.283V65H197.283H204.283V53.137H197.283ZM197.283 65V58H191.739V65V72H197.283V65ZM191.739 65H198.739V44.0869H191.739H184.739V65H191.739ZM191.739 44.0869V51.0869H197.161V44.0869V37.0869H191.739V44.0869ZM218.148 70.4219L214.222 76.2173L214.244 76.2319L214.265 76.2463L218.148 70.4219ZM215.172 65.6115V58.6115H207.086L208.244 66.6142L215.172 65.6115ZM220.676 65.6115L227.281 63.2939L225.638 58.6115H220.676V65.6115ZM229.522 61.2903H236.522V54.2903H229.522V61.2903ZM229.4 61.2903V54.2903H226.243L224.153 56.656L229.4 61.2903ZM217.455 61.0049L212.505 65.9547L212.524 65.973L212.542 65.9912L217.455 61.0049ZM217.251 46.3291L222.424 51.0453L222.441 51.0266L222.458 51.0076L217.251 46.3291ZM229.563 46.2883L223.884 50.3806L225.979 53.2883H229.563V46.2883ZM229.644 46.2883V53.2883H236.644V46.2883H229.644ZM229.644 44.0869V37.0869H222.644V44.0869H229.644ZM234.985 44.0869H241.985V37.0869H234.985V44.0869ZM232.498 69.7696L227.764 64.6131L227.74 64.6353L227.716 64.6578L232.498 69.7696ZM228.503 49.5904L222.97 53.8784L223.03 53.9553L223.091 54.0306L228.503 49.5904ZM221.409 49.5088L216.055 44.9999L216.02 45.0416L215.985 45.0839L221.409 49.5088ZM221.409 57.8251L216.044 62.3207L216.11 62.3992L216.178 62.4757L221.409 57.8251ZM224.956 72.1341V65.1341C223.011 65.1341 222.238 64.7352 222.031 64.5976L218.148 70.4219L214.265 76.2463C217.483 78.3915 221.248 79.1341 224.956 79.1341V72.1341ZM218.148 70.4219L222.074 64.6265C222.047 64.6079 222.031 64.5952 222.024 64.5897C222.018 64.5843 222.019 64.5848 222.026 64.5919C222.033 64.599 222.043 64.6108 222.056 64.627C222.069 64.6433 222.082 64.6614 222.093 64.6805C222.105 64.6995 222.114 64.7166 222.121 64.7302C222.127 64.7438 222.13 64.7512 222.13 64.7506C222.129 64.75 222.126 64.7393 222.12 64.7169C222.115 64.6943 222.107 64.6589 222.1 64.6088L215.172 65.6115L208.244 66.6142C208.817 70.572 210.861 73.9401 214.222 76.2173L218.148 70.4219ZM215.172 65.6115V72.6115H220.676V65.6115V58.6115H215.172V65.6115ZM220.676 65.6115L214.07 67.9291C214.894 70.2774 216.498 72.2364 218.744 73.479C220.82 74.6278 223.02 74.9352 224.875 74.9352V67.9352V60.9352C224.473 60.9352 224.846 60.8552 225.522 61.2295C225.885 61.4301 226.272 61.7292 226.614 62.1376C226.953 62.5435 227.162 62.9553 227.281 63.2939L220.676 65.6115ZM224.875 67.9352V74.9352C227.396 74.9352 230.59 74.3521 233.151 71.9486C235.795 69.4669 236.522 66.2237 236.522 63.5732H229.522H222.522C222.522 63.8307 222.475 62.7685 223.57 61.7407C224.581 60.7912 225.451 60.9352 224.875 60.9352V67.9352ZM229.522 63.5732H236.522V61.2903H229.522H222.522V63.5732H229.522ZM229.522 61.2903V54.2903H229.4V61.2903V68.2903H229.522V61.2903ZM229.4 61.2903L224.153 56.656C224.087 56.7309 224.05 56.7586 224.048 56.7604C224.047 56.7611 224.064 56.7491 224.093 56.736C224.122 56.7229 224.137 56.7206 224.126 56.7229C224.113 56.7256 224.054 56.7362 223.937 56.7362V63.7362V70.7362C228.118 70.7362 231.859 69.0796 234.646 65.9245L229.4 61.2903ZM223.937 63.7362V56.7362C223.4 56.7362 222.978 56.6194 222.368 56.0186L217.455 61.0049L212.542 65.9912C215.629 69.0322 219.528 70.7362 223.937 70.7362V63.7362ZM217.455 61.0049L222.405 56.0552C222.121 55.7713 221.724 55.252 221.724 53.7485H214.724H207.724C207.724 58.2784 209.147 62.5967 212.505 65.9547L217.455 61.0049ZM214.724 53.7485H221.724C221.724 51.9598 222.178 51.3148 222.424 51.0453L217.251 46.3291L212.079 41.6128C208.954 45.0394 207.724 49.3408 207.724 53.7485H214.724ZM217.251 46.3291L222.458 51.0076C222.733 50.7017 222.97 50.5162 223.774 50.5162V43.5162V36.5162C219.251 36.5162 215.14 38.206 212.045 41.6505L217.251 46.3291ZM223.774 43.5162V50.5162C223.98 50.5162 224.095 50.5351 224.136 50.5437C224.175 50.5516 224.153 50.551 224.093 50.5226C224.065 50.5092 224.034 50.492 224.002 50.4712C223.97 50.4504 223.942 50.429 223.918 50.4091C223.869 50.3669 223.86 50.3477 223.884 50.3806L229.563 46.2883L235.242 42.196C232.436 38.3018 228.266 36.5162 223.774 36.5162V43.5162ZM229.563 46.2883V53.2883H229.644V46.2883V39.2883H229.563V46.2883ZM229.644 46.2883H236.644V44.0869H229.644H222.644V46.2883H229.644ZM229.644 44.0869V51.0869H234.985V44.0869V37.0869H229.644V44.0869ZM234.985 44.0869H227.985V63.4101H234.985H241.985V44.0869H234.985ZM234.985 63.4101H227.985C227.985 64.0621 227.885 64.3825 227.844 64.4891C227.813 64.5669 227.798 64.5823 227.764 64.6131L232.498 69.7696L237.232 74.9262C240.629 71.8072 241.985 67.6474 241.985 63.4101H234.985ZM232.498 69.7696L227.716 64.6578C227.808 64.5714 227.314 65.1341 224.956 65.1341V72.1341V79.1341C229.284 79.1341 233.818 78.1205 237.28 74.8815L232.498 69.7696ZM224.875 59.2927V66.2927C228.129 66.2927 231.676 65.1641 234.133 61.9708L228.584 57.7028L223.036 53.4349C223.363 53.01 223.813 52.6648 224.288 52.4612C224.718 52.2768 224.97 52.2927 224.875 52.2927V59.2927ZM228.584 57.7028L234.133 61.9708C236.096 59.4181 236.807 56.45 236.807 53.6262H229.807H222.807C222.807 53.8856 222.775 53.9495 222.797 53.8773C222.808 53.8403 222.831 53.7758 222.872 53.6933C222.915 53.6101 222.969 53.5217 223.036 53.4349L228.584 57.7028ZM229.807 53.6262H236.807C236.807 50.6961 235.997 47.6886 233.914 45.1501L228.503 49.5904L223.091 54.0306C223.028 53.953 222.969 53.8667 222.92 53.7761C222.871 53.686 222.84 53.6068 222.82 53.5472C222.782 53.427 222.807 53.432 222.807 53.6262H229.807ZM228.503 49.5904L234.036 45.3024C231.638 42.2081 228.197 40.9597 224.834 40.9597V47.9597V54.9597C224.847 54.9597 224.553 54.9608 224.111 54.7641C223.635 54.5527 223.237 54.2229 222.97 53.8784L228.503 49.5904ZM224.834 47.9597V40.9597C221.466 40.9597 218.324 42.305 216.055 44.9999L221.409 49.5088L226.764 54.0178C226.579 54.2376 226.257 54.5193 225.803 54.7247C225.358 54.9262 224.995 54.9597 224.834 54.9597V47.9597ZM221.409 49.5088L215.985 45.0839C213.848 47.7036 213.146 50.8125 213.146 53.667H220.146H227.146C227.146 53.3533 227.185 53.2748 227.159 53.3584C227.146 53.4029 227.116 53.4848 227.061 53.5912C227.005 53.6986 226.929 53.8162 226.834 53.9337L221.409 49.5088ZM220.146 53.667H213.146C213.146 56.5057 213.829 59.677 216.044 62.3207L221.409 57.8251L226.775 53.3296C226.891 53.468 226.98 53.6055 227.046 53.7293C227.11 53.8516 227.144 53.9456 227.159 53.9959C227.187 54.0889 227.146 54.006 227.146 53.667H220.146ZM221.409 57.8251L216.178 62.4757C218.518 65.1086 221.659 66.2927 224.875 66.2927V59.2927V52.2927C224.954 52.2927 225.253 52.3087 225.658 52.4801C226.079 52.6585 226.417 52.9219 226.641 53.1746L221.409 57.8251Z" fill="white" mask="url(#path-8-outside-3_308_5)"/>
<mask id="path-10-outside-4_308_5" maskUnits="userSpaceOnUse" x="246" y="16" width="134" height="167" fill="black">
<rect fill="white" x="246" y="16" width="134" height="167"/>
<path d="M257.924 172C258.062 160.962 260.269 151.648 264.547 144.059C268.962 136.471 275.102 129.365 282.967 122.742C287.106 119.154 293.936 113.911 303.456 107.012C312.977 100.113 319.669 94.9392 323.532 91.4898C329.741 85.9707 332.846 80.1066 332.846 73.8976C332.846 68.2405 331.259 63.7562 328.086 60.4447C324.912 57.1333 320.359 55.4775 314.426 55.4775C307.665 55.4775 302.56 57.6162 299.11 61.8935C294.971 66.5848 292.832 73.5526 292.694 82.7972H259.993C259.993 67.6196 263.236 55.6155 269.721 46.7849C278.689 33.815 293.867 27.33 315.254 27.33C331.673 27.33 344.505 31.6073 353.749 40.162C363.132 48.7166 367.823 59.5479 367.823 72.6558C367.823 81.6244 365.754 89.2132 361.614 95.4222C357.475 101.631 351.68 107.633 344.229 113.428C341.745 115.36 335.743 119.775 326.223 126.674C316.84 133.435 310.217 138.885 306.354 143.025V143.232H368.03V172H257.924Z"/>
</mask>
<path d="M257.924 172C258.062 160.962 260.269 151.648 264.547 144.059C268.962 136.471 275.102 129.365 282.967 122.742C287.106 119.154 293.936 113.911 303.456 107.012C312.977 100.113 319.669 94.9392 323.532 91.4898C329.741 85.9707 332.846 80.1066 332.846 73.8976C332.846 68.2405 331.259 63.7562 328.086 60.4447C324.912 57.1333 320.359 55.4775 314.426 55.4775C307.665 55.4775 302.56 57.6162 299.11 61.8935C294.971 66.5848 292.832 73.5526 292.694 82.7972H259.993C259.993 67.6196 263.236 55.6155 269.721 46.7849C278.689 33.815 293.867 27.33 315.254 27.33C331.673 27.33 344.505 31.6073 353.749 40.162C363.132 48.7166 367.823 59.5479 367.823 72.6558C367.823 81.6244 365.754 89.2132 361.614 95.4222C357.475 101.631 351.68 107.633 344.229 113.428C341.745 115.36 335.743 119.775 326.223 126.674C316.84 133.435 310.217 138.885 306.354 143.025V143.232H368.03V172H257.924Z" fill="#024E80"/>
<path d="M257.924 172L246.925 171.863L246.785 183H257.924V172ZM264.547 144.059L255.039 138.528L255.001 138.593L254.964 138.658L264.547 144.059ZM282.967 122.742L290.052 131.156L290.112 131.106L290.171 131.054L282.967 122.742ZM323.532 91.4898L316.224 83.2683L316.215 83.2764L316.206 83.2845L323.532 91.4898ZM328.086 60.4447L336.027 52.8338L336.027 52.8338L328.086 60.4447ZM299.11 61.8935L307.358 69.1713L307.52 68.9885L307.673 68.7988L299.11 61.8935ZM292.694 82.7972V93.7972H303.531L303.693 82.9613L292.694 82.7972ZM259.993 82.7972H248.993V93.7972H259.993V82.7972ZM269.721 46.7849L278.587 53.2959L278.679 53.1698L278.768 53.0412L269.721 46.7849ZM353.749 40.162L346.278 48.2355L346.308 48.2631L346.338 48.2905L353.749 40.162ZM361.614 95.4222L352.462 89.3205V89.3205L361.614 95.4222ZM344.229 113.428L337.476 104.745L337.476 104.745L344.229 113.428ZM326.223 126.674L332.654 135.599L332.666 135.59L332.677 135.581L326.223 126.674ZM306.354 143.025L298.312 135.519L295.354 138.689V143.025H306.354ZM306.354 143.232H295.354V154.232H306.354V143.232ZM368.03 143.232H379.03V132.232H368.03V143.232ZM368.03 172V183H379.03V172H368.03ZM257.924 172L268.923 172.137C269.044 162.462 270.969 155.068 274.129 149.461L264.547 144.059L254.964 138.658C249.57 148.229 247.08 159.462 246.925 171.863L257.924 172ZM264.547 144.059L274.054 149.591C277.736 143.264 282.993 137.101 290.052 131.156L282.967 122.742L275.881 114.328C267.211 121.629 260.188 129.677 255.039 138.528L264.547 144.059ZM282.967 122.742L290.171 131.054C293.925 127.801 300.426 122.793 309.911 115.92L303.456 107.012L297.002 98.1051C287.446 105.03 280.287 110.508 275.762 114.429L282.967 122.742ZM303.456 107.012L309.911 115.92C319.453 109.005 326.542 103.549 330.858 99.6951L323.532 91.4898L316.206 83.2845C312.796 86.3294 306.501 91.2217 297.002 98.1051L303.456 107.012ZM323.532 91.4898L330.84 99.7113C338.563 92.8466 343.846 84.2149 343.846 73.8976H332.846H321.846C321.846 75.9983 320.919 79.0948 316.224 83.2683L323.532 91.4898ZM332.846 73.8976H343.846C343.846 66.1019 341.598 58.6468 336.027 52.8338L328.086 60.4447L320.144 68.0557C320.92 68.8656 321.846 70.3791 321.846 73.8976H332.846ZM328.086 60.4447L336.027 52.8338C330.216 46.7696 322.432 44.4775 314.426 44.4775V55.4775V66.4775C318.285 66.4775 319.608 67.4969 320.144 68.0557L328.086 60.4447ZM314.426 55.4775V44.4775C305.182 44.4775 296.563 47.5294 290.548 54.9882L299.11 61.8935L307.673 68.7988C308.556 67.703 310.148 66.4775 314.426 66.4775V55.4775ZM299.11 61.8935L290.862 54.6157C284.322 62.0275 281.854 71.9836 281.695 82.633L292.694 82.7972L303.693 82.9613C303.81 75.1217 305.619 71.142 307.358 69.1713L299.11 61.8935ZM292.694 82.7972V71.7972H259.993V82.7972V93.7972H292.694V82.7972ZM259.993 82.7972H270.993C270.993 69.0799 273.932 59.6341 278.587 53.2959L269.721 46.7849L260.855 40.2739C252.539 51.5969 248.993 66.1593 248.993 82.7972H259.993ZM269.721 46.7849L278.768 53.0412C284.995 44.0371 296.071 38.33 315.254 38.33V27.33V16.33C291.663 16.33 272.384 23.5928 260.673 40.5286L269.721 46.7849ZM315.254 27.33V38.33C329.769 38.33 339.624 42.0775 346.278 48.2355L353.749 40.162L361.221 32.0884C349.386 21.1371 333.577 16.33 315.254 16.33V27.33ZM353.749 40.162L346.338 48.2905C353.352 54.6854 356.823 62.5278 356.823 72.6558H367.823H378.823C378.823 56.5679 372.912 42.7477 361.161 32.0334L353.749 40.162ZM367.823 72.6558H356.823C356.823 79.8973 355.171 85.256 352.462 89.3205L361.614 95.4222L370.767 101.524C376.336 93.1703 378.823 83.3514 378.823 72.6558H367.823ZM361.614 95.4222L352.462 89.3205C349.125 94.3249 344.229 99.493 337.476 104.745L344.229 113.428L350.982 122.111C359.131 115.773 365.824 108.938 370.767 101.524L361.614 95.4222ZM344.229 113.428L337.476 104.745C335.171 106.538 329.338 110.832 319.768 117.767L326.223 126.674L332.677 135.581C342.148 128.718 348.32 124.182 350.982 122.111L344.229 113.428ZM326.223 126.674L319.792 117.75C310.298 124.591 302.945 130.556 298.312 135.519L306.354 143.025L314.396 150.53C317.49 147.215 323.383 142.279 332.654 135.599L326.223 126.674ZM306.354 143.025H295.354V143.232H306.354H317.354V143.025H306.354ZM306.354 143.232V154.232H368.03V143.232V132.232H306.354V143.232ZM368.03 143.232H357.03V172H368.03H379.03V143.232H368.03ZM368.03 172V161H257.924V172V183H368.03V172Z" fill="white" mask="url(#path-10-outside-4_308_5)"/>
</g>
</svg>
