<svg width="298" height="288" viewBox="0 0 298 288" fill="none" xmlns="http://www.w3.org/2000/svg">
<mask id="mask0_323_31" style="mask-type:alpha" maskUnits="userSpaceOnUse" x="0" y="0" width="298" height="288">
<rect width="298" height="288" fill="#D9D9D9"/>
</mask>
<g mask="url(#mask0_323_31)">
<rect x="134" y="86" width="164" height="127" fill="#F26923"/>
<path d="M178.841 211.962C194.826 211.962 202.819 197.959 202.819 169.954C202.819 156.943 200.836 146.658 196.871 139.099C193.03 131.54 187.02 127.76 178.841 127.76C170.663 127.76 164.591 131.54 160.625 139.099C156.66 146.534 154.677 156.819 154.677 169.954C154.677 183.089 156.66 193.374 160.625 200.809C164.591 208.244 170.663 211.962 178.841 211.962ZM178.655 236.497C161.927 236.497 148.358 230.426 137.949 218.282C127.663 206.138 122.521 190.029 122.521 169.954C122.521 149.756 127.663 133.646 137.949 121.626C148.358 109.483 161.988 103.411 178.841 103.411C195.942 103.411 209.573 109.483 219.734 121.626C230.019 133.646 235.161 149.756 235.161 169.954C235.161 190.153 229.957 206.324 219.548 218.468C209.263 230.487 195.632 236.497 178.655 236.497Z" fill="#024E80"/>
<path d="M147.684 250V240.54L139.526 225.493H144.942L148.643 232.76L150.254 236.256H150.323C150.94 234.908 151.488 233.742 151.968 232.76L155.601 225.493H160.811L152.654 240.54V250H147.684ZM164.201 250V225.493H182.23V229.675H169.171V235.159H180.619V239.238H169.171V245.853H182.332V250H164.201ZM185.178 250L193.713 225.493H198.854L207.491 250H202.316L200.67 244.79H191.827L190.217 250H185.178ZM195.186 233.925L192.993 240.986H199.471L197.277 233.925L196.283 230.155H196.215C195.803 231.8 195.461 233.057 195.186 233.925ZM210.925 250V225.493H222.167C224.52 225.493 226.417 226.122 227.857 227.379C229.319 228.635 230.05 230.281 230.05 232.314C230.05 235.445 228.553 237.421 225.56 238.244V238.347C226.725 238.689 227.594 239.238 228.165 239.992C228.759 240.723 229.136 241.82 229.296 243.282C229.342 243.831 229.387 244.482 229.433 245.236C229.502 245.967 229.547 246.55 229.57 246.984C229.616 247.418 229.662 247.852 229.707 248.286C229.776 248.72 229.856 249.063 229.947 249.315C230.062 249.543 230.199 249.692 230.359 249.76V250H225.594C225.503 249.954 225.423 249.874 225.354 249.76C225.286 249.623 225.229 249.44 225.183 249.212C225.137 248.983 225.092 248.755 225.046 248.526C225.023 248.275 224.989 247.966 224.943 247.601C224.92 247.212 224.897 246.881 224.875 246.607C224.852 246.31 224.817 245.933 224.772 245.476C224.749 244.996 224.726 244.619 224.703 244.345C224.498 241.557 222.898 240.163 219.905 240.163H215.895V250H210.925ZM215.895 229.504V236.324H221.173C222.475 236.324 223.469 236.016 224.155 235.399C224.863 234.782 225.217 233.971 225.217 232.965C225.217 231.937 224.886 231.103 224.223 230.463C223.561 229.824 222.59 229.504 221.31 229.504H215.895ZM244.115 250.548C240.802 250.548 238.232 249.851 236.404 248.458C234.576 247.041 233.616 245.03 233.524 242.425H238.391C238.551 243.888 239.066 244.939 239.934 245.579C240.825 246.218 242.15 246.538 243.91 246.538C245.304 246.538 246.446 246.287 247.337 245.784C248.228 245.259 248.674 244.459 248.674 243.385C248.674 242.996 248.617 242.654 248.503 242.357C248.411 242.037 248.206 241.763 247.886 241.534C247.566 241.283 247.292 241.089 247.063 240.951C246.835 240.791 246.412 240.632 245.795 240.472C245.178 240.289 244.709 240.163 244.39 240.095C244.07 240.003 243.476 239.855 242.607 239.649C241.556 239.398 240.688 239.181 240.002 238.998C239.34 238.815 238.597 238.529 237.775 238.141C236.975 237.752 236.335 237.33 235.855 236.873C235.398 236.393 235.01 235.776 234.69 235.022C234.37 234.245 234.21 233.365 234.21 232.383C234.21 230.029 235.067 228.224 236.781 226.967C238.517 225.688 240.791 225.048 243.601 225.048C246.389 225.048 248.617 225.711 250.285 227.036C251.953 228.361 252.878 230.246 253.061 232.691H248.297C248.16 231.503 247.657 230.589 246.789 229.949C245.943 229.309 244.869 228.989 243.567 228.989C242.219 228.989 241.145 229.252 240.345 229.778C239.545 230.303 239.146 231 239.146 231.869C239.146 232.805 239.534 233.491 240.311 233.925C241.111 234.359 242.504 234.793 244.492 235.228C245.681 235.479 246.652 235.719 247.406 235.947C248.16 236.153 248.971 236.461 249.839 236.873C250.73 237.261 251.416 237.695 251.896 238.175C252.398 238.655 252.81 239.295 253.13 240.095C253.472 240.871 253.644 241.774 253.644 242.802C253.644 245.224 252.764 247.121 251.005 248.492C249.245 249.863 246.949 250.548 244.115 250.548Z" fill="white"/>
<mask id="path-5-outside-1_323_31" maskUnits="userSpaceOnUse" x="34" y="84" width="95" height="125" fill="black">
<rect fill="white" x="34" y="84" width="95" height="125"/>
<path d="M35.3589 207C35.4749 197.719 37.331 189.889 40.9272 183.509C44.6394 177.128 49.8018 171.154 56.4142 165.585C59.8944 162.569 65.6368 158.161 73.6413 152.361C81.6458 146.56 87.2721 142.21 90.5204 139.31C95.7407 134.669 98.3508 129.739 98.3508 124.519C98.3508 119.762 97.0168 115.992 94.3486 113.208C91.6804 110.424 87.8522 109.032 82.8639 109.032C77.1795 109.032 72.8872 110.83 69.9871 114.426C66.5068 118.37 64.7087 124.229 64.5927 132.001H37.099C37.099 119.24 39.8251 109.148 45.2775 101.723C52.818 90.8186 65.5788 85.3663 83.5599 85.3663C97.3648 85.3663 108.153 88.9625 115.926 96.155C123.814 103.347 127.759 112.454 127.759 123.475C127.759 131.015 126.019 137.396 122.538 142.616C119.058 147.836 114.186 152.883 107.921 157.755C105.833 159.379 100.787 163.091 92.7825 168.892C84.894 174.576 79.3256 179.158 76.0774 182.638V182.812H127.933V207H35.3589Z"/>
</mask>
<path d="M35.3589 207C35.4749 197.719 37.331 189.889 40.9272 183.509C44.6394 177.128 49.8018 171.154 56.4142 165.585C59.8944 162.569 65.6368 158.161 73.6413 152.361C81.6458 146.56 87.2721 142.21 90.5204 139.31C95.7407 134.669 98.3508 129.739 98.3508 124.519C98.3508 119.762 97.0168 115.992 94.3486 113.208C91.6804 110.424 87.8522 109.032 82.8639 109.032C77.1795 109.032 72.8872 110.83 69.9871 114.426C66.5068 118.37 64.7087 124.229 64.5927 132.001H37.099C37.099 119.24 39.8251 109.148 45.2775 101.723C52.818 90.8186 65.5788 85.3663 83.5599 85.3663C97.3648 85.3663 108.153 88.9625 115.926 96.155C123.814 103.347 127.759 112.454 127.759 123.475C127.759 131.015 126.019 137.396 122.538 142.616C119.058 147.836 114.186 152.883 107.921 157.755C105.833 159.379 100.787 163.091 92.7825 168.892C84.894 174.576 79.3256 179.158 76.0774 182.638V182.812H127.933V207H35.3589Z" fill="white"/>
<path d="M35.3589 207L34.3547 206.987L34.342 208.004H35.3589V207ZM40.9272 183.509L40.0591 183.003L40.0523 183.015L40.9272 183.509ZM56.4142 165.585L57.0611 166.354L57.0665 166.349L57.0719 166.344L56.4142 165.585ZM90.5204 139.31L89.8531 138.559L89.8515 138.561L90.5204 139.31ZM94.3486 113.208L95.0737 112.513V112.513L94.3486 113.208ZM69.987 114.426L70.7401 115.091L70.7548 115.074L70.7688 115.057L69.987 114.426ZM64.5927 132.001V133.006H65.5821L65.5969 132.016L64.5927 132.001ZM37.099 132.001H36.0947V133.006H37.099V132.001ZM45.2775 101.723L46.0869 102.318L46.0954 102.306L46.1035 102.295L45.2775 101.723ZM115.926 96.155L115.244 96.8921L115.249 96.8971L115.926 96.155ZM122.538 142.616L121.703 142.059V142.059L122.538 142.616ZM107.921 157.755L107.305 156.962V156.962L107.921 157.755ZM92.7825 168.892L93.3696 169.706L93.3718 169.705L92.7825 168.892ZM76.0774 182.638L75.3433 181.953L75.0732 182.243V182.638H76.0774ZM76.0774 182.812H75.0732V183.817H76.0774V182.812ZM127.933 182.812H128.937V181.808H127.933V182.812ZM127.933 207V208.004H128.937V207H127.933ZM35.3589 207L36.363 207.013C36.4775 197.856 38.3078 190.201 41.8021 184.002L40.9272 183.509L40.0523 183.015C36.3541 189.577 34.4722 197.582 34.3547 206.987L35.3589 207ZM40.9272 183.509L41.7952 184.014C45.4404 177.748 50.5222 171.86 57.0611 166.354L56.4142 165.585L55.7673 164.817C49.0814 170.447 43.8384 176.508 40.0592 183.003L40.9272 183.509ZM56.4142 165.585L57.0719 166.344C60.517 163.359 66.2293 158.972 74.2306 153.174L73.6413 152.361L73.052 151.547C65.0443 157.35 59.2718 161.78 55.7565 164.826L56.4142 165.585ZM73.6413 152.361L74.2306 153.174C82.237 147.372 87.8996 142.996 91.1892 140.059L90.5204 139.31L89.8515 138.561C86.6447 141.424 81.0546 145.748 73.052 151.547L73.6413 152.361ZM90.5204 139.31L91.1875 140.06C96.5461 135.297 99.3551 130.114 99.3551 124.519H98.3508H97.3466C97.3466 129.364 94.9353 134.042 89.8532 138.559L90.5204 139.31ZM98.3508 124.519H99.3551C99.3551 119.567 97.9607 115.526 95.0737 112.513L94.3486 113.208L93.6235 113.903C96.0728 116.459 97.3466 119.958 97.3466 124.519H98.3508ZM94.3486 113.208L95.0737 112.513C92.1647 109.478 88.0415 108.028 82.8639 108.028V109.032V110.036C87.6629 110.036 91.1962 111.37 93.6235 113.903L94.3486 113.208ZM82.8639 109.032V108.028C76.9528 108.028 72.3397 109.909 69.2053 113.796L69.987 114.426L70.7688 115.057C73.4347 111.751 77.4062 110.036 82.8639 110.036V109.032ZM69.987 114.426L69.234 113.762C65.5346 117.954 63.7065 124.086 63.5886 131.986L64.5927 132.001L65.5969 132.016C65.711 124.372 67.479 118.786 70.7401 115.091L69.987 114.426ZM64.5927 132.001V130.997H37.099V132.001V133.006H64.5927V132.001ZM37.099 132.001H38.1032C38.1032 119.374 40.8017 109.515 46.0869 102.318L45.2775 101.723L44.468 101.129C38.8486 108.781 36.0947 119.107 36.0947 132.001H37.099ZM45.2775 101.723L46.1035 102.295C53.3936 91.7519 65.78 86.3706 83.5599 86.3706V85.3663V84.362C65.3775 84.362 52.2423 89.8854 44.4515 101.152L45.2775 101.723ZM83.5599 85.3663V86.3706C97.1909 86.3706 107.708 89.9184 115.244 96.8921L115.926 96.155L116.608 95.4179C108.599 88.0066 97.5387 84.362 83.5599 84.362V85.3663ZM115.926 96.155L115.249 96.8971C122.922 103.892 126.754 112.726 126.754 123.475H127.759H128.763C128.763 112.182 124.707 102.802 116.603 95.4129L115.926 96.155ZM127.759 123.475H126.754C126.754 130.858 125.052 137.034 121.703 142.059L122.538 142.616L123.374 143.173C126.985 137.757 128.763 131.173 128.763 123.475H127.759ZM122.538 142.616L121.703 142.059C118.296 147.169 113.506 152.139 107.305 156.962L107.921 157.755L108.538 158.548C114.866 153.626 119.82 148.503 123.374 143.173L122.538 142.616ZM107.921 157.755L107.305 156.962C105.233 158.574 100.202 162.275 92.1932 168.078L92.7825 168.892L93.3718 169.705C101.372 163.908 106.434 160.184 108.538 158.548L107.921 157.755ZM92.7825 168.892L92.1954 168.077C84.2967 173.769 78.6617 178.398 75.3433 181.953L76.0774 182.638L76.8116 183.324C79.9896 179.919 85.4913 175.383 93.3696 169.706L92.7825 168.892ZM76.0774 182.638H75.0732V182.812H76.0774H77.0817V182.638H76.0774ZM76.0774 182.812V183.817H127.933V182.812V181.808H76.0774V182.812ZM127.933 182.812H126.928V207H127.933H128.937V182.812H127.933ZM127.933 207V205.996H35.3589V207V208.004H127.933V207Z" fill="white" mask="url(#path-5-outside-1_323_31)"/>
<path d="M40.9769 70.4209C37.7825 70.4209 35.2463 69.3201 33.3685 67.1185C31.4907 64.9169 30.5518 62.0247 30.5518 58.4417C30.5518 54.8804 31.5015 51.9773 33.4009 49.7325C35.3003 47.4878 37.858 46.3654 41.074 46.3654C43.4914 46.3654 45.4772 46.9914 47.0312 48.2432C48.6069 49.4951 49.5889 51.2111 49.9775 53.391H47.8406C47.5169 51.837 46.7614 50.5959 45.5743 49.6678C44.3872 48.7181 42.8763 48.2432 41.0416 48.2432C38.43 48.2432 36.4011 49.2037 34.9549 51.1247C33.5304 53.0241 32.8181 55.4631 32.8181 58.4417C32.8181 61.4203 33.5304 63.8485 34.9549 65.7264C36.4011 67.5826 38.4192 68.5107 41.0093 68.5107C43.1461 68.5107 44.8404 67.8632 46.0923 66.5681C47.3442 65.2731 48.0673 63.6111 48.2615 61.5822H50.366C50.2365 64.0212 49.4379 66.0393 47.9701 67.6365C46.3082 69.4928 43.9771 70.4209 40.9769 70.4209ZM61.2041 70.4209C58.7651 70.4209 56.8549 69.6115 55.4736 67.9927C54.0922 66.3523 53.4015 64.237 53.4015 61.647C53.4015 59.1 54.103 57.0064 55.5059 55.366C56.9089 53.704 58.7543 52.873 61.0423 52.873C62.3373 52.873 63.4597 53.1212 64.4094 53.6177C65.3807 54.1141 66.1361 54.8048 66.6757 55.6898C67.2153 56.5747 67.6038 57.546 67.8412 58.6036C68.1002 59.6396 68.2298 60.7728 68.2298 62.0031H55.4736C55.5167 63.9888 56.024 65.6076 56.9952 66.8595C57.9665 68.0898 59.3695 68.705 61.2041 68.705C63.7511 68.705 65.3807 67.4531 66.0929 64.9493H68.0355C67.6686 66.6329 66.8915 67.9711 65.7044 68.964C64.5389 69.9352 63.0388 70.4209 61.2041 70.4209ZM55.5059 60.4167H66.1253C66.0821 58.6684 65.6289 57.2546 64.7655 56.1754C63.9237 55.0746 62.6826 54.5242 61.0423 54.5242C59.4234 54.5242 58.1392 55.0638 57.1895 56.143C56.2614 57.2222 55.7002 58.6468 55.5059 60.4167ZM72.1088 70V46.8511H74.1161V70H72.1088ZM85.7999 70.4209C83.3609 70.4209 81.4507 69.6115 80.0693 67.9927C78.6879 66.3523 77.9972 64.237 77.9972 61.647C77.9972 59.1 78.6987 57.0064 80.1017 55.366C81.5046 53.704 83.3501 52.873 85.638 52.873C86.933 52.873 88.0554 53.1212 89.0051 53.6177C89.9764 54.1141 90.7318 54.8048 91.2714 55.6898C91.811 56.5747 92.1995 57.546 92.437 58.6036C92.696 59.6396 92.8255 60.7728 92.8255 62.0031H80.0693C80.1125 63.9888 80.6197 65.6076 81.591 66.8595C82.5623 68.0898 83.9652 68.705 85.7999 68.705C88.3468 68.705 89.9764 67.4531 90.6887 64.9493H92.6312C92.2643 66.6329 91.4873 67.9711 90.3002 68.964C89.1346 69.9352 87.6345 70.4209 85.7999 70.4209ZM80.1017 60.4167H90.721C90.6779 58.6684 90.2246 57.2546 89.3612 56.1754C88.5195 55.0746 87.2784 54.5242 85.638 54.5242C84.0192 54.5242 82.7349 55.0638 81.7852 56.143C80.8571 57.2222 80.2959 58.6468 80.1017 60.4167ZM104.216 70.4533C101.82 70.4533 99.9745 69.4604 98.6795 67.4747H98.6147V70H96.6074V46.8511H98.6147V56.143H98.6795C99.9745 53.9846 101.863 52.9054 104.345 52.9054C106.396 52.9054 108.058 53.6932 109.331 55.2689C110.605 56.8229 111.241 58.9597 111.241 61.6793C111.241 64.291 110.605 66.4063 109.331 68.0251C108.079 69.6439 106.374 70.4533 104.216 70.4533ZM104.119 68.7697C105.759 68.7697 107.011 68.1114 107.874 66.7948C108.759 65.4781 109.202 63.7838 109.202 61.7117C109.202 59.5749 108.748 57.859 107.842 56.5639C106.957 55.2473 105.705 54.589 104.086 54.589C102.295 54.589 100.903 55.2581 99.9098 56.5963C98.9385 57.9345 98.4529 59.6396 98.4529 61.7117C98.4529 63.8485 98.9385 65.5645 99.9098 66.8595C100.903 68.133 102.306 68.7697 104.119 68.7697ZM115.071 70V53.2615H117.078V56.3697H117.143C118.287 54.2112 119.992 53.132 122.258 53.132C122.452 53.132 122.636 53.1536 122.809 53.1968V55.1717C121.492 54.9559 120.305 55.2257 119.247 55.9811C117.801 57.0603 117.078 58.5604 117.078 60.4814V70H115.071ZM130.036 70.3885C128.417 70.3885 127.1 69.9892 126.086 69.1906C125.071 68.392 124.564 67.2372 124.564 65.7264C124.564 64.7767 124.726 63.978 125.05 63.3305C125.395 62.6614 125.913 62.1434 126.604 61.7765C127.316 61.4095 128.028 61.1397 128.741 60.9671C129.475 60.7728 130.381 60.6109 131.46 60.4814C133.273 60.2656 134.471 60.0389 135.054 59.8015C135.658 59.5425 135.961 59.0137 135.961 58.2151V57.8913C135.961 55.6466 134.622 54.5242 131.946 54.5242C128.967 54.5242 127.403 55.7653 127.251 58.2475H125.276C125.384 56.5855 126 55.2797 127.122 54.33C128.244 53.3803 129.852 52.9054 131.946 52.9054C135.896 52.9054 137.871 54.6321 137.871 58.0856V67.1833C137.871 68.1114 138.238 68.597 138.972 68.6402C139.079 68.6402 139.328 68.597 139.716 68.5107H139.813V69.9676C139.425 70.1403 138.972 70.2266 138.454 70.2266C136.9 70.2266 136.079 69.4388 135.993 67.8632V67.507H135.896C134.536 69.428 132.583 70.3885 130.036 70.3885ZM130.392 68.7697C132.119 68.7697 133.478 68.2841 134.471 67.3128C135.486 66.3199 135.993 65.1975 135.993 63.9457V60.9347C135.173 61.388 133.727 61.7549 131.655 62.0355C130.964 62.1218 130.413 62.2081 130.003 62.2945C129.615 62.3808 129.172 62.5103 128.676 62.683C128.201 62.8557 127.834 63.0607 127.575 63.2981C127.338 63.5356 127.122 63.8593 126.928 64.2694C126.755 64.6795 126.669 65.1652 126.669 65.7264C126.669 67.7553 127.91 68.7697 130.392 68.7697ZM147.078 70.1295C144.941 70.1295 143.873 69.1258 143.873 67.1185V54.9127H141.347V53.2615H143.873V48.1137H145.88V53.2615H148.988V54.9127H145.88V66.7948C145.88 67.3775 146.009 67.7876 146.268 68.0251C146.527 68.2625 146.937 68.3812 147.499 68.3812C147.995 68.3812 148.438 68.2949 148.826 68.1222H148.923V69.8381C148.384 70.0324 147.768 70.1295 147.078 70.1295ZM152.978 70V53.2615H154.985V70H152.978ZM152.978 49.7002V46.8511H154.985V49.7002H152.978ZM159.678 70V53.2615H161.685V55.8193H161.75C163.066 53.8767 164.933 52.9054 167.351 52.9054C168.948 52.9054 170.232 53.3695 171.204 54.2976C172.196 55.2041 172.693 56.4776 172.693 58.118V70H170.686V58.3122C170.686 55.8516 169.412 54.6213 166.865 54.6213C165.419 54.6213 164.189 55.0746 163.174 55.9811C162.181 56.8877 161.685 58.0208 161.685 59.3806V70H159.678ZM183.764 75.8601C181.778 75.8601 180.203 75.45 179.037 74.6298C177.871 73.8312 177.213 72.7843 177.062 71.4893H179.005C179.328 73.3024 180.893 74.2089 183.699 74.2089C185.447 74.2089 186.753 73.788 187.617 72.9462C188.502 72.1044 188.944 70.9281 188.944 69.4172V66.7624H188.847C187.574 68.705 185.804 69.6762 183.537 69.6762C181.357 69.6762 179.609 68.91 178.292 67.3775C176.997 65.8235 176.35 63.8054 176.35 61.3232C176.35 58.7115 177.04 56.661 178.422 55.1717C179.803 53.6609 181.508 52.9054 183.537 52.9054C185.89 52.9054 187.66 53.8875 188.847 55.8516H188.944V53.2615H190.919V69.3525C190.919 71.2087 190.401 72.7088 189.365 73.8528C188.092 75.191 186.225 75.8601 183.764 75.8601ZM183.634 67.9927C185.447 67.9927 186.807 67.3991 187.714 66.212C188.62 65.0033 189.074 63.3629 189.074 61.2908C189.074 59.2403 188.61 57.6107 187.681 56.402C186.775 55.1933 185.437 54.589 183.667 54.589C182.026 54.589 180.742 55.2041 179.814 56.4344C178.886 57.6431 178.422 59.2835 178.422 61.3556C178.422 63.3413 178.864 64.9493 179.749 66.1796C180.634 67.3883 181.929 67.9927 183.634 67.9927Z" fill="white"/>
</g>
</svg>
