<svg width="516" height="194" viewBox="0 0 516 194" fill="none" xmlns="http://www.w3.org/2000/svg">
<mask id="mask0_254_148" style="mask-type:alpha" maskUnits="userSpaceOnUse" x="0" y="0" width="516" height="194">
<rect x="0.5" y="0.5" width="515" height="193" fill="white" stroke="black"/>
</mask>
<g mask="url(#mask0_254_148)">
<rect x="359.444" y="-6.32408" width="162.281" height="162.281" fill="#F26923" stroke="white" stroke-width="11.7595"/>
<mask id="path-3-outside-1_254_148" maskUnits="userSpaceOnUse" x="339.236" y="23.8955" width="138" height="161" fill="black">
<rect fill="white" x="339.236" y="23.8955" width="138" height="161"/>
<path d="M408.125 154.25C427.137 154.25 436.644 137.596 436.644 104.287C436.644 88.8112 434.286 76.5782 429.569 67.5876C425 58.5971 417.852 54.1018 408.125 54.1018C398.397 54.1018 391.175 58.5971 386.459 67.5876C381.743 76.4308 379.384 88.6638 379.384 104.287C379.384 119.91 381.743 132.143 386.459 140.986C391.175 149.829 398.397 154.25 408.125 154.25ZM407.903 183.433C388.006 183.433 371.868 176.211 359.487 161.767C347.254 147.323 341.138 128.163 341.138 104.287C341.138 80.2628 347.254 61.1027 359.487 46.8062C371.868 32.3625 388.08 25.1406 408.125 25.1406C428.464 25.1406 444.676 32.3625 456.762 46.8062C468.995 61.1027 475.111 80.2628 475.111 104.287C475.111 128.311 468.921 147.544 456.541 161.988C444.308 176.285 428.095 183.433 407.903 183.433Z"/>
</mask>
<path d="M408.125 154.25C427.137 154.25 436.644 137.596 436.644 104.287C436.644 88.8112 434.286 76.5782 429.569 67.5876C425 58.5971 417.852 54.1018 408.125 54.1018C398.397 54.1018 391.175 58.5971 386.459 67.5876C381.743 76.4308 379.384 88.6638 379.384 104.287C379.384 119.91 381.743 132.143 386.459 140.986C391.175 149.829 398.397 154.25 408.125 154.25ZM407.903 183.433C388.006 183.433 371.868 176.211 359.487 161.767C347.254 147.323 341.138 128.163 341.138 104.287C341.138 80.2628 347.254 61.1027 359.487 46.8062C371.868 32.3625 388.08 25.1406 408.125 25.1406C428.464 25.1406 444.676 32.3625 456.762 46.8062C468.995 61.1027 475.111 80.2628 475.111 104.287C475.111 128.311 468.921 147.544 456.541 161.988C444.308 176.285 428.095 183.433 407.903 183.433Z" fill="white"/>
<path d="M429.569 67.5876L428.504 68.1288L428.508 68.1357L428.511 68.1425L429.569 67.5876ZM386.459 67.5876L387.513 68.1497L387.517 68.1425L386.459 67.5876ZM386.459 140.986L387.513 140.424V140.424L386.459 140.986ZM359.487 161.767L358.576 162.539L358.58 162.544L359.487 161.767ZM359.487 46.8062L358.58 46.0289L358.58 46.0297L359.487 46.8062ZM456.762 46.8062L455.846 47.5728L455.854 47.5828L456.762 46.8062ZM456.541 161.988L455.634 161.211L455.633 161.212L456.541 161.988ZM408.125 154.25V155.445C418.064 155.445 425.588 151.047 430.551 142.352C435.458 133.756 437.838 121.016 437.838 104.287H436.644H435.449C435.449 120.867 433.076 133.109 428.477 141.167C423.934 149.126 417.198 153.056 408.125 153.056V154.25ZM436.644 104.287H437.838C437.838 88.7104 435.468 76.261 430.627 67.0327L429.569 67.5876L428.511 68.1425C433.103 76.8953 435.449 88.9119 435.449 104.287H436.644ZM429.569 67.5876L430.634 67.0465C428.271 62.3963 425.207 58.8453 421.417 56.4622C417.625 54.0774 413.178 52.9074 408.125 52.9074V54.1018V55.2963C412.798 55.2963 416.789 56.3739 420.145 58.4844C423.504 60.5965 426.299 63.7885 428.504 68.1288L429.569 67.5876ZM408.125 54.1018V52.9074C403.07 52.9074 398.608 54.0775 394.781 56.4592C390.958 58.8392 387.839 62.3858 385.401 67.0327L386.459 67.5876L387.517 68.1425C389.795 63.799 392.645 60.6026 396.044 58.4874C399.439 56.3738 403.451 55.2963 408.125 55.2963V54.1018ZM386.459 67.5876L385.405 67.0255C380.559 76.112 378.19 88.567 378.19 104.287H379.384H380.579C380.579 88.7606 382.926 76.7495 387.513 68.1497L386.459 67.5876ZM379.384 104.287H378.19C378.19 120.006 380.559 132.461 385.405 141.548L386.459 140.986L387.513 140.424C382.926 131.824 380.579 119.813 380.579 104.287H379.384ZM386.459 140.986L385.405 141.548C387.845 146.122 390.966 149.612 394.789 151.953C398.614 154.295 403.074 155.445 408.125 155.445V154.25V153.056C403.448 153.056 399.433 151.995 396.036 149.916C392.638 147.835 389.789 144.692 387.513 140.424L386.459 140.986ZM407.903 183.433V182.238C388.337 182.238 372.536 175.155 360.394 160.99L359.487 161.767L358.58 162.544C371.199 177.267 387.676 184.627 407.903 184.627V183.433ZM359.487 161.767L360.399 160.995C348.392 146.819 342.332 127.956 342.332 104.287H341.138H339.943C339.943 128.37 346.116 147.828 358.576 162.539L359.487 161.767ZM341.138 104.287H342.332C342.332 80.4668 348.393 61.6085 360.395 47.5828L359.487 46.8062L358.58 46.0297C346.115 60.5968 339.943 80.0588 339.943 104.287H341.138ZM359.487 46.8062L360.394 47.5836C372.534 33.4203 388.407 26.335 408.125 26.335V25.1405V23.9461C387.753 23.9461 371.201 31.3046 358.58 46.0289L359.487 46.8062ZM408.125 25.1405V26.335C428.142 26.335 444.007 33.4239 455.846 47.5728L456.762 46.8062L457.678 46.0397C445.345 31.301 428.785 23.9461 408.125 23.9461V25.1405ZM456.762 46.8062L455.854 47.5828C467.856 61.6085 473.917 80.4668 473.917 104.287H475.111H476.306C476.306 80.0588 470.134 60.5968 457.669 46.0297L456.762 46.8062ZM475.111 104.287H473.917C473.917 128.103 467.784 147.036 455.634 161.211L456.541 161.988L457.448 162.765C470.058 148.053 476.306 128.519 476.306 104.287H475.111ZM456.541 161.988L455.633 161.212C443.645 175.222 427.775 182.238 407.903 182.238V183.433V184.627C428.415 184.627 444.97 177.348 457.448 162.765L456.541 161.988Z" fill="white" mask="url(#path-3-outside-1_254_148)"/>
<path d="M417.988 193.517V182.265L408.286 164.369H414.727L419.13 173.011L421.046 177.169H421.127C421.861 175.566 422.513 174.18 423.084 173.011L427.405 164.369H433.602L423.899 182.265V193.517H417.988ZM442.71 194.128C439.34 194.128 436.691 193.095 434.761 191.03C432.831 188.937 431.867 186.274 431.867 183.04C431.867 179.914 432.831 177.305 434.761 175.213C436.691 173.093 439.164 172.033 442.18 172.033C445.469 172.033 448.01 173.174 449.804 175.457C451.597 177.74 452.494 180.798 452.494 184.63H437.329C437.547 186.287 438.104 187.578 439.001 188.502C439.898 189.399 441.121 189.848 442.67 189.848C444.708 189.848 446.053 188.992 446.706 187.279H452.168C451.761 189.236 450.728 190.867 449.07 192.171C447.412 193.476 445.292 194.128 442.71 194.128ZM442.262 176.313C439.571 176.313 437.954 177.808 437.411 180.798H446.706C446.624 179.466 446.176 178.392 445.36 177.577C444.545 176.734 443.512 176.313 442.262 176.313ZM469.859 193.517C469.587 193.163 469.369 192.389 469.206 191.193H469.125C468.527 192.09 467.766 192.783 466.842 193.272C465.918 193.761 464.627 194.006 462.969 194.006C460.768 194.006 459.001 193.449 457.669 192.334C456.338 191.22 455.672 189.644 455.672 187.605C455.672 185.486 456.406 183.937 457.873 182.958C459.341 181.953 461.406 181.26 464.07 180.879C466.026 180.607 467.358 180.336 468.065 180.064C468.771 179.765 469.125 179.248 469.125 178.515C469.125 177.754 468.826 177.156 468.228 176.721C467.63 176.259 466.76 176.028 465.619 176.028C463.091 176.028 461.746 177.006 461.583 178.963H456.65C456.732 176.979 457.534 175.335 459.055 174.03C460.577 172.726 462.779 172.074 465.66 172.074C471.53 172.074 474.465 174.642 474.465 179.778V190.418C474.465 191.995 474.71 192.959 475.199 193.313V193.517H469.859ZM464.314 190.133C465.836 190.133 467.032 189.739 467.902 188.951C468.799 188.163 469.247 187.225 469.247 186.138V182.999C468.649 183.352 467.358 183.76 465.374 184.222C463.798 184.575 462.684 184.983 462.031 185.445C461.379 185.88 461.053 186.559 461.053 187.483C461.053 189.25 462.14 190.133 464.314 190.133ZM484.961 172.604V175.946H485.083C485.735 174.723 486.456 173.827 487.244 173.256C488.032 172.658 489.024 172.359 490.22 172.359C490.79 172.359 491.225 172.413 491.524 172.522V177.373H491.402C489.527 177.183 488.018 177.591 486.877 178.596C485.735 179.602 485.165 181.178 485.165 183.325V193.517H479.62V172.604H484.961ZM504.023 194.128C501.033 194.128 498.696 193.476 497.011 192.171C495.326 190.84 494.402 189.032 494.239 186.749H499.375C499.728 189.059 501.25 190.215 503.941 190.215C505.164 190.215 506.102 189.997 506.754 189.562C507.433 189.127 507.773 188.543 507.773 187.809C507.773 187.538 507.719 187.293 507.61 187.076C507.528 186.858 507.365 186.668 507.121 186.505C506.903 186.315 506.7 186.165 506.509 186.056C506.346 185.948 506.047 185.839 505.612 185.73C505.178 185.622 504.838 185.54 504.593 185.486C504.376 185.431 503.982 185.363 503.411 185.282C502.867 185.173 502.487 185.092 502.27 185.037C501.128 184.82 500.191 184.602 499.457 184.385C498.75 184.14 498.003 183.801 497.215 183.366C496.426 182.904 495.829 182.292 495.421 181.531C495.04 180.743 494.85 179.806 494.85 178.718C494.85 176.544 495.638 174.886 497.215 173.745C498.818 172.604 500.87 172.033 503.37 172.033C506.061 172.033 508.167 172.658 509.689 173.908C511.238 175.131 512.121 176.816 512.339 178.963H507.325C507.107 176.925 505.762 175.906 503.289 175.906C502.174 175.906 501.291 176.109 500.639 176.517C500.014 176.925 499.701 177.495 499.701 178.229C499.701 178.474 499.742 178.705 499.824 178.922C499.932 179.113 500.095 179.289 500.313 179.452C500.557 179.588 500.788 179.71 501.006 179.819C501.223 179.901 501.536 179.996 501.943 180.105C502.351 180.186 502.704 180.268 503.003 180.349C503.302 180.403 503.71 180.485 504.226 180.594C504.743 180.675 505.15 180.743 505.449 180.798C506.319 180.988 507.026 181.164 507.569 181.327C508.14 181.463 508.792 181.708 509.526 182.061C510.26 182.387 510.83 182.768 511.238 183.203C511.673 183.61 512.04 184.181 512.339 184.915C512.665 185.622 512.828 186.45 512.828 187.402C512.828 189.467 512.013 191.111 510.382 192.334C508.779 193.53 506.659 194.128 504.023 194.128Z" fill="#024E80"/>
<path d="M15.2412 43.6115C11.1374 43.6115 7.76734 42.1983 5.13112 39.3718C2.52208 36.5182 1.21756 32.9036 1.21756 28.528C1.21756 24.1252 2.49491 20.4834 5.04959 17.6026C7.60428 14.7218 10.9879 13.2814 15.2004 13.2814C18.6791 13.2814 21.4648 14.2054 23.5575 16.0535C25.6773 17.8744 26.9003 20.2253 27.2264 23.1061H21.3561C21.0843 21.6113 20.4049 20.4291 19.3178 19.5594C18.2579 18.6897 16.8854 18.2549 15.2004 18.2549C12.6185 18.2549 10.6482 19.2061 9.28928 21.1085C7.93041 23.011 7.25097 25.4841 7.25097 28.528C7.25097 31.5447 7.97117 34.0042 9.41158 35.9067C10.8792 37.8091 12.8224 38.7603 15.2412 38.7603C16.9533 38.7603 18.3802 38.2983 19.5216 37.3743C20.6631 36.423 21.3289 35.1729 21.5192 33.6238H27.308C27.1449 36.3687 26.0714 38.6652 24.0874 40.5133C21.8861 42.5787 18.9373 43.6115 15.2412 43.6115ZM41.5548 43.6115C38.1848 43.6115 35.535 42.5787 33.6054 40.5133C31.6758 38.4206 30.711 35.7572 30.711 32.5231C30.711 29.3977 31.6758 26.7886 33.6054 24.696C35.535 22.5761 38.0081 21.5162 41.0248 21.5162C44.3133 21.5162 46.8544 22.6576 48.6481 24.9406C50.4419 27.2235 51.3387 30.2809 51.3387 34.113H36.1737C36.3911 35.7708 36.9482 37.0617 37.8451 37.9858C38.7419 38.8826 39.9649 39.331 41.514 39.331C43.5524 39.331 44.8976 38.4749 45.5499 36.7628H51.0126C50.6049 38.7195 49.5722 40.3502 47.9143 41.6547C46.2565 42.9592 44.1367 43.6115 41.5548 43.6115ZM41.1064 25.7966C38.4158 25.7966 36.7987 27.2914 36.2552 30.2809H45.5499C45.4684 28.9492 45.0199 27.8757 44.2046 27.0604C43.3893 26.2179 42.3565 25.7966 41.1064 25.7966ZM55.6169 43V13.8521H61.1611V43H55.6169ZM76.2666 43.6115C72.8966 43.6115 70.2468 42.5787 68.3172 40.5133C66.3876 38.4206 65.4228 35.7572 65.4228 32.5231C65.4228 29.3977 66.3876 26.7886 68.3172 24.696C70.2468 22.5761 72.72 21.5162 75.7367 21.5162C79.0251 21.5162 81.5662 22.6576 83.36 24.9406C85.1537 27.2235 86.0505 30.2809 86.0505 34.113H70.8855C71.1029 35.7708 71.66 37.0617 72.5569 37.9858C73.4538 38.8826 74.6767 39.331 76.2259 39.331C78.2642 39.331 79.6095 38.4749 80.2617 36.7628H85.7244C85.3167 38.7195 84.284 40.3502 82.6262 41.6547C80.9683 42.9592 78.8485 43.6115 76.2666 43.6115ZM75.8182 25.7966C73.1276 25.7966 71.5106 27.2914 70.967 30.2809H80.2617C80.1802 28.9492 79.7318 27.8757 78.9164 27.0604C78.1011 26.2179 77.0684 25.7966 75.8182 25.7966ZM101.906 43.6115C99.0799 43.6115 97.0008 42.538 95.6691 40.391H95.5876V43H90.2472V13.8521H95.7914V24.6144H95.9137C97.2454 22.5489 99.1886 21.5162 101.743 21.5162C104.38 21.5162 106.54 22.5489 108.225 24.6144C109.91 26.6527 110.753 29.3025 110.753 32.5638C110.753 35.9339 109.937 38.6244 108.307 40.6356C106.676 42.6195 104.543 43.6115 101.906 43.6115ZM100.683 38.9641C102.097 38.9641 103.184 38.407 103.945 37.2927C104.733 36.1784 105.127 34.6022 105.127 32.5638C105.127 30.5527 104.719 28.9628 103.904 27.7942C103.116 26.5984 101.974 26.0005 100.48 26.0005C97.2726 26.0005 95.6691 28.229 95.6691 32.6861C95.6691 34.6157 96.1176 36.1513 97.0144 37.2927C97.9113 38.407 99.1343 38.9641 100.683 38.9641ZM120.309 22.0869V25.4297H120.431C121.083 24.2068 121.803 23.3099 122.591 22.7392C123.38 22.1413 124.372 21.8423 125.567 21.8423C126.138 21.8423 126.573 21.8967 126.872 22.0054V26.8566H126.75C124.874 26.6663 123.366 27.074 122.225 28.0796C121.083 29.0851 120.512 30.6614 120.512 32.8084V43H114.968V22.0869H120.309ZM143.461 43C143.189 42.6467 142.972 41.8721 142.809 40.6763H142.727C142.129 41.5732 141.369 42.2662 140.444 42.7554C139.52 43.2446 138.23 43.4892 136.572 43.4892C134.37 43.4892 132.604 42.9321 131.272 41.8178C129.94 40.7035 129.275 39.1272 129.275 37.0889C129.275 34.969 130.008 33.4199 131.476 32.4415C132.943 31.436 135.009 30.7429 137.672 30.3625C139.629 30.0907 140.961 29.8189 141.667 29.5471C142.374 29.2482 142.727 28.7318 142.727 27.998C142.727 27.2371 142.428 26.6391 141.831 26.2043C141.233 25.7423 140.363 25.5113 139.221 25.5113C136.694 25.5113 135.349 26.4897 135.186 28.4464H130.253C130.334 26.4625 131.136 24.8183 132.658 23.5137C134.18 22.2092 136.381 21.557 139.262 21.557C145.133 21.557 148.068 24.1252 148.068 29.2618V39.9018C148.068 41.4781 148.312 42.4429 148.802 42.7962V43H143.461ZM137.917 39.6164C139.439 39.6164 140.635 39.2223 141.504 38.4342C142.401 37.646 142.85 36.7084 142.85 35.6213V32.4823C142.252 32.8356 140.961 33.2433 138.977 33.7053C137.401 34.0586 136.286 34.4663 135.634 34.9283C134.982 35.3631 134.656 36.0426 134.656 36.9666C134.656 38.7331 135.743 39.6164 137.917 39.6164ZM151.602 25.7559V22.0869H154.496V15.5643H159.918V22.0869H163.506V25.7559H159.918V36.8443C159.918 38.2303 160.611 38.9234 161.997 38.9234L163.628 38.8826V42.9592C162.786 43.0136 161.631 43.0408 160.163 43.0408C158.559 43.0408 157.214 42.6603 156.127 41.8993C155.04 41.1112 154.496 39.8202 154.496 38.0265V25.7559H151.602ZM167.991 43V22.0869H173.536V43H167.991ZM167.991 18.8256V13.8521H173.536V18.8256H167.991ZM184.161 22.0869V24.9406H184.283C185.723 22.6576 187.789 21.5162 190.479 21.5162C192.626 21.5162 194.366 22.25 195.697 23.7176C197.029 25.158 197.695 27.0332 197.695 29.3433V43H192.151V30.1586C192.151 29.0172 191.825 28.0931 191.172 27.3865C190.547 26.6799 189.664 26.3266 188.523 26.3266C187.3 26.3266 186.28 26.775 185.465 27.6719C184.677 28.5687 184.283 29.7238 184.283 31.137V43H178.739V22.0869H184.161ZM211.956 50.1341C209.13 50.1341 206.86 49.5634 205.148 48.4219C203.463 47.2805 202.471 45.677 202.172 43.6115H207.676C208.219 45.1606 209.619 45.9352 211.875 45.9352C214.973 45.9352 216.522 44.4812 216.522 41.5732V39.2903H216.4C214.959 40.9209 213.138 41.7362 210.937 41.7362C208.464 41.7362 206.303 40.8258 204.455 39.0049C202.634 37.184 201.724 34.7652 201.724 31.7485C201.724 28.6503 202.566 26.1771 204.251 24.3291C205.936 22.4538 208.111 21.5162 210.774 21.5162C213.301 21.5162 215.231 22.4402 216.563 24.2883H216.644V22.0869H221.985V41.4101C221.985 44.1279 221.156 46.2477 219.498 47.7697C217.813 49.3459 215.299 50.1341 211.956 50.1341ZM211.875 37.2927C213.532 37.2927 214.769 36.7628 215.584 35.7028C216.4 34.6429 216.807 33.284 216.807 31.6262C216.807 29.9956 216.372 28.6503 215.503 27.5904C214.66 26.5033 213.437 25.9597 211.834 25.9597C210.421 25.9597 209.279 26.4761 208.409 27.5088C207.567 28.5416 207.146 29.9276 207.146 31.667C207.146 33.4335 207.567 34.8196 208.409 35.8251C209.279 36.8035 210.434 37.2927 211.875 37.2927Z" fill="#024E80"/>
<mask id="path-7-outside-2_254_148" maskUnits="userSpaceOnUse" x="243" y="4" width="114" height="148" fill="black">
<rect fill="white" x="243" y="4" width="114" height="148"/>
<path d="M244.924 150C245.062 138.962 247.269 129.648 251.547 122.059C255.962 114.471 262.102 107.365 269.967 100.742C274.106 97.1544 280.936 91.9112 290.456 85.0123C299.977 78.1134 306.669 72.9392 310.532 69.4898C316.741 63.9707 319.846 58.1066 319.846 51.8976C319.846 46.2405 318.259 41.7562 315.086 38.4447C311.912 35.1333 307.359 33.4775 301.426 33.4775C294.665 33.4775 289.56 35.6162 286.11 39.8935C281.971 44.5848 279.832 51.5526 279.694 60.7972H246.993C246.993 45.6196 250.236 33.6155 256.721 24.7849C265.689 11.815 280.867 5.32998 302.254 5.32998C318.673 5.32998 331.505 9.60731 340.749 18.162C350.132 26.7166 354.823 37.5479 354.823 50.6558C354.823 59.6244 352.754 67.2132 348.614 73.4222C344.475 79.6312 338.68 85.6332 331.229 91.4283C328.745 93.36 322.743 97.7753 313.223 104.674C303.84 111.435 297.217 116.885 293.354 121.025V121.232H355.03V150H244.924Z"/>
</mask>
<path d="M244.924 150C245.062 138.962 247.269 129.648 251.547 122.059C255.962 114.471 262.102 107.365 269.967 100.742C274.106 97.1544 280.936 91.9112 290.456 85.0123C299.977 78.1134 306.669 72.9392 310.532 69.4898C316.741 63.9707 319.846 58.1066 319.846 51.8976C319.846 46.2405 318.259 41.7562 315.086 38.4447C311.912 35.1333 307.359 33.4775 301.426 33.4775C294.665 33.4775 289.56 35.6162 286.11 39.8935C281.971 44.5848 279.832 51.5526 279.694 60.7972H246.993C246.993 45.6196 250.236 33.6155 256.721 24.7849C265.689 11.815 280.867 5.32998 302.254 5.32998C318.673 5.32998 331.505 9.60731 340.749 18.162C350.132 26.7166 354.823 37.5479 354.823 50.6558C354.823 59.6244 352.754 67.2132 348.614 73.4222C344.475 79.6312 338.68 85.6332 331.229 91.4283C328.745 93.36 322.743 97.7753 313.223 104.674C303.84 111.435 297.217 116.885 293.354 121.025V121.232H355.03V150H244.924Z" fill="#024E80"/>
<path d="M244.924 150L243.729 149.985L243.714 151.194H244.924V150ZM251.547 122.059L250.514 121.459L250.51 121.466L250.506 121.473L251.547 122.059ZM269.967 100.742L270.736 101.655L270.743 101.65L270.749 101.644L269.967 100.742ZM310.532 69.4898L309.739 68.597L309.737 68.5988L310.532 69.4898ZM315.086 38.4447L315.948 37.6183V37.6183L315.086 38.4447ZM286.11 39.8935L287.006 40.6838L287.023 40.6639L287.04 40.6433L286.11 39.8935ZM279.694 60.7972V61.9916H280.871L280.888 60.815L279.694 60.7972ZM246.993 60.7972H245.799V61.9916H246.993V60.7972ZM256.721 24.7849L257.684 25.4919L257.694 25.4782L257.703 25.4643L256.721 24.7849ZM340.749 18.162L339.938 19.0387L339.945 19.0446L340.749 18.162ZM348.614 73.4222L347.62 72.7596V72.7596L348.614 73.4222ZM331.229 91.4283L330.496 90.4855H330.496L331.229 91.4283ZM313.223 104.674L313.921 105.643L313.924 105.641L313.223 104.674ZM293.354 121.025L292.481 120.21L292.16 120.554V121.025H293.354ZM293.354 121.232H292.16V122.426H293.354V121.232ZM355.03 121.232H356.225V120.037H355.03V121.232ZM355.03 150V151.194H356.225V150H355.03ZM244.924 150L246.118 150.015C246.254 139.125 248.431 130.02 252.587 122.646L251.547 122.059L250.506 121.473C246.107 129.277 243.869 138.799 243.729 149.985L244.924 150ZM251.547 122.059L252.579 122.66C256.915 115.208 262.959 108.205 270.736 101.655L269.967 100.742L269.197 99.8282C261.245 106.525 255.009 113.733 250.514 121.459L251.547 122.059ZM269.967 100.742L270.749 101.644C274.847 98.0933 281.641 92.8757 291.157 85.9795L290.456 85.0123L289.756 84.0451C280.231 90.9468 273.366 96.2155 269.184 99.8392L269.967 100.742ZM290.456 85.0123L291.157 85.9795C300.68 79.0789 307.415 73.8742 311.328 70.3808L310.532 69.4898L309.737 68.5988C305.923 72.0043 299.274 77.1479 289.756 84.0451L290.456 85.0123ZM310.532 69.4898L311.326 70.3825C317.699 64.7173 321.04 58.5527 321.04 51.8976H319.846H318.651C318.651 57.6605 315.783 63.224 309.739 68.597L310.532 69.4898ZM319.846 51.8976H321.04C321.04 46.0083 319.382 41.2014 315.948 37.6183L315.086 38.4447L314.223 39.2712C317.136 42.311 318.651 46.4727 318.651 51.8976H319.846ZM315.086 38.4447L315.948 37.6183C312.488 34.0079 307.584 32.2831 301.426 32.2831V33.4775V34.672C307.134 34.672 311.336 36.2586 314.223 39.2712L315.086 38.4447ZM301.426 33.4775V32.2831C294.395 32.2831 288.908 34.5209 285.18 39.1437L286.11 39.8935L287.04 40.6433C290.211 36.7115 294.934 34.672 301.426 34.672V33.4775ZM286.11 39.8935L285.214 39.1032C280.814 44.0899 278.64 51.3823 278.5 60.7794L279.694 60.7972L280.888 60.815C281.024 51.723 283.127 45.0796 287.006 40.6838L286.11 39.8935ZM279.694 60.7972V59.6027H246.993V60.7972V61.9916H279.694V60.7972ZM246.993 60.7972H248.188C248.188 45.7782 251.397 34.0519 257.684 25.4919L256.721 24.7849L255.758 24.0779C249.074 33.1791 245.799 45.461 245.799 60.7972H246.993ZM256.721 24.7849L257.703 25.4643C266.374 12.925 281.106 6.52444 302.254 6.52444V5.32999V4.13553C280.628 4.13553 265.005 10.705 255.738 24.1055L256.721 24.7849ZM302.254 5.32999V6.52444C318.466 6.52444 330.975 10.7442 339.938 19.0386L340.749 18.162L341.561 17.2853C332.035 8.47038 318.88 4.13553 302.254 4.13553V5.32999ZM340.749 18.162L339.945 19.0446C349.07 27.3647 353.629 37.8715 353.629 50.6558H354.823H356.018C356.018 37.2243 351.194 26.0684 341.554 17.2793L340.749 18.162ZM354.823 50.6558H353.629C353.629 59.4368 351.604 66.7834 347.62 72.7596L348.614 73.4222L349.608 74.0847C353.903 67.6429 356.018 59.8119 356.018 50.6558H354.823ZM348.614 73.4222L347.62 72.7596C343.568 78.8378 337.871 84.7493 330.496 90.4855L331.229 91.4283L331.962 92.3712C339.489 86.5172 345.382 80.4246 349.608 74.0847L348.614 73.4222ZM331.229 91.4283L330.496 90.4855C328.031 92.402 322.048 96.8042 312.522 103.707L313.223 104.674L313.924 105.641C323.439 98.7464 329.459 94.318 331.962 92.3712L331.229 91.4283ZM313.223 104.674L312.525 103.705C303.13 110.475 296.428 115.981 292.481 120.21L293.354 121.025L294.227 121.84C298.007 117.79 304.551 112.395 313.921 105.643L313.223 104.674ZM293.354 121.025H292.16V121.232H293.354H294.548V121.025H293.354ZM293.354 121.232V122.426H355.03V121.232V120.037H293.354V121.232ZM355.03 121.232H353.836V150H355.03H356.225V121.232H355.03ZM355.03 150V148.806H244.924V150V151.194H355.03V150Z" fill="white" mask="url(#path-7-outside-2_254_148)"/>
</g>
</svg>
