<svg width="528" height="283" viewBox="0 0 528 283" fill="none" xmlns="http://www.w3.org/2000/svg">
<rect x="359.444" y="64.6759" width="162.281" height="162.281" fill="#F26923" stroke="white" stroke-width="11.7595"/>
<mask id="path-2-outside-1_254_148" maskUnits="userSpaceOnUse" x="339.236" y="94.8955" width="138" height="161" fill="black">
<rect fill="white" x="339.236" y="94.8955" width="138" height="161"/>
<path d="M408.125 225.25C427.137 225.25 436.644 208.596 436.644 175.287C436.644 159.811 434.286 147.578 429.569 138.588C425 129.597 417.852 125.102 408.125 125.102C398.397 125.102 391.175 129.597 386.459 138.588C381.743 147.431 379.384 159.664 379.384 175.287C379.384 190.91 381.743 203.143 386.459 211.986C391.175 220.829 398.397 225.25 408.125 225.25ZM407.903 254.433C388.006 254.433 371.868 247.211 359.487 232.767C347.254 218.323 341.138 199.163 341.138 175.287C341.138 151.263 347.254 132.103 359.487 117.806C371.868 103.362 388.08 96.1406 408.125 96.1406C428.464 96.1406 444.676 103.362 456.762 117.806C468.995 132.103 475.111 151.263 475.111 175.287C475.111 199.311 468.921 218.544 456.541 232.988C444.308 247.285 428.095 254.433 407.903 254.433Z"/>
</mask>
<path d="M408.125 225.25C427.137 225.25 436.644 208.596 436.644 175.287C436.644 159.811 434.286 147.578 429.569 138.588C425 129.597 417.852 125.102 408.125 125.102C398.397 125.102 391.175 129.597 386.459 138.588C381.743 147.431 379.384 159.664 379.384 175.287C379.384 190.91 381.743 203.143 386.459 211.986C391.175 220.829 398.397 225.25 408.125 225.25ZM407.903 254.433C388.006 254.433 371.868 247.211 359.487 232.767C347.254 218.323 341.138 199.163 341.138 175.287C341.138 151.263 347.254 132.103 359.487 117.806C371.868 103.362 388.08 96.1406 408.125 96.1406C428.464 96.1406 444.676 103.362 456.762 117.806C468.995 132.103 475.111 151.263 475.111 175.287C475.111 199.311 468.921 218.544 456.541 232.988C444.308 247.285 428.095 254.433 407.903 254.433Z" fill="white"/>
<path d="M429.569 138.588L428.504 139.129L428.508 139.136L428.511 139.143L429.569 138.588ZM386.459 138.588L387.513 139.15L387.517 139.143L386.459 138.588ZM386.459 211.986L387.513 211.424V211.424L386.459 211.986ZM359.487 232.767L358.576 233.539L358.58 233.544L359.487 232.767ZM359.487 117.806L358.58 117.029L358.58 117.03L359.487 117.806ZM456.762 117.806L455.846 118.573L455.854 118.583L456.762 117.806ZM456.541 232.988L455.634 232.211L455.633 232.212L456.541 232.988ZM408.125 225.25V226.445C418.064 226.445 425.588 222.047 430.551 213.352C435.458 204.756 437.838 192.016 437.838 175.287H436.644H435.449C435.449 191.867 433.076 204.109 428.477 212.167C423.934 220.126 417.198 224.056 408.125 224.056V225.25ZM436.644 175.287H437.838C437.838 159.71 435.468 147.261 430.627 138.033L429.569 138.588L428.511 139.143C433.103 147.895 435.449 159.912 435.449 175.287H436.644ZM429.569 138.588L430.634 138.046C428.271 133.396 425.207 129.845 421.417 127.462C417.625 125.077 413.178 123.907 408.125 123.907V125.102V126.296C412.798 126.296 416.789 127.374 420.145 129.484C423.504 131.597 426.299 134.788 428.504 139.129L429.569 138.588ZM408.125 125.102V123.907C403.07 123.907 398.608 125.078 394.781 127.459C390.958 129.839 387.839 133.386 385.401 138.033L386.459 138.588L387.517 139.143C389.795 134.799 392.645 131.603 396.044 129.487C399.439 127.374 403.451 126.296 408.125 126.296V125.102ZM386.459 138.588L385.405 138.026C380.559 147.112 378.19 159.567 378.19 175.287H379.384H380.579C380.579 159.761 382.926 147.75 387.513 139.15L386.459 138.588ZM379.384 175.287H378.19C378.19 191.006 380.559 203.461 385.405 212.548L386.459 211.986L387.513 211.424C382.926 202.824 380.579 190.813 380.579 175.287H379.384ZM386.459 211.986L385.405 212.548C387.845 217.122 390.966 220.612 394.789 222.953C398.614 225.295 403.074 226.445 408.125 226.445V225.25V224.056C403.448 224.056 399.433 222.995 396.036 220.916C392.638 218.835 389.789 215.692 387.513 211.424L386.459 211.986ZM407.903 254.433V253.238C388.337 253.238 372.536 246.155 360.394 231.99L359.487 232.767L358.58 233.544C371.199 248.267 387.676 255.627 407.903 255.627V254.433ZM359.487 232.767L360.399 231.995C348.392 217.819 342.332 198.956 342.332 175.287H341.138H339.943C339.943 199.37 346.116 218.828 358.576 233.539L359.487 232.767ZM341.138 175.287H342.332C342.332 151.467 348.393 132.608 360.395 118.583L359.487 117.806L358.58 117.03C346.115 131.597 339.943 151.059 339.943 175.287H341.138ZM359.487 117.806L360.394 118.584C372.534 104.42 388.407 97.335 408.125 97.335V96.1405V94.9461C387.753 94.9461 371.201 102.305 358.58 117.029L359.487 117.806ZM408.125 96.1405V97.335C428.142 97.335 444.007 104.424 455.846 118.573L456.762 117.806L457.678 117.04C445.345 102.301 428.785 94.9461 408.125 94.9461V96.1405ZM456.762 117.806L455.854 118.583C467.856 132.608 473.917 151.467 473.917 175.287H475.111H476.306C476.306 151.059 470.134 131.597 457.669 117.03L456.762 117.806ZM475.111 175.287H473.917C473.917 199.103 467.784 218.036 455.634 232.211L456.541 232.988L457.448 233.765C470.058 219.053 476.306 199.519 476.306 175.287H475.111ZM456.541 232.988L455.633 232.212C443.645 246.222 427.775 253.238 407.903 253.238V254.433V255.627C428.415 255.627 444.97 248.348 457.448 233.765L456.541 232.988Z" fill="white" mask="url(#path-2-outside-1_254_148)"/>
<path d="M417.988 264.517V253.265L408.286 235.369H414.727L419.13 244.011L421.046 248.169H421.127C421.861 246.566 422.513 245.18 423.084 244.011L427.405 235.369H433.602L423.899 253.265V264.517H417.988ZM442.71 265.128C439.34 265.128 436.691 264.095 434.761 262.03C432.831 259.937 431.867 257.274 431.867 254.04C431.867 250.914 432.831 248.305 434.761 246.213C436.691 244.093 439.164 243.033 442.18 243.033C445.469 243.033 448.01 244.174 449.804 246.457C451.597 248.74 452.494 251.798 452.494 255.63H437.329C437.547 257.287 438.104 258.578 439.001 259.502C439.898 260.399 441.121 260.848 442.67 260.848C444.708 260.848 446.053 259.992 446.706 258.279H452.168C451.761 260.236 450.728 261.867 449.07 263.171C447.412 264.476 445.292 265.128 442.71 265.128ZM442.262 247.313C439.571 247.313 437.954 248.808 437.411 251.798H446.706C446.624 250.466 446.176 249.392 445.36 248.577C444.545 247.734 443.512 247.313 442.262 247.313ZM469.859 264.517C469.587 264.163 469.369 263.389 469.206 262.193H469.125C468.527 263.09 467.766 263.783 466.842 264.272C465.918 264.761 464.627 265.006 462.969 265.006C460.768 265.006 459.001 264.449 457.669 263.334C456.338 262.22 455.672 260.644 455.672 258.605C455.672 256.486 456.406 254.937 457.873 253.958C459.341 252.953 461.406 252.26 464.07 251.879C466.026 251.607 467.358 251.336 468.065 251.064C468.771 250.765 469.125 250.248 469.125 249.515C469.125 248.754 468.826 248.156 468.228 247.721C467.63 247.259 466.76 247.028 465.619 247.028C463.091 247.028 461.746 248.006 461.583 249.963H456.65C456.732 247.979 457.534 246.335 459.055 245.03C460.577 243.726 462.779 243.074 465.66 243.074C471.53 243.074 474.465 245.642 474.465 250.778V261.418C474.465 262.995 474.71 263.959 475.199 264.313V264.517H469.859ZM464.314 261.133C465.836 261.133 467.032 260.739 467.902 259.951C468.799 259.163 469.247 258.225 469.247 257.138V253.999C468.649 254.352 467.358 254.76 465.374 255.222C463.798 255.575 462.684 255.983 462.031 256.445C461.379 256.88 461.053 257.559 461.053 258.483C461.053 260.25 462.14 261.133 464.314 261.133ZM484.961 243.604V246.946H485.083C485.735 245.723 486.456 244.827 487.244 244.256C488.032 243.658 489.024 243.359 490.22 243.359C490.79 243.359 491.225 243.413 491.524 243.522V248.373H491.402C489.527 248.183 488.018 248.591 486.877 249.596C485.735 250.602 485.165 252.178 485.165 254.325V264.517H479.62V243.604H484.961ZM504.023 265.128C501.033 265.128 498.696 264.476 497.011 263.171C495.326 261.84 494.402 260.032 494.239 257.749H499.375C499.728 260.059 501.25 261.215 503.941 261.215C505.164 261.215 506.102 260.997 506.754 260.562C507.433 260.127 507.773 259.543 507.773 258.809C507.773 258.538 507.719 258.293 507.61 258.076C507.528 257.858 507.365 257.668 507.121 257.505C506.903 257.315 506.7 257.165 506.509 257.056C506.346 256.948 506.047 256.839 505.612 256.73C505.178 256.622 504.838 256.54 504.593 256.486C504.376 256.431 503.982 256.363 503.411 256.282C502.867 256.173 502.487 256.092 502.27 256.037C501.128 255.82 500.191 255.602 499.457 255.385C498.75 255.14 498.003 254.801 497.215 254.366C496.426 253.904 495.829 253.292 495.421 252.531C495.04 251.743 494.85 250.806 494.85 249.718C494.85 247.544 495.638 245.886 497.215 244.745C498.818 243.604 500.87 243.033 503.37 243.033C506.061 243.033 508.167 243.658 509.689 244.908C511.238 246.131 512.121 247.816 512.339 249.963H507.325C507.107 247.925 505.762 246.906 503.289 246.906C502.174 246.906 501.291 247.109 500.639 247.517C500.014 247.925 499.701 248.495 499.701 249.229C499.701 249.474 499.742 249.705 499.824 249.922C499.932 250.113 500.095 250.289 500.313 250.452C500.557 250.588 500.788 250.71 501.006 250.819C501.223 250.901 501.536 250.996 501.943 251.105C502.351 251.186 502.704 251.268 503.003 251.349C503.302 251.403 503.71 251.485 504.226 251.594C504.743 251.675 505.15 251.743 505.449 251.798C506.319 251.988 507.026 252.164 507.569 252.327C508.14 252.463 508.792 252.708 509.526 253.061C510.26 253.387 510.83 253.768 511.238 254.203C511.673 254.61 512.04 255.181 512.339 255.915C512.665 256.622 512.828 257.45 512.828 258.402C512.828 260.467 512.013 262.111 510.382 263.334C508.779 264.53 506.659 265.128 504.023 265.128Z" fill="#024E80"/>
<path d="M15.2412 114.611C11.1374 114.611 7.76734 113.198 5.13112 110.372C2.52208 107.518 1.21756 103.904 1.21756 99.528C1.21756 95.1252 2.49491 91.4834 5.04959 88.6026C7.60428 85.7218 10.9879 84.2814 15.2004 84.2814C18.6791 84.2814 21.4648 85.2054 23.5575 87.0535C25.6773 88.8744 26.9003 91.2253 27.2264 94.1061H21.3561C21.0843 92.6113 20.4049 91.4291 19.3178 90.5594C18.2579 89.6897 16.8854 89.2549 15.2004 89.2549C12.6185 89.2549 10.6482 90.2061 9.28928 92.1085C7.93041 94.011 7.25097 96.4841 7.25097 99.528C7.25097 102.545 7.97117 105.004 9.41158 106.907C10.8792 108.809 12.8224 109.76 15.2412 109.76C16.9533 109.76 18.3802 109.298 19.5216 108.374C20.6631 107.423 21.3289 106.173 21.5192 104.624H27.308C27.1449 107.369 26.0714 109.665 24.0874 111.513C21.8861 113.579 18.9373 114.611 15.2412 114.611ZM41.5548 114.611C38.1848 114.611 35.535 113.579 33.6054 111.513C31.6758 109.421 30.711 106.757 30.711 103.523C30.711 100.398 31.6758 97.7886 33.6054 95.696C35.535 93.5761 38.0081 92.5162 41.0248 92.5162C44.3133 92.5162 46.8544 93.6576 48.6481 95.9406C50.4419 98.2235 51.3387 101.281 51.3387 105.113H36.1737C36.3911 106.771 36.9482 108.062 37.8451 108.986C38.7419 109.883 39.9649 110.331 41.514 110.331C43.5524 110.331 44.8976 109.475 45.5499 107.763H51.0126C50.6049 109.72 49.5722 111.35 47.9143 112.655C46.2565 113.959 44.1367 114.611 41.5548 114.611ZM41.1064 96.7966C38.4158 96.7966 36.7987 98.2914 36.2552 101.281H45.5499C45.4684 99.9492 45.0199 98.8757 44.2046 98.0604C43.3893 97.2179 42.3565 96.7966 41.1064 96.7966ZM55.6169 114V84.8521H61.1611V114H55.6169ZM76.2666 114.611C72.8966 114.611 70.2468 113.579 68.3172 111.513C66.3876 109.421 65.4228 106.757 65.4228 103.523C65.4228 100.398 66.3876 97.7886 68.3172 95.696C70.2468 93.5761 72.72 92.5162 75.7367 92.5162C79.0251 92.5162 81.5662 93.6576 83.36 95.9406C85.1537 98.2235 86.0505 101.281 86.0505 105.113H70.8855C71.1029 106.771 71.66 108.062 72.5569 108.986C73.4538 109.883 74.6767 110.331 76.2259 110.331C78.2642 110.331 79.6095 109.475 80.2617 107.763H85.7244C85.3167 109.72 84.284 111.35 82.6262 112.655C80.9683 113.959 78.8485 114.611 76.2666 114.611ZM75.8182 96.7966C73.1276 96.7966 71.5106 98.2914 70.967 101.281H80.2617C80.1802 99.9492 79.7318 98.8757 78.9164 98.0604C78.1011 97.2179 77.0684 96.7966 75.8182 96.7966ZM101.906 114.611C99.0799 114.611 97.0008 113.538 95.6691 111.391H95.5876V114H90.2472V84.8521H95.7914V95.6144H95.9137C97.2454 93.5489 99.1886 92.5162 101.743 92.5162C104.38 92.5162 106.54 93.5489 108.225 95.6144C109.91 97.6527 110.753 100.303 110.753 103.564C110.753 106.934 109.937 109.624 108.307 111.636C106.676 113.62 104.543 114.611 101.906 114.611ZM100.683 109.964C102.097 109.964 103.184 109.407 103.945 108.293C104.733 107.178 105.127 105.602 105.127 103.564C105.127 101.553 104.719 99.9628 103.904 98.7942C103.116 97.5984 101.974 97.0005 100.48 97.0005C97.2726 97.0005 95.6691 99.229 95.6691 103.686C95.6691 105.616 96.1176 107.151 97.0144 108.293C97.9113 109.407 99.1343 109.964 100.683 109.964ZM120.309 93.0869V96.4297H120.431C121.083 95.2068 121.803 94.3099 122.591 93.7392C123.38 93.1413 124.372 92.8423 125.567 92.8423C126.138 92.8423 126.573 92.8967 126.872 93.0054V97.8566H126.75C124.874 97.6663 123.366 98.074 122.225 99.0796C121.083 100.085 120.512 101.661 120.512 103.808V114H114.968V93.0869H120.309ZM143.461 114C143.189 113.647 142.972 112.872 142.809 111.676H142.727C142.129 112.573 141.369 113.266 140.444 113.755C139.52 114.245 138.23 114.489 136.572 114.489C134.37 114.489 132.604 113.932 131.272 112.818C129.94 111.704 129.275 110.127 129.275 108.089C129.275 105.969 130.008 104.42 131.476 103.442C132.943 102.436 135.009 101.743 137.672 101.362C139.629 101.091 140.961 100.819 141.667 100.547C142.374 100.248 142.727 99.7318 142.727 98.998C142.727 98.2371 142.428 97.6391 141.831 97.2043C141.233 96.7423 140.363 96.5113 139.221 96.5113C136.694 96.5113 135.349 97.4897 135.186 99.4464H130.253C130.334 97.4625 131.136 95.8183 132.658 94.5137C134.18 93.2092 136.381 92.557 139.262 92.557C145.133 92.557 148.068 95.1252 148.068 100.262V110.902C148.068 112.478 148.312 113.443 148.802 113.796V114H143.461ZM137.917 110.616C139.439 110.616 140.635 110.222 141.504 109.434C142.401 108.646 142.85 107.708 142.85 106.621V103.482C142.252 103.836 140.961 104.243 138.977 104.705C137.401 105.059 136.286 105.466 135.634 105.928C134.982 106.363 134.656 107.043 134.656 107.967C134.656 109.733 135.743 110.616 137.917 110.616ZM151.602 96.7559V93.0869H154.496V86.5643H159.918V93.0869H163.506V96.7559H159.918V107.844C159.918 109.23 160.611 109.923 161.997 109.923L163.628 109.883V113.959C162.786 114.014 161.631 114.041 160.163 114.041C158.559 114.041 157.214 113.66 156.127 112.899C155.04 112.111 154.496 110.82 154.496 109.027V96.7559H151.602ZM167.991 114V93.0869H173.536V114H167.991ZM167.991 89.8256V84.8521H173.536V89.8256H167.991ZM184.161 93.0869V95.9406H184.283C185.723 93.6576 187.789 92.5162 190.479 92.5162C192.626 92.5162 194.366 93.25 195.697 94.7176C197.029 96.158 197.695 98.0332 197.695 100.343V114H192.151V101.159C192.151 100.017 191.825 99.0931 191.172 98.3865C190.547 97.6799 189.664 97.3266 188.523 97.3266C187.3 97.3266 186.28 97.775 185.465 98.6719C184.677 99.5687 184.283 100.724 184.283 102.137V114H178.739V93.0869H184.161ZM211.956 121.134C209.13 121.134 206.86 120.563 205.148 119.422C203.463 118.28 202.471 116.677 202.172 114.611H207.676C208.219 116.161 209.619 116.935 211.875 116.935C214.973 116.935 216.522 115.481 216.522 112.573V110.29H216.4C214.959 111.921 213.138 112.736 210.937 112.736C208.464 112.736 206.303 111.826 204.455 110.005C202.634 108.184 201.724 105.765 201.724 102.749C201.724 99.6503 202.566 97.1771 204.251 95.3291C205.936 93.4538 208.111 92.5162 210.774 92.5162C213.301 92.5162 215.231 93.4402 216.563 95.2883H216.644V93.0869H221.985V112.41C221.985 115.128 221.156 117.248 219.498 118.77C217.813 120.346 215.299 121.134 211.956 121.134ZM211.875 108.293C213.532 108.293 214.769 107.763 215.584 106.703C216.4 105.643 216.807 104.284 216.807 102.626C216.807 100.996 216.372 99.6503 215.503 98.5904C214.66 97.5033 213.437 96.9597 211.834 96.9597C210.421 96.9597 209.279 97.4761 208.409 98.5088C207.567 99.5416 207.146 100.928 207.146 102.667C207.146 104.434 207.567 105.82 208.409 106.825C209.279 107.804 210.434 108.293 211.875 108.293Z" fill="#024E80"/>
<mask id="path-6-outside-2_254_148" maskUnits="userSpaceOnUse" x="243" y="75" width="114" height="148" fill="black">
<rect fill="white" x="243" y="75" width="114" height="148"/>
<path d="M244.924 221C245.062 209.962 247.269 200.648 251.547 193.059C255.962 185.471 262.102 178.365 269.967 171.742C274.106 168.154 280.936 162.911 290.456 156.012C299.977 149.113 306.669 143.939 310.532 140.49C316.741 134.971 319.846 129.107 319.846 122.898C319.846 117.24 318.259 112.756 315.086 109.445C311.912 106.133 307.359 104.478 301.426 104.478C294.665 104.478 289.56 106.616 286.11 110.894C281.971 115.585 279.832 122.553 279.694 131.797H246.993C246.993 116.62 250.236 104.615 256.721 95.7849C265.689 82.815 280.867 76.33 302.254 76.33C318.673 76.33 331.505 80.6073 340.749 89.162C350.132 97.7166 354.823 108.548 354.823 121.656C354.823 130.624 352.754 138.213 348.614 144.422C344.475 150.631 338.68 156.633 331.229 162.428C328.745 164.36 322.743 168.775 313.223 175.674C303.84 182.435 297.217 187.885 293.354 192.025V192.232H355.03V221H244.924Z"/>
</mask>
<path d="M244.924 221C245.062 209.962 247.269 200.648 251.547 193.059C255.962 185.471 262.102 178.365 269.967 171.742C274.106 168.154 280.936 162.911 290.456 156.012C299.977 149.113 306.669 143.939 310.532 140.49C316.741 134.971 319.846 129.107 319.846 122.898C319.846 117.24 318.259 112.756 315.086 109.445C311.912 106.133 307.359 104.478 301.426 104.478C294.665 104.478 289.56 106.616 286.11 110.894C281.971 115.585 279.832 122.553 279.694 131.797H246.993C246.993 116.62 250.236 104.615 256.721 95.7849C265.689 82.815 280.867 76.33 302.254 76.33C318.673 76.33 331.505 80.6073 340.749 89.162C350.132 97.7166 354.823 108.548 354.823 121.656C354.823 130.624 352.754 138.213 348.614 144.422C344.475 150.631 338.68 156.633 331.229 162.428C328.745 164.36 322.743 168.775 313.223 175.674C303.84 182.435 297.217 187.885 293.354 192.025V192.232H355.03V221H244.924Z" fill="#024E80"/>
<path d="M244.924 221L243.729 220.985L243.714 222.194H244.924V221ZM251.547 193.059L250.514 192.459L250.51 192.466L250.506 192.473L251.547 193.059ZM269.967 171.742L270.736 172.655L270.743 172.65L270.749 172.644L269.967 171.742ZM310.532 140.49L309.739 139.597L309.737 139.599L310.532 140.49ZM315.086 109.445L315.948 108.618V108.618L315.086 109.445ZM286.11 110.894L287.006 111.684L287.023 111.664L287.04 111.643L286.11 110.894ZM279.694 131.797V132.992H280.871L280.888 131.815L279.694 131.797ZM246.993 131.797H245.799V132.992H246.993V131.797ZM256.721 95.7849L257.684 96.4919L257.694 96.4782L257.703 96.4643L256.721 95.7849ZM340.749 89.162L339.938 90.0387L339.945 90.0446L340.749 89.162ZM348.614 144.422L347.62 143.76V143.76L348.614 144.422ZM331.229 162.428L330.496 161.485H330.496L331.229 162.428ZM313.223 175.674L313.921 176.643L313.924 176.641L313.223 175.674ZM293.354 192.025L292.481 191.21L292.16 191.554V192.025H293.354ZM293.354 192.232H292.16V193.426H293.354V192.232ZM355.03 192.232H356.225V191.037H355.03V192.232ZM355.03 221V222.194H356.225V221H355.03ZM244.924 221L246.118 221.015C246.254 210.125 248.431 201.02 252.587 193.646L251.547 193.059L250.506 192.473C246.107 200.277 243.869 209.799 243.729 220.985L244.924 221ZM251.547 193.059L252.579 193.66C256.915 186.208 262.959 179.205 270.736 172.655L269.967 171.742L269.197 170.828C261.245 177.525 255.009 184.733 250.514 192.459L251.547 193.059ZM269.967 171.742L270.749 172.644C274.847 169.093 281.641 163.876 291.157 156.98L290.456 156.012L289.756 155.045C280.231 161.947 273.366 167.216 269.184 170.839L269.967 171.742ZM290.456 156.012L291.157 156.98C300.68 150.079 307.415 144.874 311.328 141.381L310.532 140.49L309.737 139.599C305.923 143.004 299.274 148.148 289.756 155.045L290.456 156.012ZM310.532 140.49L311.326 141.383C317.699 135.717 321.04 129.553 321.04 122.898H319.846H318.651C318.651 128.66 315.783 134.224 309.739 139.597L310.532 140.49ZM319.846 122.898H321.04C321.04 117.008 319.382 112.201 315.948 108.618L315.086 109.445L314.223 110.271C317.136 113.311 318.651 117.473 318.651 122.898H319.846ZM315.086 109.445L315.948 108.618C312.488 105.008 307.584 103.283 301.426 103.283V104.478V105.672C307.134 105.672 311.336 107.259 314.223 110.271L315.086 109.445ZM301.426 104.478V103.283C294.395 103.283 288.908 105.521 285.18 110.144L286.11 110.894L287.04 111.643C290.211 107.711 294.934 105.672 301.426 105.672V104.478ZM286.11 110.894L285.214 110.103C280.814 115.09 278.64 122.382 278.5 131.779L279.694 131.797L280.888 131.815C281.024 122.723 283.127 116.08 287.006 111.684L286.11 110.894ZM279.694 131.797V130.603H246.993V131.797V132.992H279.694V131.797ZM246.993 131.797H248.188C248.188 116.778 251.397 105.052 257.684 96.4919L256.721 95.7849L255.758 95.0779C249.074 104.179 245.799 116.461 245.799 131.797H246.993ZM256.721 95.7849L257.703 96.4643C266.374 83.925 281.106 77.5244 302.254 77.5244V76.33V75.1355C280.628 75.1355 265.005 81.705 255.738 95.1055L256.721 95.7849ZM302.254 76.33V77.5244C318.466 77.5244 330.975 81.7442 339.938 90.0386L340.749 89.162L341.561 88.2853C332.035 79.4704 318.88 75.1355 302.254 75.1355V76.33ZM340.749 89.162L339.945 90.0446C349.07 98.3647 353.629 108.871 353.629 121.656H354.823H356.018C356.018 108.224 351.194 97.0684 341.554 88.2793L340.749 89.162ZM354.823 121.656H353.629C353.629 130.437 351.604 137.783 347.62 143.76L348.614 144.422L349.608 145.085C353.903 138.643 356.018 130.812 356.018 121.656H354.823ZM348.614 144.422L347.62 143.76C343.568 149.838 337.871 155.749 330.496 161.485L331.229 162.428L331.962 163.371C339.489 157.517 345.382 151.425 349.608 145.085L348.614 144.422ZM331.229 162.428L330.496 161.485C328.031 163.402 322.048 167.804 312.522 174.707L313.223 175.674L313.924 176.641C323.439 169.746 329.459 165.318 331.962 163.371L331.229 162.428ZM313.223 175.674L312.525 174.705C303.13 181.475 296.428 186.981 292.481 191.21L293.354 192.025L294.227 192.84C298.007 188.79 304.551 183.395 313.921 176.643L313.223 175.674ZM293.354 192.025H292.16V192.232H293.354H294.548V192.025H293.354ZM293.354 192.232V193.426H355.03V192.232V191.037H293.354V192.232ZM355.03 192.232H353.836V221H355.03H356.225V192.232H355.03ZM355.03 221V219.806H244.924V221V222.194H355.03V221Z" fill="white" mask="url(#path-6-outside-2_254_148)"/>
</svg>
