<svg width="1045" height="306" viewBox="0 0 1045 306" fill="none" xmlns="http://www.w3.org/2000/svg">
<g clip-path="url(#clip0_308_42)">
<rect width="1045" height="306" fill="white"/>
<mask id="path-2-outside-1_308_42" maskUnits="userSpaceOnUse" x="343" y="79" width="644" height="175" fill="black">
<rect fill="white" x="343" y="79" width="644" height="175"/>
<path d="M367.457 201V106.389H424.556V116.552H378.914V148.52H421.6V158.684H378.914V190.837H425.295V201H367.457ZM454.63 158.314V201H443.728V130.042H454.261V141.129H455.185C456.848 137.525 459.373 134.63 462.761 132.444C466.149 130.226 470.522 129.118 475.881 129.118C480.685 129.118 484.889 130.103 488.493 132.074C492.096 134.015 494.899 136.971 496.901 140.944C498.902 144.886 499.903 149.875 499.903 155.912V201H489.001V156.651C489.001 151.077 487.553 146.734 484.658 143.623C481.763 140.482 477.79 138.911 472.74 138.911C469.259 138.911 466.149 139.666 463.408 141.175C460.698 142.684 458.557 144.886 456.986 147.781C455.416 150.676 454.63 154.187 454.63 158.314ZM548.468 229.088C543.201 229.088 538.674 228.41 534.886 227.055C531.098 225.731 527.941 223.975 525.416 221.789C522.921 219.633 520.934 217.323 519.456 214.859L528.141 208.761C529.127 210.055 530.374 211.533 531.883 213.196C533.392 214.89 535.456 216.353 538.073 217.585C540.722 218.847 544.187 219.479 548.468 219.479C554.196 219.479 558.924 218.093 562.65 215.321C566.377 212.549 568.24 208.207 568.24 202.294V187.88H567.316C566.515 189.174 565.376 190.775 563.898 192.685C562.45 194.563 560.356 196.242 557.615 197.72C554.905 199.168 551.24 199.891 546.62 199.891C540.892 199.891 535.748 198.536 531.19 195.826C526.663 193.116 523.075 189.174 520.426 184C517.808 178.825 516.5 172.543 516.5 165.151C516.5 157.883 517.778 151.554 520.334 146.164C522.89 140.744 526.447 136.555 531.005 133.599C535.563 130.611 540.83 129.118 546.805 129.118C551.424 129.118 555.089 129.888 557.8 131.427C560.541 132.937 562.635 134.661 564.082 136.602C565.561 138.511 566.7 140.082 567.501 141.314H568.61V130.042H579.143V203.033C579.143 209.131 577.757 214.089 574.985 217.908C572.244 221.758 568.548 224.576 563.898 226.362C559.278 228.179 554.135 229.088 548.468 229.088ZM548.098 190.098C552.472 190.098 556.167 189.097 559.185 187.095C562.204 185.093 564.498 182.213 566.069 178.456C567.64 174.699 568.425 170.202 568.425 164.966C568.425 159.854 567.655 155.342 566.115 151.431C564.575 147.519 562.296 144.455 559.278 142.238C556.26 140.02 552.533 138.911 548.098 138.911C543.479 138.911 539.629 140.082 536.549 142.422C533.5 144.763 531.206 147.904 529.666 151.847C528.157 155.789 527.402 160.162 527.402 164.966C527.402 169.894 528.172 174.252 529.712 178.04C531.283 181.797 533.592 184.754 536.641 186.91C539.721 189.035 543.54 190.098 548.098 190.098ZM599.1 201V130.042H610.002V201H599.1ZM604.643 118.215C602.518 118.215 600.686 117.491 599.146 116.044C597.637 114.596 596.882 112.856 596.882 110.824C596.882 108.791 597.637 107.051 599.146 105.603C600.686 104.156 602.518 103.432 604.643 103.432C606.768 103.432 608.585 104.156 610.094 105.603C611.634 107.051 612.404 108.791 612.404 110.824C612.404 112.856 611.634 114.596 610.094 116.044C608.585 117.491 606.768 118.215 604.643 118.215ZM640.873 158.314V201H629.971V130.042H640.504V141.129H641.427C643.091 137.525 645.616 134.63 649.004 132.444C652.392 130.226 656.765 129.118 662.124 129.118C666.928 129.118 671.132 130.103 674.735 132.074C678.339 134.015 681.141 136.971 683.143 140.944C685.145 144.886 686.146 149.875 686.146 155.912V201H675.244V156.651C675.244 151.077 673.796 146.734 670.901 143.623C668.006 140.482 664.033 138.911 658.982 138.911C655.502 138.911 652.392 139.666 649.651 141.175C646.94 142.684 644.8 144.886 643.229 147.781C641.658 150.676 640.873 154.187 640.873 158.314ZM735.819 202.478C728.982 202.478 723.084 200.969 718.126 197.951C713.198 194.902 709.395 190.652 706.715 185.201C704.067 179.719 702.742 173.343 702.742 166.075C702.742 158.807 704.067 152.401 706.715 146.857C709.395 141.283 713.121 136.94 717.895 133.83C722.699 130.688 728.305 129.118 734.711 129.118C738.406 129.118 742.056 129.734 745.659 130.966C749.263 132.197 752.543 134.199 755.499 136.971C758.456 139.712 760.812 143.346 762.567 147.874C764.323 152.401 765.201 157.975 765.201 164.597V169.217H710.503V159.792H754.113C754.113 155.789 753.313 152.216 751.711 149.075C750.14 145.933 747.892 143.454 744.966 141.637C742.071 139.82 738.653 138.911 734.711 138.911C730.368 138.911 726.611 139.989 723.439 142.145C720.297 144.27 717.879 147.042 716.186 150.461C714.492 153.879 713.645 157.544 713.645 161.455V167.738C713.645 173.097 714.569 177.64 716.417 181.366C718.295 185.062 720.898 187.88 724.224 189.82C727.55 191.73 731.415 192.685 735.819 192.685C738.683 192.685 741.271 192.284 743.58 191.483C745.921 190.652 747.938 189.42 749.632 187.788C751.326 186.125 752.635 184.061 753.559 181.597L764.092 184.554C762.983 188.126 761.12 191.268 758.502 193.978C755.884 196.657 752.65 198.752 748.801 200.261C744.951 201.739 740.624 202.478 735.819 202.478ZM811.536 202.478C804.699 202.478 798.801 200.969 793.843 197.951C788.915 194.902 785.111 190.652 782.432 185.201C779.783 179.719 778.459 173.343 778.459 166.075C778.459 158.807 779.783 152.401 782.432 146.857C785.111 141.283 788.838 136.94 793.612 133.83C798.416 130.688 804.021 129.118 810.427 129.118C814.123 129.118 817.773 129.734 821.376 130.966C824.979 132.197 828.259 134.199 831.216 136.971C834.172 139.712 836.528 143.346 838.284 147.874C840.039 152.401 840.917 157.975 840.917 164.597V169.217H786.22V159.792H829.83C829.83 155.789 829.029 152.216 827.428 149.075C825.857 145.933 823.609 143.454 820.683 141.637C817.788 139.82 814.369 138.911 810.427 138.911C806.085 138.911 802.327 139.989 799.155 142.145C796.014 144.27 793.596 147.042 791.902 150.461C790.208 153.879 789.361 157.544 789.361 161.455V167.738C789.361 173.097 790.285 177.64 792.133 181.366C794.012 185.062 796.614 187.88 799.941 189.82C803.267 191.73 807.132 192.685 811.536 192.685C814.4 192.685 816.987 192.284 819.297 191.483C821.638 190.652 823.655 189.42 825.349 187.788C827.043 186.125 828.352 184.061 829.276 181.597L839.808 184.554C838.7 188.126 836.836 191.268 834.219 193.978C831.601 196.657 828.367 198.752 824.517 200.261C820.668 201.739 816.34 202.478 811.536 202.478ZM857.502 201V130.042H868.035V140.759H868.774C870.067 137.248 872.408 134.399 875.796 132.213C879.184 130.026 883.003 128.933 887.253 128.933C888.053 128.933 889.054 128.948 890.255 128.979C891.457 129.01 892.365 129.056 892.981 129.118V140.205C892.612 140.112 891.765 139.974 890.44 139.789C889.147 139.574 887.776 139.466 886.329 139.466C882.879 139.466 879.8 140.189 877.089 141.637C874.41 143.054 872.285 145.025 870.714 147.55C869.174 150.045 868.404 152.894 868.404 156.097V201H857.502ZM956.167 145.933L946.373 148.705C945.757 147.073 944.849 145.487 943.648 143.947C942.477 142.376 940.876 141.083 938.843 140.066C936.81 139.05 934.208 138.542 931.036 138.542C926.693 138.542 923.075 139.543 920.18 141.545C917.315 143.516 915.883 146.026 915.883 149.075C915.883 151.785 916.869 153.925 918.84 155.496C920.811 157.067 923.891 158.376 928.079 159.423L938.612 162.01C944.956 163.55 949.684 165.906 952.795 169.078C955.905 172.219 957.46 176.269 957.46 181.228C957.46 185.293 956.29 188.927 953.949 192.13C951.64 195.333 948.406 197.859 944.248 199.706C940.09 201.554 935.255 202.478 929.742 202.478C922.505 202.478 916.515 200.908 911.772 197.766C907.029 194.625 904.026 190.036 902.763 184L913.111 181.413C914.097 185.231 915.96 188.096 918.701 190.005C921.473 191.915 925.092 192.869 929.557 192.869C934.639 192.869 938.674 191.791 941.661 189.636C944.679 187.449 946.188 184.831 946.188 181.782C946.188 179.318 945.326 177.255 943.601 175.592C941.877 173.898 939.228 172.635 935.655 171.804L923.829 169.032C917.331 167.492 912.557 165.105 909.508 161.871C906.49 158.607 904.981 154.526 904.981 149.629C904.981 145.625 906.105 142.084 908.353 139.004C910.632 135.924 913.727 133.506 917.639 131.751C921.581 129.995 926.047 129.118 931.036 129.118C938.058 129.118 943.571 130.658 947.574 133.737C951.609 136.817 954.473 140.882 956.167 145.933Z"/>
</mask>
<path d="M367.457 201V106.389H424.556V116.552H378.914V148.52H421.6V158.684H378.914V190.837H425.295V201H367.457ZM454.63 158.314V201H443.728V130.042H454.261V141.129H455.185C456.848 137.525 459.373 134.63 462.761 132.444C466.149 130.226 470.522 129.118 475.881 129.118C480.685 129.118 484.889 130.103 488.493 132.074C492.096 134.015 494.899 136.971 496.901 140.944C498.902 144.886 499.903 149.875 499.903 155.912V201H489.001V156.651C489.001 151.077 487.553 146.734 484.658 143.623C481.763 140.482 477.79 138.911 472.74 138.911C469.259 138.911 466.149 139.666 463.408 141.175C460.698 142.684 458.557 144.886 456.986 147.781C455.416 150.676 454.63 154.187 454.63 158.314ZM548.468 229.088C543.201 229.088 538.674 228.41 534.886 227.055C531.098 225.731 527.941 223.975 525.416 221.789C522.921 219.633 520.934 217.323 519.456 214.859L528.141 208.761C529.127 210.055 530.374 211.533 531.883 213.196C533.392 214.89 535.456 216.353 538.073 217.585C540.722 218.847 544.187 219.479 548.468 219.479C554.196 219.479 558.924 218.093 562.65 215.321C566.377 212.549 568.24 208.207 568.24 202.294V187.88H567.316C566.515 189.174 565.376 190.775 563.898 192.685C562.45 194.563 560.356 196.242 557.615 197.72C554.905 199.168 551.24 199.891 546.62 199.891C540.892 199.891 535.748 198.536 531.19 195.826C526.663 193.116 523.075 189.174 520.426 184C517.808 178.825 516.5 172.543 516.5 165.151C516.5 157.883 517.778 151.554 520.334 146.164C522.89 140.744 526.447 136.555 531.005 133.599C535.563 130.611 540.83 129.118 546.805 129.118C551.424 129.118 555.089 129.888 557.8 131.427C560.541 132.937 562.635 134.661 564.082 136.602C565.561 138.511 566.7 140.082 567.501 141.314H568.61V130.042H579.143V203.033C579.143 209.131 577.757 214.089 574.985 217.908C572.244 221.758 568.548 224.576 563.898 226.362C559.278 228.179 554.135 229.088 548.468 229.088ZM548.098 190.098C552.472 190.098 556.167 189.097 559.185 187.095C562.204 185.093 564.498 182.213 566.069 178.456C567.64 174.699 568.425 170.202 568.425 164.966C568.425 159.854 567.655 155.342 566.115 151.431C564.575 147.519 562.296 144.455 559.278 142.238C556.26 140.02 552.533 138.911 548.098 138.911C543.479 138.911 539.629 140.082 536.549 142.422C533.5 144.763 531.206 147.904 529.666 151.847C528.157 155.789 527.402 160.162 527.402 164.966C527.402 169.894 528.172 174.252 529.712 178.04C531.283 181.797 533.592 184.754 536.641 186.91C539.721 189.035 543.54 190.098 548.098 190.098ZM599.1 201V130.042H610.002V201H599.1ZM604.643 118.215C602.518 118.215 600.686 117.491 599.146 116.044C597.637 114.596 596.882 112.856 596.882 110.824C596.882 108.791 597.637 107.051 599.146 105.603C600.686 104.156 602.518 103.432 604.643 103.432C606.768 103.432 608.585 104.156 610.094 105.603C611.634 107.051 612.404 108.791 612.404 110.824C612.404 112.856 611.634 114.596 610.094 116.044C608.585 117.491 606.768 118.215 604.643 118.215ZM640.873 158.314V201H629.971V130.042H640.504V141.129H641.427C643.091 137.525 645.616 134.63 649.004 132.444C652.392 130.226 656.765 129.118 662.124 129.118C666.928 129.118 671.132 130.103 674.735 132.074C678.339 134.015 681.141 136.971 683.143 140.944C685.145 144.886 686.146 149.875 686.146 155.912V201H675.244V156.651C675.244 151.077 673.796 146.734 670.901 143.623C668.006 140.482 664.033 138.911 658.982 138.911C655.502 138.911 652.392 139.666 649.651 141.175C646.94 142.684 644.8 144.886 643.229 147.781C641.658 150.676 640.873 154.187 640.873 158.314ZM735.819 202.478C728.982 202.478 723.084 200.969 718.126 197.951C713.198 194.902 709.395 190.652 706.715 185.201C704.067 179.719 702.742 173.343 702.742 166.075C702.742 158.807 704.067 152.401 706.715 146.857C709.395 141.283 713.121 136.94 717.895 133.83C722.699 130.688 728.305 129.118 734.711 129.118C738.406 129.118 742.056 129.734 745.659 130.966C749.263 132.197 752.543 134.199 755.499 136.971C758.456 139.712 760.812 143.346 762.567 147.874C764.323 152.401 765.201 157.975 765.201 164.597V169.217H710.503V159.792H754.113C754.113 155.789 753.313 152.216 751.711 149.075C750.14 145.933 747.892 143.454 744.966 141.637C742.071 139.82 738.653 138.911 734.711 138.911C730.368 138.911 726.611 139.989 723.439 142.145C720.297 144.27 717.879 147.042 716.186 150.461C714.492 153.879 713.645 157.544 713.645 161.455V167.738C713.645 173.097 714.569 177.64 716.417 181.366C718.295 185.062 720.898 187.88 724.224 189.82C727.55 191.73 731.415 192.685 735.819 192.685C738.683 192.685 741.271 192.284 743.58 191.483C745.921 190.652 747.938 189.42 749.632 187.788C751.326 186.125 752.635 184.061 753.559 181.597L764.092 184.554C762.983 188.126 761.12 191.268 758.502 193.978C755.884 196.657 752.65 198.752 748.801 200.261C744.951 201.739 740.624 202.478 735.819 202.478ZM811.536 202.478C804.699 202.478 798.801 200.969 793.843 197.951C788.915 194.902 785.111 190.652 782.432 185.201C779.783 179.719 778.459 173.343 778.459 166.075C778.459 158.807 779.783 152.401 782.432 146.857C785.111 141.283 788.838 136.94 793.612 133.83C798.416 130.688 804.021 129.118 810.427 129.118C814.123 129.118 817.773 129.734 821.376 130.966C824.979 132.197 828.259 134.199 831.216 136.971C834.172 139.712 836.528 143.346 838.284 147.874C840.039 152.401 840.917 157.975 840.917 164.597V169.217H786.22V159.792H829.83C829.83 155.789 829.029 152.216 827.428 149.075C825.857 145.933 823.609 143.454 820.683 141.637C817.788 139.82 814.369 138.911 810.427 138.911C806.085 138.911 802.327 139.989 799.155 142.145C796.014 144.27 793.596 147.042 791.902 150.461C790.208 153.879 789.361 157.544 789.361 161.455V167.738C789.361 173.097 790.285 177.64 792.133 181.366C794.012 185.062 796.614 187.88 799.941 189.82C803.267 191.73 807.132 192.685 811.536 192.685C814.4 192.685 816.987 192.284 819.297 191.483C821.638 190.652 823.655 189.42 825.349 187.788C827.043 186.125 828.352 184.061 829.276 181.597L839.808 184.554C838.7 188.126 836.836 191.268 834.219 193.978C831.601 196.657 828.367 198.752 824.517 200.261C820.668 201.739 816.34 202.478 811.536 202.478ZM857.502 201V130.042H868.035V140.759H868.774C870.067 137.248 872.408 134.399 875.796 132.213C879.184 130.026 883.003 128.933 887.253 128.933C888.053 128.933 889.054 128.948 890.255 128.979C891.457 129.01 892.365 129.056 892.981 129.118V140.205C892.612 140.112 891.765 139.974 890.44 139.789C889.147 139.574 887.776 139.466 886.329 139.466C882.879 139.466 879.8 140.189 877.089 141.637C874.41 143.054 872.285 145.025 870.714 147.55C869.174 150.045 868.404 152.894 868.404 156.097V201H857.502ZM956.167 145.933L946.373 148.705C945.757 147.073 944.849 145.487 943.648 143.947C942.477 142.376 940.876 141.083 938.843 140.066C936.81 139.05 934.208 138.542 931.036 138.542C926.693 138.542 923.075 139.543 920.18 141.545C917.315 143.516 915.883 146.026 915.883 149.075C915.883 151.785 916.869 153.925 918.84 155.496C920.811 157.067 923.891 158.376 928.079 159.423L938.612 162.01C944.956 163.55 949.684 165.906 952.795 169.078C955.905 172.219 957.46 176.269 957.46 181.228C957.46 185.293 956.29 188.927 953.949 192.13C951.64 195.333 948.406 197.859 944.248 199.706C940.09 201.554 935.255 202.478 929.742 202.478C922.505 202.478 916.515 200.908 911.772 197.766C907.029 194.625 904.026 190.036 902.763 184L913.111 181.413C914.097 185.231 915.96 188.096 918.701 190.005C921.473 191.915 925.092 192.869 929.557 192.869C934.639 192.869 938.674 191.791 941.661 189.636C944.679 187.449 946.188 184.831 946.188 181.782C946.188 179.318 945.326 177.255 943.601 175.592C941.877 173.898 939.228 172.635 935.655 171.804L923.829 169.032C917.331 167.492 912.557 165.105 909.508 161.871C906.49 158.607 904.981 154.526 904.981 149.629C904.981 145.625 906.105 142.084 908.353 139.004C910.632 135.924 913.727 133.506 917.639 131.751C921.581 129.995 926.047 129.118 931.036 129.118C938.058 129.118 943.571 130.658 947.574 133.737C951.609 136.817 954.473 140.882 956.167 145.933Z" fill="#045084"/>
<path d="M367.457 201H343.457V225H367.457V201ZM367.457 106.389V82.3888H343.457V106.389H367.457ZM424.556 106.389H448.556V82.3888H424.556V106.389ZM424.556 116.552V140.552H448.556V116.552H424.556ZM378.914 116.552V92.5521H354.914V116.552H378.914ZM378.914 148.52H354.914V172.52H378.914V148.52ZM421.6 148.52H445.6V124.52H421.6V148.52ZM421.6 158.684V182.684H445.6V158.684H421.6ZM378.914 158.684V134.684H354.914V158.684H378.914ZM378.914 190.837H354.914V214.837H378.914V190.837ZM425.295 190.837H449.295V166.837H425.295V190.837ZM425.295 201V225H449.295V201H425.295ZM367.457 201H391.457V106.389H367.457H343.457V201H367.457ZM367.457 106.389V130.389H424.556V106.389V82.3888H367.457V106.389ZM424.556 106.389H400.556V116.552H424.556H448.556V106.389H424.556ZM424.556 116.552V92.5521H378.914V116.552V140.552H424.556V116.552ZM378.914 116.552H354.914V148.52H378.914H402.914V116.552H378.914ZM378.914 148.52V172.52H421.6V148.52V124.52H378.914V148.52ZM421.6 148.52H397.6V158.684H421.6H445.6V148.52H421.6ZM421.6 158.684V134.684H378.914V158.684V182.684H421.6V158.684ZM378.914 158.684H354.914V190.837H378.914H402.914V158.684H378.914ZM378.914 190.837V214.837H425.295V190.837V166.837H378.914V190.837ZM425.295 190.837H401.295V201H425.295H449.295V190.837H425.295ZM425.295 201V177H367.457V201V225H425.295V201ZM454.63 201V225H478.63V201H454.63ZM443.728 201H419.728V225H443.728V201ZM443.728 130.042V106.042H419.728V130.042H443.728ZM454.261 130.042H478.261V106.042H454.261V130.042ZM454.261 141.129H430.261V165.129H454.261V141.129ZM455.185 141.129V165.129H470.541L476.976 151.186L455.185 141.129ZM462.761 132.444L475.776 152.608L475.841 152.567L475.905 152.525L462.761 132.444ZM488.493 132.074L476.975 153.13L477.045 153.168L477.114 153.206L488.493 132.074ZM496.901 140.944L475.468 151.744L475.485 151.777L475.502 151.811L496.901 140.944ZM499.903 201V225H523.903V201H499.903ZM489.001 201H465.001V225H489.001V201ZM484.658 143.623L467.01 159.888L467.05 159.931L467.09 159.974L484.658 143.623ZM463.408 141.175L451.833 120.151L451.782 120.179L451.732 120.207L463.408 141.175ZM456.986 147.781L435.891 136.336V136.336L456.986 147.781ZM454.63 158.314H430.63V201H454.63H478.63V158.314H454.63ZM454.63 201V177H443.728V201V225H454.63V201ZM443.728 201H467.728V130.042H443.728H419.728V201H443.728ZM443.728 130.042V154.042H454.261V130.042V106.042H443.728V130.042ZM454.261 130.042H430.261V141.129H454.261H478.261V130.042H454.261ZM454.261 141.129V165.129H455.185V141.129V117.129H454.261V141.129ZM455.185 141.129L476.976 151.186C476.882 151.389 476.699 151.703 476.412 152.032C476.126 152.359 475.876 152.544 475.776 152.608L462.761 132.444L449.746 112.279C442.598 116.893 436.996 123.265 433.394 131.071L455.185 141.129ZM462.761 132.444L475.905 152.525C475.533 152.768 475.201 152.936 474.941 153.048C474.683 153.158 474.519 153.203 474.48 153.213C474.418 153.229 474.83 153.118 475.881 153.118V129.118V105.118C467.334 105.118 457.99 106.883 449.617 112.363L462.761 132.444ZM475.881 129.118V153.118C476.643 153.118 477.041 153.196 477.159 153.223C477.261 153.247 477.168 153.236 476.975 153.13L488.493 132.074L500.01 111.019C492.319 106.811 484.024 105.118 475.881 105.118V129.118ZM488.493 132.074L477.114 153.206C476.68 152.972 476.241 152.639 475.879 152.258C475.53 151.89 475.423 151.655 475.468 151.744L496.901 140.944L518.333 130.145C514.32 122.18 508.185 115.42 499.871 110.943L488.493 132.074ZM496.901 140.944L475.502 151.811C475.286 151.386 475.903 152.342 475.903 155.912H499.903H523.903C523.903 147.408 522.519 138.387 518.299 130.077L496.901 140.944ZM499.903 155.912H475.903V201H499.903H523.903V155.912H499.903ZM499.903 201V177H489.001V201V225H499.903V201ZM489.001 201H513.001V156.651H489.001H465.001V201H489.001ZM489.001 156.651H513.001C513.001 146.954 510.413 136.068 502.227 127.273L484.658 143.623L467.09 159.974C466.02 158.825 465.424 157.635 465.147 156.803C464.899 156.061 465.001 155.901 465.001 156.651H489.001ZM484.658 143.623L502.307 127.359C494.038 118.386 483.163 114.911 472.74 114.911V138.911V162.911C472.784 162.911 471.968 162.916 470.684 162.408C469.31 161.866 468.011 160.974 467.01 159.888L484.658 143.623ZM472.74 138.911V114.911C465.675 114.911 458.504 116.478 451.833 120.151L463.408 141.175L474.983 162.199C474.449 162.493 473.917 162.689 473.454 162.801C473.233 162.854 473.055 162.883 472.929 162.897C472.803 162.911 472.737 162.911 472.74 162.911V138.911ZM463.408 141.175L451.732 120.207C444.792 124.071 439.494 129.696 435.891 136.336L456.986 147.781L478.082 159.226C477.895 159.57 477.547 160.103 476.979 160.687C476.404 161.278 475.749 161.773 475.083 162.144L463.408 141.175ZM456.986 147.781L435.891 136.336C431.991 143.525 430.63 151.183 430.63 158.314H454.63H478.63C478.63 157.761 478.684 157.631 478.641 157.825C478.593 158.037 478.448 158.552 478.082 159.226L456.986 147.781ZM534.886 227.055L542.97 204.457L542.888 204.428L542.806 204.4L534.886 227.055ZM525.416 221.789L541.125 203.645L541.117 203.637L541.108 203.63L525.416 221.789ZM519.456 214.859L505.665 195.217L487.384 208.053L498.876 227.207L519.456 214.859ZM528.141 208.761L547.232 194.216L533.242 175.855L514.35 189.119L528.141 208.761ZM531.883 213.196L549.803 197.231L549.73 197.149L549.657 197.068L531.883 213.196ZM538.074 217.585L548.402 195.921L548.347 195.895L548.293 195.869L538.074 217.585ZM562.65 215.321L576.974 234.578V234.578L562.65 215.321ZM568.24 187.88H592.24V163.88H568.24V187.88ZM567.316 187.88V163.88H553.947L546.91 175.248L567.316 187.88ZM563.898 192.685L544.92 177.992L544.903 178.014L544.886 178.036L563.898 192.685ZM557.615 197.72L568.921 218.89L568.964 218.867L569.007 218.844L557.615 197.72ZM531.19 195.826L518.863 216.418L518.894 216.437L518.924 216.455L531.19 195.826ZM520.426 184L499.011 194.835L499.037 194.885L499.063 194.936L520.426 184ZM520.334 146.164L542.019 156.449L542.03 156.425L542.041 156.401L520.334 146.164ZM531.005 133.599L544.066 153.734L544.114 153.703L544.161 153.672L531.005 133.599ZM557.8 131.427L545.943 152.294L546.083 152.374L546.224 152.452L557.8 131.427ZM564.082 136.602L544.846 150.953L544.974 151.124L545.105 151.294L564.082 136.602ZM567.501 141.314L547.378 154.393L554.476 165.314H567.501V141.314ZM568.61 141.314V165.314H592.61V141.314H568.61ZM568.61 130.042V106.042H544.61V130.042H568.61ZM579.143 130.042H603.143V106.042H579.143V130.042ZM574.985 217.908L555.562 203.811L555.497 203.899L555.434 203.988L574.985 217.908ZM563.898 226.362L555.292 203.958L555.202 203.992L555.113 204.028L563.898 226.362ZM559.185 187.095L545.92 167.094V167.094L559.185 187.095ZM566.069 178.456L588.212 187.712L588.212 187.712L566.069 178.456ZM566.115 151.431L588.447 142.639V142.639L566.115 151.431ZM559.278 142.238L545.068 161.579H545.068L559.278 142.238ZM536.549 142.422L522.027 123.314L521.981 123.35L521.935 123.385L536.549 142.422ZM529.666 151.847L507.311 143.114L507.281 143.19L507.252 143.266L529.666 151.847ZM529.712 178.04L507.479 187.078L507.523 187.188L507.569 187.297L529.712 178.04ZM536.641 186.91L522.785 206.506L522.898 206.586L523.011 206.664L536.641 186.91ZM548.468 229.088V205.088C545.152 205.088 543.501 204.648 542.97 204.457L534.886 227.055L526.802 249.653C533.847 252.173 541.251 253.088 548.468 253.088V229.088ZM534.886 227.055L542.806 204.4C541.314 203.878 540.952 203.494 541.125 203.645L525.416 221.789L509.706 239.932C514.93 244.456 520.881 247.583 526.966 249.711L534.886 227.055ZM525.416 221.789L541.108 203.63C540.684 203.263 540.413 202.978 540.251 202.79C540.171 202.697 540.117 202.626 540.083 202.581C540.05 202.535 540.036 202.512 540.036 202.511L519.456 214.859L498.876 227.207C501.842 232.15 505.58 236.367 509.723 239.947L525.416 221.789ZM519.456 214.859L533.247 234.501L541.932 228.403L528.141 208.761L514.35 189.119L505.665 195.217L519.456 214.859ZM528.141 208.761L509.051 223.306C510.575 225.307 512.299 227.328 514.11 229.324L531.883 213.196L549.657 197.068C548.449 195.738 547.678 194.802 547.232 194.216L528.141 208.761ZM531.883 213.196L513.963 229.161C518.13 233.838 523.083 237.055 527.854 239.3L538.074 217.585L548.293 195.869C547.828 195.651 548.655 195.942 549.803 197.231L531.883 213.196ZM538.074 217.585L527.745 239.249C534.752 242.589 542.126 243.479 548.468 243.479V219.479V195.479C547.984 195.479 547.618 195.461 547.36 195.44C547.101 195.419 546.974 195.396 546.961 195.394C546.948 195.392 547.075 195.414 547.316 195.488C547.557 195.563 547.932 195.697 548.402 195.921L538.074 217.585ZM548.468 219.479V243.479C558.13 243.479 568.22 241.089 576.974 234.578L562.65 215.321L548.327 196.064C548.584 195.873 548.841 195.719 549.076 195.604C549.309 195.489 549.48 195.432 549.558 195.409C549.71 195.364 549.409 195.479 548.468 195.479V219.479ZM562.65 215.321L576.974 234.578C588.417 226.067 592.24 213.506 592.24 202.294H568.24H544.24C544.24 202.788 544.157 201.991 544.787 200.522C545.494 198.875 546.733 197.25 548.327 196.064L562.65 215.321ZM568.24 202.294H592.24V187.88H568.24H544.24V202.294H568.24ZM568.24 187.88V163.88H567.316V187.88V211.88H568.24V187.88ZM567.316 187.88L546.91 175.248C546.727 175.543 546.146 176.409 544.92 177.992L563.898 192.685L582.875 207.377C584.606 205.141 586.304 202.804 587.723 200.513L567.316 187.88ZM563.898 192.685L544.886 178.036C545.47 177.278 545.979 176.827 546.232 176.625C546.478 176.428 546.515 176.439 546.222 176.596L557.615 197.72L569.007 218.844C573.828 216.244 578.868 212.577 582.909 207.333L563.898 192.685ZM557.615 197.72L546.308 176.55C546.879 176.245 547.349 176.059 547.666 175.951C547.981 175.844 548.165 175.807 548.184 175.803C548.202 175.799 548.088 175.823 547.817 175.847C547.547 175.87 547.153 175.891 546.62 175.891V199.891V223.891C553.358 223.891 561.416 222.898 568.921 218.89L557.615 197.72ZM546.62 199.891V175.891C544.85 175.891 544.007 175.524 543.456 175.197L531.19 195.826L518.924 216.455C527.49 221.548 536.933 223.891 546.62 223.891V199.891ZM531.19 195.826L543.517 175.234C543.233 175.064 542.605 174.656 541.79 173.063L520.426 184L499.063 194.936C503.544 203.691 510.093 211.168 518.863 216.418L531.19 195.826ZM520.426 184L541.841 173.165C541.325 172.144 540.5 169.783 540.5 165.151H516.5H492.5C492.5 175.302 494.292 185.507 499.011 194.835L520.426 184ZM516.5 165.151H540.5C540.5 160.678 541.283 158 542.019 156.449L520.334 146.164L498.649 135.88C494.272 145.108 492.5 155.088 492.5 165.151H516.5ZM520.334 146.164L542.041 156.401C542.895 154.59 543.635 154.013 544.066 153.734L531.005 133.599L517.945 113.464C509.26 119.097 502.885 126.897 498.627 135.927L520.334 146.164ZM531.005 133.599L544.161 153.672C544.436 153.492 545.036 153.118 546.805 153.118V129.118V105.118C536.624 105.118 526.691 107.731 517.849 113.526L531.005 133.599ZM546.805 129.118V153.118C547.824 153.118 548.198 153.206 548.084 153.182C547.961 153.156 547.13 152.969 545.943 152.294L557.8 131.427L569.656 110.561C562 106.21 553.72 105.118 546.805 105.118V129.118ZM557.8 131.427L546.224 152.452C546.808 152.773 545.953 152.437 544.846 150.953L564.082 136.602L583.319 122.25C579.317 116.886 574.273 113.1 569.375 110.403L557.8 131.427ZM564.082 136.602L545.105 151.294C546.4 152.967 547.091 153.951 547.378 154.393L567.501 141.314L587.624 128.234C586.309 126.212 584.721 124.055 583.06 121.909L564.082 136.602ZM567.501 141.314V165.314H568.61V141.314V117.314H567.501V141.314ZM568.61 141.314H592.61V130.042H568.61H544.61V141.314H568.61ZM568.61 130.042V154.042H579.143V130.042V106.042H568.61V130.042ZM579.143 130.042H555.143V203.033H579.143H603.143V130.042H579.143ZM579.143 203.033H555.143C555.143 204.288 554.998 204.833 554.989 204.865C554.987 204.873 555.018 204.759 555.114 204.556C555.212 204.35 555.357 204.092 555.562 203.811L574.985 217.908L594.408 232.006C600.92 223.034 603.143 212.715 603.143 203.033H579.143ZM574.985 217.908L555.434 203.988C555.427 203.998 555.443 203.975 555.483 203.933C555.523 203.891 555.567 203.853 555.605 203.824C555.642 203.796 555.651 203.794 555.614 203.814C555.575 203.836 555.474 203.888 555.292 203.958L563.898 226.362L572.503 248.766C581.305 245.385 588.907 239.733 594.536 231.828L574.985 217.908ZM563.898 226.362L555.113 204.028C553.658 204.6 551.549 205.088 548.468 205.088V229.088V253.088C556.72 253.088 564.897 251.759 572.682 248.697L563.898 226.362ZM548.098 190.098V214.098C556.199 214.098 564.748 212.204 572.451 207.095L559.185 187.095L545.92 167.094C546.676 166.592 547.382 166.315 547.876 166.181C548.339 166.056 548.46 166.098 548.098 166.098V190.098ZM559.185 187.095L572.451 207.095C579.907 202.15 585.046 195.286 588.212 187.712L566.069 178.456L543.926 169.199C543.906 169.246 544.027 168.945 544.4 168.478C544.787 167.992 545.307 167.5 545.92 167.094L559.185 187.095ZM566.069 178.456L588.212 187.712C591.304 180.315 592.425 172.511 592.425 164.966H568.425H544.425C544.425 167.893 543.975 169.082 543.926 169.199L566.069 178.456ZM568.425 164.966H592.425C592.425 157.477 591.299 149.884 588.447 142.639L566.115 151.431L543.783 160.223C544.011 160.8 544.425 162.231 544.425 164.966H568.425ZM566.115 151.431L588.447 142.639C585.457 135.046 580.588 128.113 573.488 122.896L559.278 142.238L545.068 161.579C544.616 161.247 544.249 160.866 543.993 160.521C543.748 160.193 543.712 160.042 543.783 160.223L566.115 151.431ZM559.278 142.238L573.488 122.896C565.632 117.125 556.675 114.911 548.098 114.911V138.911V162.911C548.318 162.911 548.02 162.938 547.375 162.746C546.693 162.543 545.87 162.168 545.068 161.579L559.278 142.238ZM548.098 138.911V114.911C539.284 114.911 530.049 117.218 522.027 123.314L536.549 142.422L551.071 161.53C550.255 162.15 549.413 162.543 548.727 162.752C548.082 162.947 547.811 162.911 548.098 162.911V138.911ZM536.549 142.422L521.935 123.385C515.069 128.655 510.277 135.52 507.311 143.114L529.666 151.847L552.021 160.579C552.103 160.368 552.098 160.449 551.922 160.689C551.738 160.942 551.474 161.221 551.163 161.46L536.549 142.422ZM529.666 151.847L507.252 143.266C504.56 150.299 503.402 157.63 503.402 164.966H527.402H551.402C551.402 162.694 551.753 161.278 552.079 160.427L529.666 151.847ZM527.402 164.966H503.402C503.402 172.372 504.559 179.896 507.479 187.078L529.712 178.04L551.945 169.002C551.785 168.608 551.402 167.416 551.402 164.966H527.402ZM529.712 178.04L507.569 187.297C510.714 194.819 515.728 201.516 522.785 206.506L536.641 186.91L550.497 167.314C550.894 167.594 551.255 167.942 551.535 168.3C551.805 168.646 551.884 168.854 551.855 168.784L529.712 178.04ZM536.641 186.91L523.011 206.664C530.902 212.108 539.748 214.098 548.098 214.098V190.098V166.098C547.675 166.098 547.778 166.048 548.249 166.179C548.755 166.32 549.489 166.616 550.272 167.156L536.641 186.91ZM599.1 201H575.1V225H599.1V201ZM599.1 130.042V106.042H575.1V130.042H599.1ZM610.002 130.042H634.002V106.042H610.002V130.042ZM610.002 201V225H634.002V201H610.002ZM599.146 116.044L582.532 133.364L582.62 133.448L582.708 133.531L599.146 116.044ZM599.146 105.603L582.708 88.1163L582.62 88.1993L582.532 88.2831L599.146 105.603ZM610.094 105.603L593.481 122.924L593.568 123.008L593.657 123.09L610.094 105.603ZM610.094 116.044L593.657 98.5568L593.568 98.6398L593.481 98.7236L610.094 116.044ZM599.1 201H623.1V130.042H599.1H575.1V201H599.1ZM599.1 130.042V154.042H610.002V130.042V106.042H599.1V130.042ZM610.002 130.042H586.002V201H610.002H634.002V130.042H610.002ZM610.002 201V177H599.1V201V225H610.002V201ZM604.643 118.215V94.2152C606.36 94.2152 608.387 94.519 610.491 95.3503C612.598 96.1825 614.304 97.3539 615.584 98.5569L599.146 116.044L582.708 133.531C588.726 139.188 596.447 142.215 604.643 142.215V118.215ZM599.146 116.044L615.759 98.7235C617.068 99.9789 618.452 101.765 619.467 104.105C620.488 106.46 620.882 108.794 620.882 110.824H596.882H572.882C572.882 119.604 576.457 127.537 582.532 133.364L599.146 116.044ZM596.882 110.824H620.882C620.882 112.853 620.488 115.187 619.467 117.542C618.452 119.883 617.068 121.668 615.759 122.924L599.146 105.603L582.532 88.2831C576.457 94.1102 572.882 102.044 572.882 110.824H596.882ZM599.146 105.603L615.584 123.09C614.304 124.293 612.598 125.465 610.491 126.297C608.387 127.128 606.36 127.432 604.643 127.432V103.432V79.4322C596.447 79.4322 588.726 82.4595 582.708 88.1163L599.146 105.603ZM604.643 103.432V127.432C602.929 127.432 600.872 127.129 598.719 126.271C596.559 125.411 594.803 124.192 593.481 122.924L610.094 105.603L626.708 88.2831C620.65 82.4722 612.848 79.4322 604.643 79.4322V103.432ZM610.094 105.603L593.657 123.09C592.348 121.86 590.929 120.078 589.879 117.705C588.82 115.312 588.404 112.92 588.404 110.824H612.404H636.404C636.404 101.877 632.682 93.8968 626.532 88.1164L610.094 105.603ZM612.404 110.824H588.404C588.404 108.727 588.82 106.336 589.879 103.942C590.929 101.569 592.348 99.7869 593.657 98.5568L610.094 116.044L626.532 133.531C632.682 127.751 636.404 119.77 636.404 110.824H612.404ZM610.094 116.044L593.481 98.7236C594.803 97.4553 596.559 96.2362 598.719 95.3759C600.872 94.5185 602.929 94.2152 604.643 94.2152V118.215V142.215C612.848 142.215 620.65 139.175 626.708 133.364L610.094 116.044ZM640.873 201V225H664.873V201H640.873ZM629.971 201H605.971V225H629.971V201ZM629.971 130.042V106.042H605.971V130.042H629.971ZM640.504 130.042H664.504V106.042H640.504V130.042ZM640.504 141.129H616.504V165.129H640.504V141.129ZM641.427 141.129V165.129H656.783L663.219 151.186L641.427 141.129ZM649.004 132.444L662.019 152.608L662.083 152.567L662.148 152.525L649.004 132.444ZM674.735 132.074L663.218 153.13L663.287 153.168L663.357 153.206L674.735 132.074ZM683.143 140.944L661.71 151.744L661.727 151.777L661.744 151.811L683.143 140.944ZM686.146 201V225H710.146V201H686.146ZM675.244 201H651.244V225H675.244V201ZM670.901 143.623L653.253 159.888L653.293 159.931L653.333 159.974L670.901 143.623ZM649.651 141.175L638.075 120.151L638.025 120.179L637.975 120.207L649.651 141.175ZM643.229 147.781L622.134 136.336V136.336L643.229 147.781ZM640.873 158.314H616.873V201H640.873H664.873V158.314H640.873ZM640.873 201V177H629.971V201V225H640.873V201ZM629.971 201H653.971V130.042H629.971H605.971V201H629.971ZM629.971 130.042V154.042H640.504V130.042V106.042H629.971V130.042ZM640.504 130.042H616.504V141.129H640.504H664.504V130.042H640.504ZM640.504 141.129V165.129H641.427V141.129V117.129H640.504V141.129ZM641.427 141.129L663.219 151.186C663.125 151.389 662.942 151.703 662.655 152.032C662.369 152.359 662.118 152.544 662.019 152.608L649.004 132.444L635.989 112.279C628.841 116.893 623.239 123.265 619.636 131.071L641.427 141.129ZM649.004 132.444L662.148 152.525C661.776 152.768 661.444 152.936 661.183 153.048C660.926 153.158 660.762 153.203 660.723 153.213C660.661 153.229 661.073 153.118 662.124 153.118V129.118V105.118C653.577 105.118 644.233 106.883 635.86 112.363L649.004 132.444ZM662.124 129.118V153.118C662.886 153.118 663.284 153.196 663.402 153.223C663.504 153.247 663.411 153.236 663.218 153.13L674.735 132.074L686.253 111.019C678.561 106.811 670.267 105.118 662.124 105.118V129.118ZM674.735 132.074L663.357 153.206C662.923 152.972 662.484 152.639 662.122 152.258C661.773 151.89 661.666 151.655 661.71 151.744L683.143 140.944L704.576 130.145C700.563 122.18 694.428 115.42 686.114 110.943L674.735 132.074ZM683.143 140.944L661.744 151.811C661.528 151.386 662.146 152.342 662.146 155.912H686.146H710.146C710.146 147.408 708.762 138.387 704.542 130.077L683.143 140.944ZM686.146 155.912H662.146V201H686.146H710.146V155.912H686.146ZM686.146 201V177H675.244V201V225H686.146V201ZM675.244 201H699.244V156.651H675.244H651.244V201H675.244ZM675.244 156.651H699.244C699.244 146.954 696.656 136.068 688.47 127.273L670.901 143.623L653.333 159.974C652.263 158.825 651.667 157.635 651.39 156.803C651.142 156.061 651.244 155.901 651.244 156.651H675.244ZM670.901 143.623L688.55 127.359C680.28 118.386 669.406 114.911 658.982 114.911V138.911V162.911C659.027 162.911 658.211 162.916 656.926 162.408C655.553 161.866 654.254 160.974 653.253 159.888L670.901 143.623ZM658.982 138.911V114.911C651.918 114.911 644.747 116.478 638.075 120.151L649.651 141.175L661.226 162.199C660.692 162.493 660.159 162.689 659.697 162.801C659.476 162.854 659.298 162.883 659.171 162.897C659.046 162.911 658.98 162.911 658.982 162.911V138.911ZM649.651 141.175L637.975 120.207C631.035 124.071 625.737 129.696 622.134 136.336L643.229 147.781L664.324 159.226C664.138 159.57 663.789 160.103 663.222 160.687C662.647 161.278 661.991 161.773 661.326 162.144L649.651 141.175ZM643.229 147.781L622.134 136.336C618.234 143.525 616.873 151.183 616.873 158.314H640.873H664.873C664.873 157.761 664.927 157.631 664.883 157.825C664.836 158.037 664.69 158.552 664.324 159.226L643.229 147.781ZM718.126 197.951L705.498 218.36L705.572 218.406L705.647 218.452L718.126 197.951ZM706.715 185.201L685.105 195.641L685.141 195.715L685.176 195.788L706.715 185.201ZM706.715 146.857L685.084 136.46L685.072 136.485L685.06 136.511L706.715 146.857ZM717.895 133.83L730.997 153.938L731.013 153.927L731.029 153.917L717.895 133.83ZM745.659 130.966L753.423 108.256V108.256L745.659 130.966ZM755.499 136.971L739.085 154.48L739.133 154.526L739.182 154.571L755.499 136.971ZM762.567 147.874L784.944 139.197V139.197L762.567 147.874ZM765.201 169.217V193.217H789.201V169.217H765.201ZM710.503 169.217H686.503V193.217H710.503V169.217ZM710.503 159.792V135.792H686.503V159.792H710.503ZM754.113 159.792V183.792H778.113V159.792H754.113ZM751.711 149.075L730.245 159.808L730.287 159.892L730.329 159.975L751.711 149.075ZM744.966 141.637L732.207 161.965L732.256 161.995L732.304 162.025L744.966 141.637ZM723.439 142.145L736.886 162.024L736.907 162.009L736.929 161.995L723.439 142.145ZM716.186 150.461L694.681 139.805V139.805L716.186 150.461ZM716.417 181.366L694.915 192.028L694.968 192.135L695.022 192.242L716.417 181.366ZM724.224 189.82L712.131 210.551L712.203 210.593L712.275 210.634L724.224 189.82ZM743.58 191.483L751.441 214.16L751.528 214.129L751.615 214.099L743.58 191.483ZM749.632 187.788L766.286 205.07L766.366 204.992L766.446 204.913L749.632 187.788ZM753.559 181.597L760.045 158.49L738.826 152.534L731.087 173.17L753.559 181.597ZM764.092 184.554L787.013 191.668L794.324 168.112L770.578 161.447L764.092 184.554ZM758.502 193.978L775.669 210.75L775.717 210.701L775.764 210.652L758.502 193.978ZM748.801 200.261L757.404 222.666L757.482 222.636L757.56 222.605L748.801 200.261ZM735.819 202.478V178.478C732.592 178.478 731.18 177.8 730.605 177.45L718.126 197.951L705.647 218.452C714.989 224.138 725.372 226.478 735.819 226.478V202.478ZM718.126 197.951L730.754 177.542C729.85 176.982 729.045 176.224 728.254 174.614L706.715 185.201L685.176 195.788C689.744 205.08 696.547 212.822 705.498 218.36L718.126 197.951ZM706.715 185.201L728.325 174.76C727.526 173.105 726.742 170.421 726.742 166.075H702.742H678.742C678.742 176.266 680.608 186.332 685.105 195.641L706.715 185.201ZM702.742 166.075H726.742C726.742 161.738 727.523 158.978 728.371 157.204L706.715 146.857L685.06 136.511C680.61 145.824 678.742 155.876 678.742 166.075H702.742ZM706.715 146.857L728.346 157.254C729.293 155.286 730.214 154.448 730.997 153.938L717.895 133.83L704.792 113.722C696.029 119.432 689.497 127.28 685.084 136.46L706.715 146.857ZM717.895 133.83L731.029 153.917C731.485 153.619 732.41 153.118 734.711 153.118V129.118V105.118C724.199 105.118 713.914 107.758 704.761 113.742L717.895 133.83ZM734.711 129.118V153.118C735.685 153.118 736.714 153.271 737.895 153.675L745.659 130.966L753.423 108.256C747.397 106.196 741.128 105.118 734.711 105.118V129.118ZM745.659 130.966L737.895 153.675C738.075 153.736 738.448 153.883 739.085 154.48L755.499 136.971L771.914 119.462C766.637 114.515 760.45 110.658 753.423 108.256L745.659 130.966ZM755.499 136.971L739.182 154.571C738.977 154.381 739.486 154.734 740.191 156.55L762.567 147.874L784.944 139.197C782.137 131.959 777.934 125.043 771.816 119.371L755.499 136.971ZM762.567 147.874L740.191 156.55C740.561 157.504 741.201 159.934 741.201 164.597H765.201H789.201C789.201 156.016 788.085 147.297 784.944 139.197L762.567 147.874ZM765.201 164.597H741.201V169.217H765.201H789.201V164.597H765.201ZM765.201 169.217V145.217H710.503V169.217V193.217H765.201V169.217ZM710.503 169.217H734.503V159.792H710.503H686.503V169.217H710.503ZM710.503 159.792V183.792H754.113V159.792V135.792H710.503V159.792ZM754.113 159.792H778.113C778.113 152.517 776.636 145.124 773.093 138.174L751.711 149.075L730.329 159.975C730.26 159.839 730.205 159.71 730.165 159.597C730.125 159.484 730.103 159.402 730.094 159.359C730.074 159.271 730.113 159.393 730.113 159.792H754.113ZM751.711 149.075L773.177 138.342C769.663 131.312 764.403 125.456 757.628 121.249L744.966 141.637L732.304 162.025C731.927 161.791 731.486 161.442 731.068 160.981C730.652 160.523 730.389 160.096 730.245 159.808L751.711 149.075ZM744.966 141.637L757.725 121.309C750.45 116.743 742.46 114.911 734.711 114.911V138.911V162.911C734.835 162.911 734.583 162.925 734.067 162.788C733.528 162.645 732.872 162.382 732.207 161.965L744.966 141.637ZM734.711 138.911V114.911C726.215 114.911 717.611 117.087 709.948 122.295L723.439 142.145L736.929 161.995C736.369 162.375 735.775 162.64 735.254 162.789C734.757 162.932 734.533 162.911 734.711 162.911V138.911ZM723.439 142.145L709.991 122.266C703.39 126.732 698.206 132.69 694.681 139.805L716.186 150.461L737.69 161.116C737.657 161.184 737.551 161.369 737.356 161.593C737.16 161.818 736.979 161.961 736.886 162.024L723.439 142.145ZM716.186 150.461L694.681 139.805C691.303 146.621 689.645 153.944 689.645 161.455H713.645H737.645C737.645 161.345 737.651 161.273 737.655 161.234C737.659 161.196 737.663 161.179 737.664 161.177C737.664 161.176 737.664 161.176 737.665 161.174C737.666 161.172 737.672 161.153 737.69 161.116L716.186 150.461ZM713.645 161.455H689.645V167.738H713.645H737.645V161.455H713.645ZM713.645 167.738H689.645C689.645 175.765 691.02 184.174 694.915 192.028L716.417 181.366L737.918 170.704C738.117 171.106 737.645 170.429 737.645 167.738H713.645ZM716.417 181.366L695.022 192.242C698.823 199.719 704.515 206.108 712.131 210.551L724.224 189.82L736.317 169.09C736.702 169.315 737.089 169.622 737.409 169.969C737.72 170.306 737.831 170.53 737.811 170.491L716.417 181.366ZM724.224 189.82L712.275 210.634C719.748 214.924 727.853 216.685 735.819 216.685V192.685V168.685C735.354 168.685 735.235 168.635 735.373 168.669C735.439 168.685 735.553 168.718 735.7 168.777C735.848 168.836 736.009 168.912 736.173 169.006L724.224 189.82ZM735.819 192.685V216.685C740.91 216.685 746.211 215.973 751.441 214.16L743.58 191.483L735.719 168.807C736.019 168.703 736.205 168.672 736.237 168.667C736.265 168.662 736.136 168.685 735.819 168.685V192.685ZM743.58 191.483L751.615 214.099C756.992 212.189 761.994 209.205 766.286 205.07L749.632 187.788L732.979 170.506C733.882 169.635 734.851 169.115 735.546 168.868L743.58 191.483ZM749.632 187.788L766.446 204.913C770.897 200.543 774.012 195.407 776.031 190.024L753.559 181.597L731.087 173.17C731.258 172.715 731.755 171.706 732.818 170.662L749.632 187.788ZM753.559 181.597L747.073 204.704L757.606 207.661L764.092 184.554L770.578 161.447L760.045 158.49L753.559 181.597ZM764.092 184.554L741.17 177.44C741.163 177.465 741.162 177.462 741.173 177.438C741.184 177.414 741.2 177.381 741.221 177.346C741.242 177.311 741.26 177.285 741.269 177.273C741.279 177.26 741.272 177.271 741.24 177.304L758.502 193.978L775.764 210.652C780.97 205.262 784.783 198.853 787.013 191.668L764.092 184.554ZM758.502 193.978L741.335 177.206C741.33 177.211 741.057 177.518 740.042 177.916L748.801 200.261L757.56 222.605C764.244 219.985 770.438 216.104 775.669 210.75L758.502 193.978ZM748.801 200.261L740.197 177.856C739.506 178.121 738.16 178.478 735.819 178.478V202.478V226.478C743.088 226.478 750.395 225.357 757.404 222.666L748.801 200.261ZM793.843 197.951L781.214 218.36L781.289 218.406L781.364 218.452L793.843 197.951ZM782.432 185.201L760.822 195.641L760.857 195.715L760.893 195.788L782.432 185.201ZM782.432 146.857L760.801 136.46L760.789 136.485L760.777 136.511L782.432 146.857ZM793.612 133.83L806.714 153.938L806.73 153.927L806.746 153.917L793.612 133.83ZM821.376 130.966L829.14 108.256V108.256L821.376 130.966ZM831.216 136.971L814.801 154.48L814.85 154.526L814.899 154.571L831.216 136.971ZM838.284 147.874L860.661 139.197V139.197L838.284 147.874ZM840.917 169.217V193.217H864.917V169.217H840.917ZM786.22 169.217H762.22V193.217H786.22V169.217ZM786.22 159.792V135.792H762.22V159.792H786.22ZM829.83 159.792V183.792H853.83V159.792H829.83ZM827.428 149.075L805.961 159.808L806.003 159.892L806.046 159.975L827.428 149.075ZM820.683 141.637L807.924 161.965L807.972 161.995L808.021 162.025L820.683 141.637ZM799.155 142.145L812.603 162.024L812.624 162.009L812.645 161.995L799.155 142.145ZM791.902 150.461L770.397 139.805V139.805L791.902 150.461ZM792.133 181.366L770.632 192.028L770.685 192.135L770.739 192.242L792.133 181.366ZM799.941 189.82L787.848 210.551L787.92 210.593L787.992 210.634L799.941 189.82ZM819.297 191.483L827.158 214.16L827.245 214.129L827.331 214.099L819.297 191.483ZM825.349 187.788L842.002 205.07L842.083 204.992L842.163 204.913L825.349 187.788ZM829.276 181.597L835.762 158.49L814.542 152.534L806.804 173.17L829.276 181.597ZM839.808 184.554L862.73 191.668L870.04 168.112L846.295 161.447L839.808 184.554ZM834.219 193.978L851.385 210.75L851.433 210.701L851.481 210.652L834.219 193.978ZM824.517 200.261L833.121 222.666L833.199 222.636L833.276 222.605L824.517 200.261ZM811.536 202.478V178.478C808.309 178.478 806.896 177.8 806.321 177.45L793.843 197.951L781.364 218.452C790.706 224.138 801.089 226.478 811.536 226.478V202.478ZM793.843 197.951L806.471 177.542C805.566 176.982 804.762 176.224 803.971 174.614L782.432 185.201L760.893 195.788C765.461 205.08 772.264 212.822 781.214 218.36L793.843 197.951ZM782.432 185.201L804.042 174.76C803.242 173.105 802.459 170.421 802.459 166.075H778.459H754.459C754.459 176.266 756.324 186.332 760.822 195.641L782.432 185.201ZM778.459 166.075H802.459C802.459 161.738 803.24 158.978 804.087 157.204L782.432 146.857L760.777 136.511C756.327 145.824 754.459 155.876 754.459 166.075H778.459ZM782.432 146.857L804.063 157.254C805.009 155.286 805.93 154.448 806.714 153.938L793.612 133.83L780.509 113.722C771.746 119.432 765.213 127.28 760.801 136.46L782.432 146.857ZM793.612 133.83L806.746 153.917C807.202 153.619 808.127 153.118 810.427 153.118V129.118V105.118C799.916 105.118 789.63 107.758 780.478 113.742L793.612 133.83ZM810.427 129.118V153.118C811.401 153.118 812.431 153.271 813.612 153.675L821.376 130.966L829.14 108.256C823.114 106.196 816.844 105.118 810.427 105.118V129.118ZM821.376 130.966L813.612 153.675C813.792 153.736 814.165 153.883 814.801 154.48L831.216 136.971L847.63 119.462C842.354 114.515 836.167 110.658 829.14 108.256L821.376 130.966ZM831.216 136.971L814.899 154.571C814.694 154.381 815.203 154.734 815.907 156.55L838.284 147.874L860.661 139.197C857.854 131.959 853.651 125.043 847.533 119.371L831.216 136.971ZM838.284 147.874L815.907 156.55C816.277 157.504 816.917 159.934 816.917 164.597H840.917H864.917C864.917 156.016 863.802 147.297 860.661 139.197L838.284 147.874ZM840.917 164.597H816.917V169.217H840.917H864.917V164.597H840.917ZM840.917 169.217V145.217H786.22V169.217V193.217H840.917V169.217ZM786.22 169.217H810.22V159.792H786.22H762.22V169.217H786.22ZM786.22 159.792V183.792H829.83V159.792V135.792H786.22V159.792ZM829.83 159.792H853.83C853.83 152.517 852.352 145.124 848.809 138.174L827.428 149.075L806.046 159.975C805.976 159.839 805.922 159.71 805.882 159.597C805.841 159.484 805.82 159.402 805.81 159.359C805.791 159.271 805.83 159.393 805.83 159.792H829.83ZM827.428 149.075L848.894 138.342C845.379 131.312 840.12 125.456 833.345 121.249L820.683 141.637L808.021 162.025C807.644 161.791 807.203 161.442 806.785 160.981C806.369 160.523 806.106 160.096 805.961 159.808L827.428 149.075ZM820.683 141.637L833.442 121.309C826.166 116.743 818.176 114.911 810.427 114.911V138.911V162.911C810.552 162.911 810.3 162.925 809.783 162.788C809.245 162.645 808.589 162.382 807.924 161.965L820.683 141.637ZM810.427 138.911V114.911C801.932 114.911 793.328 117.087 785.665 122.295L799.155 142.145L812.645 161.995C812.086 162.375 811.491 162.64 810.971 162.789C810.474 162.932 810.25 162.911 810.427 162.911V138.911ZM799.155 142.145L785.708 122.266C779.107 126.732 773.923 132.69 770.397 139.805L791.902 150.461L813.407 161.116C813.373 161.184 813.268 161.369 813.073 161.593C812.877 161.818 812.695 161.961 812.603 162.024L799.155 142.145ZM791.902 150.461L770.397 139.805C767.02 146.621 765.361 153.944 765.361 161.455H789.361H813.361C813.361 161.345 813.367 161.273 813.372 161.234C813.376 161.196 813.38 161.179 813.38 161.177C813.381 161.176 813.381 161.176 813.381 161.174C813.382 161.172 813.389 161.153 813.407 161.116L791.902 150.461ZM789.361 161.455H765.361V167.738H789.361H813.361V161.455H789.361ZM789.361 167.738H765.361C765.361 175.765 766.737 184.174 770.632 192.028L792.133 181.366L813.635 170.704C813.834 171.106 813.361 170.429 813.361 167.738H789.361ZM792.133 181.366L770.739 192.242C774.54 199.719 780.231 206.108 787.848 210.551L799.941 189.82L812.033 169.09C812.419 169.315 812.805 169.622 813.126 169.969C813.437 170.306 813.548 170.53 813.528 170.491L792.133 181.366ZM799.941 189.82L787.992 210.634C795.465 214.924 803.57 216.685 811.536 216.685V192.685V168.685C811.071 168.685 810.952 168.635 811.089 168.669C811.156 168.685 811.269 168.718 811.417 168.777C811.565 168.836 811.726 168.912 811.889 169.006L799.941 189.82ZM811.536 192.685V216.685C816.627 216.685 821.928 215.973 827.158 214.16L819.297 191.483L811.436 168.807C811.736 168.703 811.922 168.672 811.954 168.667C811.982 168.662 811.853 168.685 811.536 168.685V192.685ZM819.297 191.483L827.331 214.099C832.708 212.189 837.711 209.205 842.002 205.07L825.349 187.788L808.695 170.506C809.599 169.635 810.567 169.115 811.263 168.868L819.297 191.483ZM825.349 187.788L842.163 204.913C846.614 200.543 849.729 195.407 851.747 190.024L829.276 181.597L806.804 173.17C806.974 172.715 807.471 171.706 808.535 170.662L825.349 187.788ZM829.276 181.597L822.789 204.704L833.322 207.661L839.808 184.554L846.295 161.447L835.762 158.49L829.276 181.597ZM839.808 184.554L816.887 177.44C816.879 177.465 816.879 177.462 816.889 177.438C816.9 177.414 816.916 177.381 816.937 177.346C816.958 177.311 816.976 177.285 816.986 177.273C816.995 177.26 816.988 177.271 816.956 177.304L834.219 193.978L851.481 210.652C856.687 205.262 860.5 198.853 862.73 191.668L839.808 184.554ZM834.219 193.978L817.052 177.206C817.047 177.211 816.774 177.518 815.758 177.916L824.517 200.261L833.276 222.605C839.961 219.985 846.155 216.104 851.385 210.75L834.219 193.978ZM824.517 200.261L815.914 177.856C815.223 178.121 813.877 178.478 811.536 178.478V202.478V226.478C818.804 226.478 826.112 225.357 833.121 222.666L824.517 200.261ZM857.502 201H833.502V225H857.502V201ZM857.502 130.042V106.042H833.502V130.042H857.502ZM868.035 130.042H892.035V106.042H868.035V130.042ZM868.035 140.759H844.035V164.759H868.035V140.759ZM868.774 140.759V164.759H885.509L891.294 149.056L868.774 140.759ZM875.796 132.213L862.781 112.048L862.781 112.048L875.796 132.213ZM892.981 129.118H916.981V107.398L895.369 105.237L892.981 129.118ZM892.981 140.205L887.16 163.488L916.981 170.944V140.205H892.981ZM890.44 139.789L886.495 163.463L886.808 163.515L887.124 163.559L890.44 139.789ZM877.089 141.637L888.307 162.854L888.352 162.83L888.396 162.807L877.089 141.637ZM870.714 147.55L850.334 134.875L850.313 134.909L850.292 134.944L870.714 147.55ZM868.404 201V225H892.404V201H868.404ZM857.502 201H881.502V130.042H857.502H833.502V201H857.502ZM857.502 130.042V154.042H868.035V130.042V106.042H857.502V130.042ZM868.035 130.042H844.035V140.759H868.035H892.035V130.042H868.035ZM868.035 140.759V164.759H868.774V140.759V116.759H868.035V140.759ZM868.774 140.759L891.294 149.056C891.027 149.782 890.603 150.544 890.043 151.225C889.496 151.891 889.01 152.249 888.811 152.377L875.796 132.213L862.781 112.048C855.382 116.824 849.488 123.682 846.254 132.462L868.774 140.759ZM875.796 132.213L888.811 152.377C888.553 152.544 888.199 152.713 887.806 152.826C887.423 152.936 887.206 152.933 887.253 152.933V128.933V104.933C878.648 104.933 870.262 107.219 862.781 112.048L875.796 132.213ZM887.253 128.933V152.933C887.774 152.933 888.554 152.943 889.64 152.971L890.255 128.979L890.871 104.987C889.555 104.953 888.332 104.933 887.253 104.933V128.933ZM890.255 128.979L889.64 152.971C890.099 152.983 890.417 152.996 890.619 153.006C890.717 153.011 890.765 153.014 890.771 153.015C890.781 153.015 890.716 153.011 890.593 152.999L892.981 129.118L895.369 105.237C893.847 105.085 892.224 105.022 890.871 104.987L890.255 128.979ZM892.981 129.118H868.981V140.205H892.981H916.981V129.118H892.981ZM892.981 140.205L898.802 116.921C896.943 116.457 894.723 116.154 893.757 116.019L890.44 139.789L887.124 163.559C887.397 163.597 887.624 163.63 887.808 163.657C887.9 163.671 887.978 163.683 888.044 163.693C888.11 163.703 888.159 163.711 888.193 163.717C888.228 163.722 888.241 163.725 888.236 163.724C888.232 163.723 888.197 163.717 888.137 163.706C888.107 163.7 888.066 163.692 888.016 163.682C887.967 163.672 887.904 163.659 887.829 163.643C887.755 163.628 887.663 163.608 887.556 163.583C887.449 163.559 887.315 163.527 887.16 163.488L892.981 140.205ZM890.44 139.789L894.386 116.116C891.662 115.662 888.964 115.466 886.329 115.466V139.466V163.466C886.589 163.466 886.631 163.485 886.495 163.463L890.44 139.789ZM886.329 139.466V115.466C879.426 115.466 872.381 116.943 865.783 120.467L877.089 141.637L888.396 162.807C887.862 163.092 887.348 163.272 886.922 163.372C886.509 163.469 886.288 163.466 886.329 163.466V139.466ZM877.089 141.637L865.871 120.42C859.511 123.783 854.194 128.67 850.334 134.875L870.714 147.55L891.094 160.225C890.781 160.729 890.351 161.269 889.807 161.774C889.265 162.277 888.735 162.628 888.307 162.854L877.089 141.637ZM870.714 147.55L850.292 134.944C846.199 141.575 844.404 148.868 844.404 156.097H868.404H892.404C892.404 156.431 892.362 157.037 892.151 157.82C891.935 158.617 891.592 159.42 891.137 160.157L870.714 147.55ZM868.404 156.097H844.404V201H868.404H892.404V156.097H868.404ZM868.404 201V177H857.502V201V225H868.404V201ZM956.167 145.933L962.703 169.026L986.926 162.171L978.921 138.302L956.167 145.933ZM946.373 148.705L923.919 157.178L931.701 177.8L952.909 171.798L946.373 148.705ZM943.648 143.947L924.402 158.286L924.561 158.499L924.724 158.708L943.648 143.947ZM938.843 140.066L949.576 118.6V118.6L938.843 140.066ZM920.18 141.545L933.785 161.315L933.807 161.3L933.83 161.285L920.18 141.545ZM918.84 155.496L903.883 174.265V174.265L918.84 155.496ZM928.079 159.423L922.258 182.706L922.306 182.718L922.355 182.73L928.079 159.423ZM938.612 162.01L932.887 185.317L932.919 185.325L932.951 185.333L938.612 162.01ZM952.794 169.078L935.658 185.881L935.699 185.923L935.741 185.965L952.794 169.078ZM953.949 192.13L934.572 177.97L934.527 178.031L934.483 178.092L953.949 192.13ZM911.772 197.766L925.024 177.757V177.757L911.772 197.766ZM902.763 184L896.942 160.716L874.545 166.316L879.272 188.914L902.763 184ZM913.111 181.413L936.35 175.415L930.398 152.352L907.291 158.129L913.111 181.413ZM918.701 190.005L904.983 209.698L905.034 209.734L905.086 209.769L918.701 190.005ZM941.661 189.636L955.706 209.097L955.724 209.084L955.742 209.071L941.661 189.636ZM943.601 175.592L926.784 192.714L926.863 192.792L926.942 192.868L943.601 175.592ZM935.655 171.804L930.179 195.17L930.197 195.175L930.215 195.179L935.655 171.804ZM923.829 169.032L918.295 192.385L918.324 192.392L918.352 192.399L923.829 169.032ZM909.508 161.871L891.885 178.164L891.965 178.25L892.046 178.336L909.508 161.871ZM908.353 139.004L889.061 124.728L889.015 124.79L888.969 124.853L908.353 139.004ZM917.639 131.751L907.875 109.826L907.843 109.841L907.811 109.855L917.639 131.751ZM947.574 133.737L932.941 152.76L932.976 152.787L933.012 152.814L947.574 133.737ZM956.167 145.933L949.631 122.84L939.837 125.612L946.373 148.705L952.909 171.798L962.703 169.026L956.167 145.933ZM946.373 148.705L968.828 140.232C967.263 136.086 965.084 132.407 962.572 129.186L943.648 143.947L924.724 158.708C924.613 158.566 924.251 158.06 923.919 157.178L946.373 148.705ZM943.648 143.947L962.893 129.607C959.147 124.581 954.426 121.025 949.576 118.6L938.843 140.066L928.11 161.533C927.325 161.14 925.807 160.172 924.402 158.286L943.648 143.947ZM938.843 140.066L949.576 118.6C943.159 115.392 936.547 114.542 931.036 114.542V138.542V162.542C931.368 162.542 931.242 162.571 930.767 162.478C930.284 162.384 929.326 162.14 928.11 161.533L938.843 140.066ZM931.036 138.542V114.542C922.968 114.542 914.289 116.439 906.529 121.804L920.18 141.545L933.83 161.285C932.923 161.912 932.07 162.256 931.463 162.424C930.893 162.582 930.697 162.542 931.036 162.542V138.542ZM920.18 141.545L906.574 121.774C898.262 127.494 891.883 136.922 891.883 149.075H915.883H939.883C939.883 151.483 939.269 154.229 937.803 156.799C936.402 159.254 934.732 160.664 933.785 161.315L920.18 141.545ZM915.883 149.075H891.883C891.883 158.459 895.721 167.761 903.883 174.265L918.84 155.496L933.797 136.727C935.534 138.111 937.24 140.106 938.423 142.675C939.581 145.192 939.883 147.483 939.883 149.075H915.883ZM918.84 155.496L903.883 174.265C909.809 178.988 916.785 181.338 922.258 182.706L928.079 159.423L933.9 136.139C933.318 135.994 932.872 135.863 932.546 135.758C932.219 135.652 932.051 135.583 932.015 135.568C931.977 135.552 932.126 135.612 932.413 135.775C932.698 135.938 933.188 136.241 933.797 136.727L918.84 155.496ZM928.079 159.423L922.355 182.73L932.887 185.317L938.612 162.01L944.337 138.703L933.804 136.116L928.079 159.423ZM938.612 162.01L932.951 185.333C934.77 185.774 935.779 186.197 936.211 186.412C936.625 186.618 936.287 186.522 935.658 185.881L952.794 169.078L969.931 152.275C962.535 144.732 953.054 140.818 944.273 138.687L938.612 162.01ZM952.794 169.078L935.741 185.965C935.004 185.221 934.326 184.212 933.889 183.076C933.473 181.991 933.46 181.274 933.46 181.228H957.46H981.46C981.46 170.784 977.966 160.389 969.849 152.191L952.794 169.078ZM957.46 181.228H933.46C933.46 180.925 933.509 180.355 933.738 179.646C933.968 178.93 934.291 178.355 934.572 177.97L953.949 192.13L973.327 206.291C978.75 198.869 981.46 190.249 981.46 181.228H957.46ZM953.949 192.13L934.483 178.092C934.587 177.948 934.695 177.821 934.797 177.715C934.899 177.61 934.979 177.543 935.02 177.511C935.105 177.444 934.98 177.562 934.501 177.775L944.248 199.706L953.995 221.638C961.435 218.331 968.264 213.311 973.416 206.168L953.949 192.13ZM944.248 199.706L934.501 177.775C933.99 178.002 932.593 178.478 929.742 178.478V202.478V226.478C937.917 226.478 946.191 225.107 953.995 221.638L944.248 199.706ZM929.742 202.478V178.478C927.842 178.478 926.616 178.271 925.909 178.085C925.56 177.994 925.337 177.908 925.21 177.852C925.087 177.798 925.033 177.763 925.024 177.757L911.772 197.766L898.519 217.775C908.136 224.145 919.068 226.478 929.742 226.478V202.478ZM911.772 197.766L925.024 177.757C925.117 177.818 925.289 177.946 925.494 178.151C925.702 178.358 925.89 178.591 926.045 178.827C926.375 179.331 926.349 179.536 926.255 179.086L902.763 184L879.272 188.914C881.708 200.561 888.041 210.836 898.519 217.775L911.772 197.766ZM902.763 184L908.584 207.283L918.932 204.696L913.111 181.413L907.291 158.129L896.942 160.716L902.763 184ZM913.111 181.413L889.873 187.41C892.02 195.729 896.709 203.934 904.983 209.698L918.701 190.005L932.42 170.312C933.647 171.167 934.649 172.237 935.366 173.338C936.051 174.391 936.292 175.189 936.35 175.415L913.111 181.413ZM918.701 190.005L905.086 209.769C912.982 215.209 921.794 216.869 929.557 216.869V192.869V168.869C928.389 168.869 929.964 168.62 932.317 170.241L918.701 190.005ZM929.557 192.869V216.869C937.813 216.869 947.338 215.135 955.706 209.097L941.661 189.636L927.617 170.174C928.785 169.331 929.769 168.989 930.2 168.874C930.584 168.772 930.441 168.869 929.557 168.869V192.869ZM941.661 189.636L955.742 209.071C963.432 203.499 970.188 194.266 970.188 181.782H946.188H922.188C922.188 179.139 922.897 176.417 924.264 174.046C925.543 171.827 926.975 170.639 927.58 170.2L941.661 189.636ZM946.188 181.782H970.188C970.188 173.01 966.824 164.644 960.261 158.315L943.601 175.592L926.942 192.868C925.619 191.592 924.317 189.84 923.398 187.641C922.484 185.456 922.188 183.403 922.188 181.782H946.188ZM943.601 175.592L960.418 158.469C954.321 152.481 946.906 149.781 941.096 148.428L935.655 171.804L930.215 195.179C930.714 195.295 930.562 195.31 929.993 195.038C929.414 194.762 928.174 194.08 926.784 192.714L943.601 175.592ZM935.655 171.804L941.132 148.437L929.306 145.665L923.829 169.032L918.352 192.399L930.179 195.17L935.655 171.804ZM923.829 169.032L929.363 145.678C927.485 145.234 926.488 144.81 926.108 144.62C925.748 144.441 926.218 144.609 926.97 145.407L909.508 161.871L892.046 178.336C899.551 186.295 909.381 190.273 918.295 192.385L923.829 169.032ZM909.508 161.871L927.131 145.579C927.709 146.205 928.262 147.062 928.623 148.038C928.969 148.975 928.981 149.59 928.981 149.629H904.981H880.981C880.981 159.901 884.337 169.999 891.885 178.164L909.508 161.871ZM904.981 149.629H928.981C928.981 149.9 928.938 150.478 928.699 151.23C928.457 151.994 928.101 152.657 927.738 153.154L908.353 139.004L888.969 124.853C883.565 132.255 880.981 140.809 880.981 149.629H904.981ZM908.353 139.004L927.645 153.28C927.561 153.394 927.469 153.501 927.377 153.595C927.285 153.689 927.208 153.755 927.157 153.795C927.05 153.878 927.114 153.805 927.466 153.647L917.639 131.751L907.811 109.855C900.6 113.092 894.07 117.958 889.061 124.728L908.353 139.004ZM917.639 131.751L927.402 153.675C927.828 153.486 928.888 153.118 931.036 153.118V129.118V105.118C923.205 105.118 915.334 106.505 907.875 109.826L917.639 131.751ZM931.036 129.118V153.118C932.838 153.118 933.738 153.32 933.98 153.388C934.166 153.44 933.681 153.329 932.941 152.76L947.574 133.737L962.207 114.714C952.644 107.358 941.324 105.118 931.036 105.118V129.118ZM947.574 133.737L933.012 152.814C933.081 152.867 933.11 152.897 933.115 152.902C933.12 152.907 933.122 152.909 933.129 152.919C933.129 152.92 933.252 153.087 933.412 153.564L956.167 145.933L978.921 138.302C975.782 128.941 970.18 120.8 962.137 114.66L947.574 133.737Z" fill="white" mask="url(#path-2-outside-1_308_42)"/>
<path d="M1007.21 138.223V160.127H1028.39V169.891H1007.21V191.898H997.029V169.891H975.854V160.127H997.029V138.223H1007.21Z" fill="#FF6700" stroke="#FF6700" stroke-width="2" stroke-miterlimit="10"/>
<path d="M325.473 -19.5V325.473H-19.5V-19.5H325.473Z" fill="#045084" stroke="white" stroke-width="39"/>
</g>
<defs>
<clipPath id="clip0_308_42">
<rect width="1045" height="306" fill="white"/>
</clipPath>
</defs>
</svg>
